<svg width="29" height="29" fill="none" xmlns="http://www.w3.org/2000/svg"><circle cx="14.5" cy="14.5" r="13.9" stroke="#407826" stroke-width="1.2"/><path d="M14.63 10.638a3.473 3.473 0 00-3.468 3.466 3.456 3.456 0 003.467 3.467 3.473 3.473 0 003.467-3.467c0-1.896-1.571-3.466-3.467-3.466zm0 5.687a2.23 2.23 0 01-2.222-2.22 2.23 2.23 0 012.221-2.222 2.23 2.23 0 012.22 2.221 2.23 2.23 0 01-2.22 2.221zm3.601-4.983a.785.785 0 100-1.571.785.785 0 000 1.57z" fill="#407826"/><path d="M20.262 8.525c-.704-.731-1.706-1.11-2.843-1.11h-5.58c-2.356 0-3.927 1.57-3.927 3.927v5.552c0 1.164.38 2.166 1.138 2.898.731.704 1.706 1.056 2.817 1.056h5.525c1.164 0 2.14-.38 2.843-1.056.732-.705 1.11-1.707 1.11-2.871v-5.58c0-1.137-.378-2.112-1.083-2.816zm-.108 8.396c0 .84-.298 1.517-.785 1.977-.488.46-1.165.704-1.977.704h-5.525c-.813 0-1.49-.244-1.977-.704-.488-.488-.732-1.165-.732-2.004v-5.552c0-.813.244-1.49.732-1.977.46-.46 1.164-.704 1.977-.704h5.579c.812 0 1.49.243 1.977.73.46.488.731 1.165.731 1.95v5.58z" fill="#407826"/></svg>