<svg width="52" height="52" fill="none" xmlns="http://www.w3.org/2000/svg"><circle cx="26.238" cy="25.762" r="24.262" stroke="#407826" stroke-width="3"/><path d="M26.467 18.9c-3.368 0-6.159 2.742-6.159 6.159a6.14 6.14 0 006.16 6.16c3.416 0 6.159-2.792 6.159-6.16 0-3.368-2.791-6.16-6.16-6.16zm0 10.105a3.964 3.964 0 01-3.945-3.946 3.964 3.964 0 013.945-3.946 3.964 3.964 0 013.946 3.946 3.964 3.964 0 01-3.946 3.946zm6.4-8.855a1.395 1.395 0 100-2.79 1.395 1.395 0 000 2.79z" fill="#407826"/><path d="M36.476 15.146c-1.251-1.299-3.031-1.973-5.052-1.973H21.51c-4.186 0-6.977 2.791-6.977 6.978v9.864c0 2.07.674 3.85 2.02 5.149 1.3 1.25 3.032 1.876 5.005 1.876h9.816c2.07 0 3.802-.673 5.053-1.876 1.3-1.251 1.973-3.032 1.973-5.1V20.15c0-2.021-.674-3.754-1.925-5.005zm-.192 14.917c0 1.492-.53 2.695-1.396 3.513-.866.818-2.069 1.25-3.512 1.25h-9.817c-1.443 0-2.646-.432-3.512-1.25-.867-.866-1.3-2.07-1.3-3.561v-9.864c0-1.444.433-2.647 1.3-3.513.818-.818 2.069-1.251 3.512-1.251h9.913c1.443 0 2.646.433 3.512 1.3.818.865 1.3 2.068 1.3 3.464v9.912z" fill="#407826"/></svg>