<svg width="39" height="39" fill="none" xmlns="http://www.w3.org/2000/svg"><circle cx="19.5" cy="19.5" r="19.5" fill="#3BAE2B"/><path d="M19.318 7.203a5.862 5.862 0 110 11.725 5.862 5.862 0 010-11.725zm0 8.277a2.42 2.42 0 002.424-2.424 2.42 2.42 0 00-2.424-2.423 2.42 2.42 0 00-2.423 2.424 2.42 2.42 0 002.423 2.423zm-2.071 8.1c-2.348-.477-3.748-1.584-3.824-1.651a1.589 1.589 0 01-.243-2.24 1.589 1.589 0 012.24-.242c.016.008 1.517 1.165 3.982 1.165 2.466 0 4-1.149 4.009-1.165a1.596 1.596 0 012.239.243 1.596 1.596 0 01-.243 2.239c-.076.059-1.543 1.199-3.95 1.669l3.354 3.513a1.592 1.592 0 01-.042 2.256c-.31.302-.704.445-1.106.445-.42 0-.84-.16-1.15-.487l-3.119-3.329-3.438 3.346a1.6 1.6 0 01-2.256 0 1.6 1.6 0 010-2.256l3.547-3.505z" fill="#fff"/></svg>