<svg width="52" height="52" fill="none" xmlns="http://www.w3.org/2000/svg"><circle cx="25.762" cy="25.762" r="24.262" stroke="#407826" stroke-width="3"/><path d="M37.972 18.548h-4.613a.97.97 0 00-.535.162 1.12 1.12 0 00-.383.442s-1.84 3.732-2.43 4.99c-1.59 3.381-2.62 2.32-2.62.75v-5.411c0-.453-.163-.886-.453-1.206a1.48 1.48 0 00-1.095-.5h-3.468a2.557 2.557 0 00-1.376.276c-.43.22-.8.557-1.079.98 0 0 1.761-.314 1.761 2.3 0 .648.03 2.512.058 4.076.005.23-.054.457-.17.65a1.05 1.05 0 01-.476.425.935.935 0 01-.611.05 1.009 1.009 0 01-.527-.346 34.403 34.403 0 01-3.503-7.016 1.046 1.046 0 00-.359-.454.907.907 0 00-.525-.168h-4.19a.66.66 0 00-.332.087.739.739 0 00-.257.247.86.86 0 00-.084.723c1.272 3.845 6.755 15.929 13.012 15.929h2.634c.276 0 .54-.12.735-.336.196-.215.305-.506.305-.81v-1.752c0-.22.059-.434.168-.618.11-.184.265-.328.449-.415a.936.936 0 01.582-.076.99.99 0 01.524.288l3.152 3.263c.283.293.657.456 1.045.456h4.14c1.997 0 1.997-1.526.908-2.707-.766-.83-3.53-4.04-3.53-4.04a1.652 1.652 0 01-.398-1c-.02-.375.082-.745.288-1.044.893-1.295 2.355-3.416 2.975-4.324.847-1.241 2.38-3.871.278-3.871z" fill="#407826"/></svg>