<svg width="29" height="29" fill="none" xmlns="http://www.w3.org/2000/svg"><circle cx="14.5" cy="14.5" r="13.9" stroke="#407826" stroke-width="1.2"/><path d="M21.372 10.44h-2.596a.546.546 0 00-.301.09.623.623 0 00-.216.25s-1.035 2.1-1.368 2.808c-.895 1.903-1.474 1.306-1.474.422v-3.046c0-.254-.092-.498-.255-.678a.833.833 0 00-.616-.281h-1.952a1.44 1.44 0 00-.775.155c-.242.124-.45.313-.607.55 0 0 .991-.176.991 1.296 0 .364.017 1.414.033 2.294a.683.683 0 01-.096.366.591.591 0 01-.268.24.526.526 0 01-.344.027.568.568 0 01-.297-.194 19.366 19.366 0 01-1.971-3.95.59.59 0 00-.202-.255.511.511 0 00-.295-.095h-2.36a.37.37 0 00-.186.05.416.416 0 00-.144.138.47.47 0 00-.048.407C6.741 13.2 9.827 20 13.35 20h1.482a.56.56 0 00.414-.189.68.68 0 00.172-.456v-.986a.68.68 0 01.094-.348.593.593 0 01.253-.234.527.527 0 01.327-.042c.111.02.213.077.295.162l1.775 1.836c.159.165.37.257.588.257h2.33c1.124 0 1.124-.859.511-1.524a171.593 171.593 0 01-1.987-2.274.93.93 0 01-.224-.562.95.95 0 01.162-.588c.503-.73 1.326-1.922 1.674-2.434.477-.698 1.34-2.179.157-2.179z" fill="#407826"/></svg>