<svg width="39" height="39" fill="none" xmlns="http://www.w3.org/2000/svg"><circle cx="19.5" cy="19.5" r="19.5" fill="#3BAE2B"/><path d="M28.742 14.04H25.25a.734.734 0 00-.405.122.839.839 0 00-.29.335s-1.392 2.825-1.84 3.776c-1.203 2.56-1.982 1.756-1.982.569v-4.097c0-.342-.124-.67-.343-.912a1.12 1.12 0 00-.829-.378h-2.625a1.935 1.935 0 00-1.041.209 2.163 2.163 0 00-.817.74s1.333-.237 1.333 1.741c0 .491.023 1.902.044 3.086a.917.917 0 01-.128.492.795.795 0 01-.36.322.707.707 0 01-.464.037.764.764 0 01-.4-.261 26.048 26.048 0 01-2.65-5.311.792.792 0 00-.272-.343.687.687 0 00-.397-.128H8.612a.5.5 0 00-.251.066.56.56 0 00-.195.187.65.65 0 00-.064.547c.964 2.911 5.114 12.058 9.85 12.058h1.993a.75.75 0 00.557-.255.914.914 0 00.23-.613v-1.326c0-.166.045-.329.128-.468s.2-.248.34-.314a.71.71 0 01.44-.058.75.75 0 01.397.219l2.386 2.47a1.1 1.1 0 00.791.345h3.134c1.51 0 1.51-1.155.687-2.05-.58-.628-2.672-3.058-2.672-3.058a1.25 1.25 0 01-.302-.756 1.276 1.276 0 01.218-.79c.677-.981 1.783-2.586 2.252-3.273.641-.94 1.802-2.93.21-2.93z" fill="#fff"/></svg>