<svg width="53" height="52" fill="none" xmlns="http://www.w3.org/2000/svg"><circle cx="26.5" cy="25.762" r="24.262" stroke="#407826" stroke-width="3"/><g clip-path="url(#clip0)"><path d="M26.498 35.534h-.005c-.803-.005-7.912-.069-9.93-.624a4.154 4.154 0 01-2.9-2.937c-.527-2.011-.49-5.875-.49-6.187 0-.307-.037-4.202.49-6.229v-.005c.376-1.413 1.513-2.572 2.895-2.958.005 0 .005 0 .01-.006 1.992-.529 9.117-.592 9.92-.598h.015c.809.006 7.938.07 9.93.625 1.404.38 2.514 1.508 2.895 2.937.548 2.027.495 5.932.49 6.26.006.323.037 4.155-.49 6.176v.006a4.145 4.145 0 01-2.9 2.937h-.005c-1.992.529-9.116.598-9.92.603h-.005zM15.676 20.102c-.464 1.789-.417 5.636-.417 5.673v.027c-.016 1.069.037 4.16.417 5.62a2.054 2.054 0 001.43 1.445c1.486.407 7.275.534 9.392.55 2.123-.016 7.922-.137 9.398-.529a2.038 2.038 0 001.424-1.445c.386-1.487.433-4.562.417-5.62v-.032c.021-1.08-.02-4.207-.417-5.683v-.006a2.052 2.052 0 00-1.429-1.45c-1.47-.407-7.27-.534-9.393-.55-2.122.016-7.911.137-9.393.53a2.11 2.11 0 00-1.429 1.47zm8.168 9.939v-8.558l7.285 4.276-7.285 4.282z" fill="#407826"/></g><defs><clipPath id="clip0"><path fill="#fff" transform="translate(13.175 15.99)" d="M0 0h26.651v19.544H0z"/></clipPath></defs></svg>