<svg width="29" height="29" fill="none" xmlns="http://www.w3.org/2000/svg"><circle cx="14.5" cy="14.5" r="13.9" stroke="#46248a" stroke-width="1.2"/><g clip-path="url(#clip0)"><path d="M14.5 20h-.004c-.452-.003-4.453-.039-5.589-.352a2.338 2.338 0 01-1.632-1.653C6.98 16.863 7 14.69 7 14.513c0-.172-.02-2.365.276-3.505v-.003a2.387 2.387 0 011.63-1.665c.002 0 .002 0 .005-.003 1.122-.298 5.131-.334 5.583-.337h.01c.454.003 4.467.039 5.588.351.79.215 1.415.85 1.63 1.654.308 1.14.278 3.339.276 3.523.002.182.02 2.338-.276 3.476v.003a2.333 2.333 0 01-1.633 1.653h-.003c-1.12.298-5.13.337-5.583.34H14.5zm-6.092-8.686c-.26 1.007-.234 3.173-.234 3.193v.015c-.01.602.02 2.341.234 3.164.106.393.414.706.805.813.836.23 4.095.3 5.286.31 1.195-.01 4.46-.078 5.29-.298.39-.107.699-.42.801-.813.218-.838.244-2.568.235-3.164v-.018c.012-.607-.011-2.368-.235-3.199v-.003a1.155 1.155 0 00-.804-.816c-.828-.23-4.092-.3-5.287-.31-1.194.01-4.453.078-5.286.298-.385.11-.699.432-.805.828zm4.597 5.594v-4.816l4.101 2.406-4.1 2.41z" fill="#46248a"/></g><defs><clipPath id="clip0"><path fill="#fff" transform="translate(7 9)" d="M0 0h15v11H0z"/></clipPath></defs></svg>