<svg width="39" height="39" fill="none" xmlns="http://www.w3.org/2000/svg"><circle cx="19.5" cy="19.5" r="19.5" fill="#3BAE2B"/><path d="M25.772 17.945l-.879-1a.668.668 0 00-.94-.061l-2.62 2.296V9.667A.667.667 0 0020.667 9h-1.334a.667.667 0 00-.666.667v9.513l-2.62-2.296a.668.668 0 00-.94.061l-.879.999a.667.667 0 00.061.943l5.272 4.614c.252.22.627.22.879 0l5.27-4.614a.666.666 0 00.062-.942zm1.561 7.176H12.667a.667.667 0 00-.667.667v1.333c0 .368.299.667.667.667h14.666A.667.667 0 0028 27.12v-1.333a.667.667 0 00-.667-.667z" fill="#fff"/></svg>