<svg width="375" height="335" fill="none" xmlns="http://www.w3.org/2000/svg"><path d="M566.014 161.5c-1.499-2-.999-4-.499-6 0-.5.999-.5 1.499-.5 0-1-.5-1.5-1.499-1.5-1.499 0-2.499.5-2.499 1.5 0 .5-.499 1-.999 1l-.5-.5c0-2-.499-4-.499-6 0-.5-1.999-1-2.999-.5-.499 0-.499.5-.499 1l-2.998-1.5c-2.999 0-2.999-1.5-2.999-3V144c0-.5-.499-1-.999-1-.5.5-.999 1-.999 1.5-.5 2-1.499 1-2.499.5h-.499c0 .5-.5 1-.5 1.5 0 1 .5 1.5 1.999 1.5.499 0 2.498 0 .999 1-2.498 2-4.497 2.5-5.996 0-1-2-3.498-2.5-4.497-4-1.5-2-4.498-3-4.997-5.5 0-.5-1-.5-1.499 0-1 .5-1.999 1-1.999 2-1.999-.5-3.498-1.5-3.998-3-.499-2.5-3.498-10-4.997-12.5-.499-.5-.999-1.5-.999-2v-1.5c.5-1 .999-1 1.999-.5.499.5.999.5 1.499 0 0-.5.5-1 0-1.5s-1.499-1-2.499-1c-1.499-.5-.999-1-.499-1.5.499-.5.499-1 0-1h-1.999c-1.499.5-2.498 2-4.497 1-1.499-1-2.998-2-2.998-3.5 0-1 .499-2.5-1-3.5-.999-.5-.999-1.5-2.998-.5s-3.997 1.5-5.996 2c-.999 0-1.499-.5-1.999-1.5-1.999-.5-2.498-1.5-1.499-3 .5-.5.5-1 .999-1.5-1.998-.5-3.497-2-4.996-1.5-3.498 1.5-6.996.5-10.994 1-.999 0-1.499-.5-1.499-1.5 0-1.5-.499-2.5-2.998-3.5-1.999-.5-2.998-1.5-4.997-.5-1.998 1.5-4.497.5-6.496.5-.499 0-.499-.5-.499-.5s0-.5.499-.5c1.999-1 3.998-1.5 5.997-2 .999-.5.999-.5 0-1-1-.5-2.499-1-3.498-1-1.499-.5-1.999 1-2.998 1.5-1 .5-1.499.5-2.499 1 0-.5-.5-1-.5-1-.499-.5-.999-1.5-.999-2 0-1 0-2-.999-3-1.499-1-2.499-1.5-3.998-.5-.499-.5-.999-.5-.999-1-.5-.5 0-2-1.499-1-2.499 1.5-5.997 1-6.496 4-.5 2-1.499 1-2.499.5-.499 0-.499-.5-.999-.5-1.999-1-1.999-1-.5-2.5l.5-.5c1.999-2 1.999-2.5 0-4-.999-.5-1.999-1.5-2.998-2-.5-.5-1-.5-1.499.5v.5c.499 1 1.499 2 .999 2.5-.999 1.5-2.498 2.5-3.997 3-1.499 1-2.999-.5-4.498-1-.999-.5-1.998 0-2.998-.5-1.499-.5-2.998-1-4.997 0-1.998 1-4.497 0-5.996-1.5-.5-1-1.499-1.5-1.999-2.5-1.499 1-2.998.5-3.997 0-.999-.5-2.499 0-3.998 0-1.998 0-2.998-1-2.998-2.5l-.499-.5-.5.5c0 .5 0 1.5-.5 2 0 .5 0 2-1.499 1-.999-.5-1.999-1.5-2.998-2-.999-1-2.498-1.5-3.998-2-2.498-.5 1-2-.499-3s-2.998-2.5-4.497-3c-1-.5-2.999 1-4.498 1.5-.499 0-.499.5-.999.5-.5.5-.999.5-1.499 0-1.999-2-1.999-4 .5-5 2.498-1 2.998-1 1.499-3-1-1 .499-2 1.499-2 1.999 0 3.997.5 5.496-.5 2.499-2 5.997-3 8.995-4 .999-.5.999-.5.499-1-.499 0-.499 0-.999-.5-.5 0-.999-.5-1.499-.5.5-.5.5-1 .999-1 1-1 2.499-1.5 4.498-.5 2.998 1.5 3.497 1 5.496-1 .5-.5.5-1 .5-1 1.499 0 2.498-1.5 3.498-2 1.499-1 2.998-1.5 3.997-2.5 0-1 0-2-.999-3.5-1-2-3.498-3.5-2.998-6-2.499 0-4.498-1.5-6.996-2l-.5-.5c.5 0 1-.5 1.499-.5.5 0 1-.5 1.499-1l-.499-.5c-1.499-.5-2.499-1.5-3.998-1.5-1.499-.5-2.498 0-2.498 1.5h-2.998c-2.499-.5-2.998-.5-4.997 0v1.5h2.998c.5 0 .5.5.999.5-2.498 2-4.497 4.5-7.995 5.5h-.999c-.5 0-.5-.5-.5-.5-.999-3.5 1-7.5-1.999-11 .5 0 1-.5 1.999-.5 1-.5 1.999-.5.5-1.5-.999-1 0-2.5-1.999-3l-.5.5c-.499.5 0 2-1.998 1.5-2.998-1-5.497-1.5-8.495 0-1.499 1-2.998.5-4.497 0-.5 0-1.499-1-1.499-.5-2.499 1.5-6.496 1-7.496 4-1.499 0-1.499-1.5-1.998-2-1-1-2.499-1-3.998-2-.999-.5-.999-.5-1.499 0-.5.5-.5 1.5-.5 2-.499 2-2.498 1.5-3.997 1.5-2.499 0-1-1-.5-2s-.999-2-1.999-2c-.999-.5-.999.5-1.499 1.5 0 1.5 0 1.5-3.498 1.5h-4.996c-1 0-1 1-.5 1.5s.5 1 0 1-1.499.5-1.999 0c-2.498-2-3.997.5-5.996.5l-.5.5c.5.5 1 .5 1.499 1 1 0 1.999.5 1.999 1s-.5 1-.5 1.5c-1.499-.5-2.998-.5-4.497-1-.5-.5-.499-1.5-.999-2 0-.5 0-1-.5-1.5s-.999-1-1.499 0c-.999 1-1.499 2-2.498 3-1 1-2.999 1-3.998-.5-.5-.5-.5-1.5-1.499-1.5-.5 0-.999 0-1.999.5v.5c.5 2.5 0 3-3.498 2.5a6.929 6.929 0 00-4.497 0c-1.999.5-3.498 0-4.497-1.5V39c0-.5.5-.5 1.499 0 1.999 1 4.497 1.5 6.496 0l.999-1c-.499 0-.999-.5-1.499-.5h-6.995c-1.999-.5-3.998 2.5-6.496.5-.5 0-1 1-.5 1.5 1.499 1 1.999 2.5 1.499 4-2.498.5-3.997-1-5.996-1.5-2.499-.5-.5-1-.5-2 .5-1-.999-2-1.999-2-.999-.5-1.499.5-1.499 1.5s0 2-.999 3c-1.499 1-2.998 2-2.998 3.5 0 1-1.499.5-1.499-.5-.5-.5-.5-1.5-1.499-1.5-2.998 0-2.499-2-2.499-3.5V39c-1.499.5-2.498 1-3.997 1.5V45c0 .5-.5 1-.5 1s-.999 0-1.499-.5c-.5-.5-1.499-1-1.499-2-1.499-3.5-4.997-4-8.495-3.5 0 1-.499 1.5-1.999 1.5-.499 0-.999 0-1.998-.5-1.499-.5-3.498-1.5-4.997-2l-1 .5v1c.5 2 3.498 2 3.998 4v.5l-.5.5c-1.999-1-4.997-1-5.496-3.5h-.5c-.5 0-.5.5-.5.5V45c1 3.5 1 3.5-1.998 4.5-.5.5-3.498.5-5.997 0-1.499 0-3.498 0-4.497 1-.999 1-1.499 0-2.498-.5-1-.5-1.499-1.5-1-2.5.5-.5.5-.5 1.499 0 .5.5 1.999 1 1.999 0 0-.5-.5-1.5-1.499-1.5-1.499 0-3.498-.5-4.497.5l-1.499 1.5c2.498 1.5.499 4 2.498 5.5 1 .5.5 1-.499 1h-1.999c-.5-.5-1-1.5-1-2-.499-.5-.999-.5-1.499 0-.999 1-2.498 1-1.998-.5.499-2-1.5-3.5-3.498-4-1-.5-2.499 0-3.998 0-.499 0-.499.5-.999 1-1 .5-2.998 1.5-2.998 1-1.999-1-2.998 0-4.498.5-1.499.5-3.497 0-4.996.5-1.499 0-.5 1-.5 1.5.5.5.5 1 .5 1-1.499 0-2.999.5-3.998-1.5-.5-1.5-3.498-3.5-.5-5.5l-.499-1h-6.996c-.5-1-1.499-.5-1.499 0-.5 2.5-2.998 2-4.997 2.5-.5 0-.5 1-.999 1 0 1 .999 1.5 1.998 2.5 1 1 1.5-.5 2.499-.5.5 0 1.499 0 1.499.5 0 1-.999 2-1.499 3.5-.5 2.5 0 2.5-2.499 3.5-.499-1-.999-1.5-2.498-1.5-2.998.5-5.497-.5-7.495-1.5.499-1.5 2.998-3 1.998-5 0-.5-.499-.5-.999-1l-.5.5c-.499 2.5-5.496 2.5-4.497 6 0 .5-.499 1-.999.5-1-1-2.998-1.5-1-3 .5-.5.5-1-.499-1-.5 0-1.499 0-1.999.5s-.5 1-.999 1.5c-1 3.5-2.499 3.5-6.496 2-.5 0-1-.5-1.499-.5 0 .5-.5 1-.5 1-2.499.5-3.498 1.5-3.498 3.5-.5 0-1.499 0-1.499-.5-.5-1-.5-2-.5-3 0-.5-.999-1-1.499-1-1.499-.5-3.997 1.5-3.498 2.5 0 .5.5 1 1 1.5-2.998.5-5.497 1.5-7.995 2-1.499.5-2.998-2-4.997-1.5-2.499.5-3.998-1-5.996-1.5v.5c-1.999 2.5-1.999 2.5.999 4 .999.5.999.5.5 1-1.999 2-2.998 2-4.997 1-1-.5-1.499-.5-2.499-1-.499 0-.499-.5-.999-1 .5 0 .999-.5 1.499-.5.5 0 .999-.5 1.499-1-.5 0-.5-.5-.999-.5-1.999 0-2.998-1-2.998-2.5 0-.5-1-1-1-.5-.499.5-.499 1.5-.999 2-.999 1.5-1.999 1.5-4.497.5h-2.998c0 1 0 2.5-1.5 3.5-.499.5-.999 1.5-2.498.5-1.499-1.5-4.497-2.5-4.497-5 0-.5 0-1.5-1-2-.499.5-.499 1.5-.999 2v2.5c0 .5-.5 1-.999 1-1 0-1.999 0-2.499-.5s-.5-1.5-1.499-2c-1.499-.5-2.498 0-3.498 1-1.499 1-2.498 0-3.497-.5-2.499-1-2.499-1-3.998 1-.5.5-1 1.5-1.999 1L81.316 62c-1-1 .5-1.5.5-2 .5-1 0-2-1-2.5-.5-.5-.999-.5-1.499-1 0 0-.999.5-.999 1 0 2.5-1.499 4-3.498 5-1.499 1-1.999 1-2.498-1-2.998-1.5-3.498-1.5-5.996-1.5-.5 0-1 .5-1.5.5.5.5 1 .5 1.5 1 .5 0 .999.5 1.499.5l-1 1c-.5 0-1.499 0-1.999.5-.999 1-1.998 1-3.497 0-.5-.5-1.5-1.5-2-1.5-1.498.5-.998 1.5-.998 2.5V67c0 .5-1 1-1.5.5l-4.497-3c-1.499-1.5-4.997-.5-4.497-3.5 0-.5-.5-.5-1.5 0-2.498 2.5-2.498 2.5-6.995 2.5h-8.994c-1.5 0-2.498.5-3.498 1.5-.5.5-.5 1-.5 1 .5 0 1.5.5 2 .5 1.498-.5 2.997-2 4.996 0 0 0 1.999-.5 2.498-.5 1-.5 1.5-.5 2 .5 0 .5 0 1-.5 1.5-1 1-3.498.5-3.498 2-1.5 0-3.998.5-4.497-.5-2-1.5-3.498 0-4.997 0-1 0-2-.5-2.499-1-1-.5-1.499-1.5-1.999-2.5s-2.498-1.5-3.497-2c-1-.5-1.5-2-1.5-2.5 0 0 .5-.5 1-.5s1 0 1.999.5c1.499.5 3.497 0 3.497-1 .5-.5-.999-2-1.998-2-3.498-.5-6.996-.5-10.494 0-.5 0-1 1.5-.5 2s1 .5 1.5 0 .999-.5 1.499-.5c.5 0 1 1.5.5 2s-1.5 1-2 1.5c-.999.5-2.498.5-3.497-.5 0 0 0-.5-.5-.5l-1-1c-.499.5-.499 1-.999 1.5 0 .5 0 1.5-.5 2-1.498 1-1.998-.5-2.997-1-2.499-1.5-5.497-2.5-7.995-4-2.999 2-2.499 0-2.999-1.5 0-1 .5-2-.999-3-.5-.5-1-.5-1.999-.5-.5 0-1 .5-1 1-.499 1.5 1.5 2 1.5 3.5 0 .5-.5 1-.5 1.5h-1c-1.998-.5-2.497-2.5-4.496-2.5 0 1 0 2 .5 2.5.999 1.5 2.498 3 2.997 4.5.5 1 0 2-1.998 2-.5-2-2.998-2.5-4.497-4-.5-.5-1-.5-1.5 0l-1.499 1.5c1 1 2 2 1.5 3.5 0 .5-.5 1-1 1.5-1.499-.5-3.498-1-4.997-2h-.5s.5 0 1-.5c.5-2-.5-3-2.498-2.5-2.499.5-4.498-1-6.996-1-.5 0-1-1.5-1.999-2.5-.5-.5-1-.5-1.499-1-.5-.5-1-.5-1.5 0 .5-.5-.499.5-.499 2-.5 2.5-1 2.5-3.997 2-1.5 0-2.998-.5-4.497-1-.5 0-1.5.5-2 1-.999.5-.499 1 0 1.5 1 .5 1 1.5.5 2-.999 1.5-1.499 0-1.998 0-1.999-1-4.498 0-6.996-.5-1.999 0-2.998 1-2.998 2-.5 1-.5.5-1.5 0-2.498-2.5-2.498-2.5-4.496-1-.5.5-1 .5-1.5 1-1.998 1-1.998 0-2.498-1-.5-1-1.499-1-2.498-1-.5 0-1 .5-1.5 1s0 1.5-.5 2.5l-.499.5c-.5 0-1-.5-1-.5 0-1 .5-3-1.498-3.5-1.999-.5-3.998 0-5.497 1.5l-.5.5v.5s.5.5 1 .5c1 0 1.999-.5 2.498-.5 1.5-.5 1.5 0 2 .5 0 .5 0 1-.5 1.5s-1 .5-2 .5c-2.998.5-3.997 1.5-3.497 3.5 0 .5.5 1 1 1.5.499.5.499 1-.5 1-.5 0-2.499 0-2.499-.5 0 0-.5-.5 0-.5.5-2.5-1.999-3-3.997-3.5-2-.5-2-.5-2 1v6c0 .5-.999.5-.999 1l-.5-.5c0-1.5-.999-2.5-2.498-3-.499 0-.499-.5-.999-.5-.5.5-.5 1-.999 1.5-.5 1 2.498 2 .499 3-1.998 1.5-4.497 2.5-1.499 5 0 0 0 1-.499 1-1.999 1-4.498 2-6.496 3-2.999 1-4.498 2-3.998 4.5 0 1-.999 1.5-1.999 1.5-.999 0-2.498 0-2.998.5-1.999 1.5-3.498.5-4.997-.5-.499-.5-1.499-1.5-2.498-.5-.5.5-2.499 1-1.499 2.5.999 1 .999 2 .999 3s-.5 1.5-1.499 1.5c-.999 0-1.999-.5-1.999-1s-.499-1.5-.999-1.5c-.999 0-1.499.5-1.499 1.5v3c0 .5-1 .5-1 1l-.499-.5c0-2.5-.5-5-.5-7.5l-.5-.5-.499.5c.499 2.5-1.499 3.5-3.998 4.5-.499 0-.499 1.5.5 2s3.498 0 1.499 2c-1.999 2.5-3.498 5.5-2.498 8.5v4c-.5 1-1.5.5-1.999 0-.5 0-1-.5-1.499-.5 0 1 .499 2.5-1 2.5-3.997.5-7.495 1-11.493-.5-.999-.5-1.998 0-2.998 1-.499.5-.499.5 0 1 .5.5 2.499 1.5 2.998 1 1.5-1 3.998-1 5.497-1 1.999 0 2.499.5 2.499 2.5 0 .5 0 1-.5 1.5s-1 .5-1.499 0c-1.499-1.5-2.998-2.5-5.497-1-1.499 1-3.997 0-5.496-1-2.499 1.5-2.999.5-2.999-1.5v-2.5c0-.5-.499-.5-.999-1l-.5.5v13c-1.499 0-1.998-1-1.998-2l-1-.5c-.499 2-2.998 2.5-4.497 3.5-.5.5 0 1.5.999 2 1 .5 1.999.5 2.499 1 .5 0 0 1 0 1.5-.5.5-.999.5-1.999 0-.5-.5-.999-.5-1.499-1-.999-.5-2.498.5-1.999.5 1.999 1.5 1 4 1.499 6 0 .5 1 1 1.499.5 1.5-1 1.999-.5 2.499 1 0 1 .999 1 1.999 1.5 0 1-1 1.5-2.499 1.5s-2.998-.5-4.497-1c-2.998 1.5-6.996 1.5-8.994 4-1 0-1.999-.5-1.999-1 0-1-.5-1.5-1.499-1.5-1 0-1.999-.5-2.998 0-1.999 1 0 1.5.499 2.5 1.499 2-2.498 4 0 6-1.998 1-3.497 2-6.496 1.5 0 .5-.499 1-1.499 1-.499 0-.499-.5-.499-1-1 0-1.999.5-1.999 1v5c0 .5-1 1.5-1.999 1h-3.997c-1.499 0-1.999 1-1.999 2 0 .5 0 1.5.5 2 .499 1 1.998.5 2.998.5-.5 1.5-1.999 1.5-3.498 1.5-.5 0-1.499.5-1.499.5 0 1 .999 1 1.999 1 .999.5 1.499.5.499 1.5-.499.5-.999 1.5-.999 2 1.499 2 1.499 3 .5 4.5-1.5 1.5-2.499 3.5.499 5 1 .5.5 1 0 2-.499 2-2.498 3.5-3.997 5-.5 0-.5.5.499.5h2.999c0-.5.499-1 1.499-1 .499 0 .499.5.499 1 .5 0 1.499.5 1.499.5.5 2 1.999 3.5 4.997 4 1.499.5.5 1 0 1.5-.499.5 0 1 .5 1 2.998 0 4.997 1 5.996 3 2.998.5 3.998 1 0 2-1.499.5-1.499 2-.499 2.5.999.5 2.498.5 2.498 1 .999 2 2.498 2.5 4.997 2.5l.999 1-.499.5c-.5 0-1.5 0-1.999.5-1 .5-.5 1.5 0 2 .499.5.999.5 1.499.5h.999c.5-.5 1-.5 1.499-1 2.499-1.5 2.499-1.5 4.497 0 1 .5 1.999 1.5 3.498 1 .5 0 1-1 1.499-1.5.5-1 1.499-.5 1.999 0s1 1.5 1.499 1.5h1.999c.5 0 .5-.5 0-1s-.5-1-.5-1c.5 0 1.499-.5 1.999 0 1.499.5.999 1.5 1.999 2.5.999 1 3.498.5 3.498 2 .999 0 1.499.5 1.998 1.5 1.999 0 3.998 0 3.998 2.5 0 .5.5 2 .999 2 2.998.5 3.498 2 3.498 4l.5.5c.499 0 .999-.5.999-.5v-.5c0-1 .5-2.5.5-3.5 2.498-.5 2.998 1.5 3.997 2.5 1 .5 1 1.5 1.999 2.5.999 1 2.499.5 3.498.5 1.499-2 2.498-2 3.997 0 2.499 0 1.499 4 4.997 2 .5.5.5 1 1 1.5l.999 1c2.998-1.5 2.499 0 3.498 1.5.999 2.5 2.498 5.5 3.498 8l-2.998 1.5c-1 .5-2.499.5-3.498 0-.5 0-1-1-1.499-1.5-1.499 0-1.999-1-1.999-2-.5-2-2.499-1-3.998-1-.499 0-.999.5-.999 1 .5 1 1.499 1.5-.5 2-.999 0-1.998 0-2.998.5-.999 0-.999.5-.499 1 1.499 1.5 1.998 1.5 4.996 1 .5 0 1.499-.5 1.499-.5 2.499 3 7.496 4 8.995 8 .5 1 1.999 1 3.498.5.499-.5.999-.5 1.499-.5 0 .5.499 1.5.499 2s0 1.5-.999 1.5c-.5 0-.999-.5-1.499-.5-.999 0-1.499 3-.999 3 1.998 1 3.997 1.5 5.996 2 .999 0 1.499-.5 1.999-1.5.499-1.5-.5-2.5-1.499-3.5-.5-.5 0-1 .499-1 .5 0 1.499 0 1.999.5.5 0 .5.5.5.5 0 4 3.498 7 6.995 9.5l1 1c.499 1 .499 0-1 .5-1.998.5-2.498 1-2.498 2.5-.5 3 1.999 4 4.497 5 .5 0 1 .5 1.999.5.999 0 1.499-.5 1.999-1.5.499 0 .999-.5 1.499-.5.999-1 1.998-1 2.498.5.5 1.5 2.499 2.5 1.999 4.5 1.999 0 4.997-.5 6.496.5 2.498 1 5.496.5 6.995 2 1 1 .5 3 0 4.5s2 2.5 2.499 4c3.998 0 3.998 0 6.996 3 .5.5 1.998 1 2.998 1.5 0 1 1 1.5 1.998 1.5 1.5 0 2.999 0 3.498-.5 1.5-.5 2.499-.5 2.998.5.5 1 1.5 1.5 2 2.5.499 1 1.998.5 2.498.5 1.499-.5 2.998-1.5 2.498 1 0 2 1 4.5 0 6-1 2-2.498 3.5 0 5 .5.5.5 1.5-.5 2-1.998 1-1.499 2.5-.5 4 0 .5 1 .5 1.5.5 1 0 1.499-.5 1-1.5-.5-.5-.5-1-.5-1 .999-1 2.998-2 3.497-3.5 1 0 1.5.5 1.999 1v3.5c2.998-1 5.497-2.5 8.995-.5.999 1 2.998.5 4.497 0 1.499-1 2.998-1.5 4.497 0 1 1 1.499 0 2.498-.5 2.499-1 4.497-1 5.997 1 .5.5 1.499 1.5 1.998 1.5.5 0 1.5-1 2.499-1 .5-.5 1.998-1 1.998-1 1 1 .5 2-.5 2.5-.499.5-.499.5 0 1 1.5 1.5 2.999 2 4.998 1 1 0 1.499-1 2.498-.5 1.5 1 3.498.5 4.497 1 2 1 2.998 1 4.997 0 .5-.5 1.5.5 2.499 1 1.998 2.5 2.498 2.5 4.497 0 .5-.5.5-1 1-1 .499.5.999 1 .999 1.5 0 1 .5 1.5 1.499 1.5 1.499 0 3.498 0 4.497 1 1 1 2.498.5 3.498 0s1.499-1 1.998-1.5c2-1 2 .5 2 1l.499.5c.5-.5 1-.5 1-1v-3c0-1 .499-1.5 1.498-1.5.5 0 1.5 0 2 .5.998 1 2.498 1.5 2.997 3 .5 1.5 2.998 1.5 3.498 0s1.999-2 3.498-2.5 3.997-1.5 1.499-3.5c.5 0 1-.5 1.499-.5 1.999.5 3.998 1 5.996 0 1.5-.5 2.998-.5 4.497 1l4.997-1.5-.999-1h-1.999c-1 0-2.498 0-1.499-1 .5-.5 1.5-1 1.999-1.5 1.499 1.5 3.498 0 4.997.5 1.499.5 2.498 1.5 1 3-.5.5-.5 1 0 1.5.499 1 1.498.5 1.998 0 .5 0 1-.5 1.999-.5 1.499 0 3.498 0 3.997 1.5 3.498-.5 3.498-.5 3.998-2V316l.5-.5c.5.5.999.5.999 1 1 1.5 1.499 1.5 1.999.5.999-3 3.997-4 7.495-3.5 1.999 0 3.498-2 5.996-.5 1.999-1.5 2.499-1 2.998 1l.5.5c.5-.5 1-.5 1-1v-3c0-.5.5-1 .5-1.5.499 0 .999.5 1.498.5 1 1 1.5 2.5 2.499 3 1.998 1.5 3.497-1 5.496-1h1c3.497-.5 3.997 0 4.996 3 .5 1 1 1.5 1.499 1.5 1.999 0 3.998.5 5.497-.5 2.498-2 3.498 1 5.996 1 .5 0 .5 1-.499 1-1.999.5-2.999 1-2.999 2.5s.001 3 .5 4.5l.5.5c.5-.5.999-.5.999-1 .5-1-.499-2 1-3 .999-.5 2.498-.5 3.497-.5 1.999 0 2.999.5 4.498 1 .999.5 1.998.5 2.998.5 1.499 0 2.498-1 2.998-1.5.999-1 0-1.5-.5-2-.499-.5 0-1 .5-1h1.999c.999 1.5 2.998 3 .999 5-.5.5 0 1.5 0 2 1.499 0 2.998-2 4.997 0l.5.5c.999.5 1.998 1.5 2.998 2 1.999.5 2.498-1.5 3.498-2 1.499-.5 2.498-1.5 3.997-2 0-.5 0-1 .5-1.5.499-1 1.999-2 2.998-1.5 1.999 1.5 4.997 2.5 5.496 5 0 0 1 .5 1.5.5.999 0 1.998-.5 1.998-1.5v-1.5c0-1 1-1.5 1.999-1 .5 0 1.499.5 1.499.5.5 2.5 2.499 3.5 4.497 5 1 .5 2.998.5 3.498-.5 1-1.5 1.499-3 2.499-4 .499-1 1.998-1.5 3.497-.5 1 .5 1.5 1 2.499 1 1.499 0 2.998.5 3.498-.5.999-1 .499-2-.5-2.5-.5-.5-.999-1 0-1h1.999c.499 0 .499.5.499.5 0 2.5 1 4.5 4.997 4 1.499 0 .5 1 0 1.5-.499 1 .5 2 1.499 2.5 1.499.5 1.499-.5 1.499-1 0-1.5 0-2.5 1.999-3.5.5 0 1-.5 1.499-.5l.5.5v4l.5.5c.499 0 .999-.5.999-.5 0-2 0-4 3.498-3.5 2.498.5 4.497 1 6.996 0 .999-.5 2.998-.5 3.997 0 3.498 2 4.997 1.5 6.496-1.5 0-.5.999-.5 1.499-1 .5-.5.999-.5 1.499.5v1.5c0 1.5.5 2 2.998 1 .5-.5 1.999.5 2.998 1 0 .5-.499 1-.499 1-1 .5-2.499.5-3.998.5-.499 0-.499.5-.499.5v.5c2.998.5 5.496 3.5 8.994 1.5.999-.5 1.499-.5 2.498 0 1.499.5 2.999 1.5 4.498 2s.999-.5 1.499-1l.999-1c.999.5 1.999 1.5 2.998 2l2.998 1.5c.5-.5.5-1.5 1-2 1.499-1.5 3.497-2.5 4.997-4 .499-.5.499-1 .499-1.5 0 0 0-.5-.499-.5-.5 0-.5-.5-.5-.5-.5 0-.5.5-1 .5l-4.497 3s-.499.5-.999.5c-.5-.5-1-1-1-1.5 0-2-.999-4 2.999-5 .999 0 .999-1.5.499-2.5-.499-.5-.499-1-.499-1 .499 0 1.499-.5 1.998-.5 1.499.5 2.499 1.5 3.998.5s3.997-.5 5.496.5c1 .5 1.5 1 1.999 1.5l5.497-.5c0-1.5 1.999-1.5 3.498-2.5 1.998-1.5 2.498-.5 2.998 1l.499.5c.5-.5 1-.5 1-1 1.499-4 1.499-4 5.496-1.5 1 1 2.499 2 3.498 2.5 1 .5 1.999.5 2.499 0 .999-.5 1.998-1.5 3.498-1 1.499.5 2.998 2 4.497 1 1.499-1.5 2.998 0 3.997 0 3.498-.5 4.497 0 6.496 2.5.5.5.5.5 1.999-.5.5-.5.999-1 1.499-.5 1.499 1.5 2.998 0 4.497-.5h6.996c.5 0 .999-.5 1.499-1 1.499-1.5 1.499-1.5 3.997-.5.5.5.5 1 1 1.5s1.499 1 1.999 1.5c.499-.5.999-1.5.999-2 0-1 0-2 .5-3 .999-1.5 2.998-1 4.497-1 1.499 0 2.498-.5 3.498-1 .999-.5 1.998-1.5 2.998-2 2.998-.5 2.498-2 2.498-3.5 0-.5.5-.5 1-.5l.499.5v1c.5 2.5 1.499 3 4.497 2.5.5 0 1-.5 1-1l-.5-.5c-.999-.5-1.999-.5-2.498-1-.5 0 0-1 0-1.5 1.499-1.5 4.497-.5 6.496-1.5.999-.5 2.498 1.5 3.498 2 .499 0 .999.5 1.499.5 0-.5.499-1.5 1.499-1.5 1.499 0 1.998 1 2.498 2 0 .5.5 2 .999 2 1 0 1-1 1-1.5.5-1 1.999-1 2.998-1 .999 0 2.998 0 1.499-1.5l-.5-.5c-1.499-6 0-5 5.497-5.5 1.999 0 3.997.5 5.496 1 1 .5 2.999-.5 2.499-1.5 0-1-.5-2-.999-3 0-.5-.5-1-.5-1 .999-.5 1.499-.5 2.498 0 .5.5 1 1.5 2.499.5s4.497-1 4.997-3.5c0-.5.999-.5.999.5.5.5.5 1.5 1.499 2h1.999c.999 0 .999-.5 0-1-.5-.5-.999-1.5 0-1.5 2.998 0 4.997-.5 4.497-3.5l.999-1c1.999 2 2.999-.5 4.498-.5.499-1 .999-1.5 2.498-1.5 2.499.5 3.998.5 5.497 0v-.5c.499-.5.499-1.5.999-2 .5.5.999.5 1.499 1 .5 1 1 1.5 1.999 2.5l.5.5.499-.5c0-1 .5-2 .5-3 0-.5.5-.5 1.499 0 3.997 1 3.998 1 4.497-1.5v-2.5c0-1.5 1.499-1.5 2.998-1.5s2.499 0 2.998 1.5v2.5c0 .5 1 1 1.5.5 2.998-1.5 1.998.5 2.498 1.5v.5c3.498 0 3.998 0 3.998-2 0-3 2.998-3.5 4.996-5 0 0 1 0 1.499.5 1.499 1 1.499-.5 1.499-1 .5-1.5 0-2.5-1.499-3.5-.499-.5-.499-1 .5-1h1.999c1.499 2 3.997 3.5 6.996 4 0-1 .499-2.5 1.499-3.5 1.499-2 3.497-4 2.998-6.5l.499-.5s.5 0 .5.5c.999 1 1.499 2 2.499 3 .499.5.999.5 1.499 0 .499-.5.499-1 .499-1.5-.499-1-1.499-1.5-1.998-2.5-1.5-1.5-1.499-2.5.499-4.5 1.999-2 3.498-4 7.496-3.5h3.997c.5 0 1.499-.5 1.499-.5.5-2 3.498-3 4.497-5 0-.5-.499-1-.499-1.5h-.5c-1.999 1.5-3.498-.5-4.997-1-1.499 0-1.499-1.5-.5-2.5.5-.5 1-1 1.499-2 1.5 0 2.499 0 3.498.5.5.5 1.499.5 2.499 1h.999c.5 0 .999-.5 0-1-1.999-1-4.497-2-5.996-3.5-1.499-1.5-2.499-3.5-3.498-5l-.5-.5-.499.5c.499 2-1 3.5-1.999 5.5 1.499 0 1.999 1 1.499 2-.5.5-.999 1-2.498 1h-2.999c-1.499 0-2.498-.5-2.498-1.5v-9h1.499c3.998 0 3.998 0 3.998-3-1-.5-2.499-1.5-2.999-1-1.998.5-2.998 1-2.998-1s-.999-3-2.498-3.5h-.5l-.5.5c-.499 1 1 2 1.5 2.5.499.5.499 1.5-.5 2-1.499.5-2.998 1-3.998 2-.499.5-1.499.5-2.498 1 0-1-.999-2-.5-3 .5-1 1.999-2 2.998-3 .5-.5.5-1-.499-1h-1.999c-.5 0-1 .5-1.499 1-.5.5-1 .5-1 1-.499.5 0 2.5-1.998 1.5-1.999-1-2.499 1.5-4.498.5-.499 0-1.499-.5-1.499-1 0-1 0-2.5-.499-4 0-.5-1-1-1.999-1.5 0-1.5 2.998-3-.5-4-.499 0-.999-.5-1.499-1-.5-1 0-2 1-2.5 1.998 0 3.997-.5 5.996-.5.999 0 1.499-1 2.498-1 1.999 0 1.999 1 2.499 2l.499.5c.5 0 1.5.5 1.999 0 1 0 1-.5.5-1-.5-1-1-2-1-3 0-.5 0-1.5 1-1.5 0 0 .499 1 .999 1l1 1 .499-.5c.5-1.5 2.998-3.5-.499-5-1-.5-1-1 0-1.5.999-1 1.499-1 2.998.5.499.5 1.499 1.5 2.498 1 1.999-1 5.497-.5 5.996-3.5 0 0 .5-.5 1-.5l.5.5v4.5c0 2 0 2 3.997 2 0-.5.5-1.5 0-2-.999-1-1.999-2-.5-3 1-1 1.499-2 1.999-3.5v-1.5c-.5-.5-.999-.5-1.499 0-1.499 1-2.998 1-4.497 0-1.499-1-2.499-2.5-4.497-2.5-1 0-.5-.5 0-1 1.499-1.5 2.498-2 4.997-1 .999.5 1.499.5 2.498 1 0 0 .5 0 .999-.5l.5-.5c-.999-.5-1.499-1.5-2.998-2s-3.498 0-4.997-.5c-.999 0-.999-.5-.5-1.5 1-2 1-2-1.499-3-.999-.5-.999-1 0-1.5 1.999-1 1.999-1 1-1.5-1.499-.5-2.998-1.5-4.498-1.5-3.497-.5-.499-1.5-.499-2.5.499-1-.5-2-1.999-2h-3.998c.5-2.5-.999-4.5-1.998-6.5-.5-.5.999-1.5 1.998-1 1 0 1.5.5 2.499 1 1.999.5 2.998.5 3.498-1V175c1.499 0 1.999 1 2.998 1.5.999 0 1.999 0 2.498-.5.5-.5 0-1.5.5-2 .5-1.5.999-1.5 2.498-.5 1.999 1 3.998 1 5.497 0 1.499-1 1.999 0 2.998.5 1 .5 1.999.5 2.499 0 .999-1 .999-2 .499-3 0-.5-.999-1.5-1.998-1.5h-3.998c0 .5-.5 1-.5 1s-.499.5-.499 0c-.5-.5-1-.5-.5-1 .5 0 .999-.5 1.499-.5 0-.5.5-1 .5-1.5l1.499-1.5h1.999c2.998 1.5 5.996 2 9.494 1.5.999 0 1.998.5 2.498.5 1.999 1 1.999-.5 1.999-1.5.999-2.5 2.998-3 5.496-2 .5 0 .5.5.5.5 1.499 2 4.497 2 6.996 2 1.499 0 5.996-1.5 2.998 2.5 0 0 .999 1 1.499.5 3.498-.5 6.996 3 10.993.5 0 0 .999.5.999 1v1c0 .5.5 2 1 2 .999.5.999-.5 1.499-1.5.999-1.5 2.498-2.5 0-4-.5 0 0-1 0-1.5.5-.5.999-.5 1.499 0 .5.5.999.5 1.499 1 2.499.5 3.998 0 4.497-2.5 0-1 .5-2 1.999-2v-3h5.996c0-1.5.5-3 1.999-4 .5-.5.999-.5 1.499 0 1.999 1 2.998 2.5 2.499 4.5 0 .5-1 1-1.999 1v3c0 .5.499 1 .999 1.5.5 0 .5 0 1-.5l4.497-3s.499-.5.999-.5 1 .5 1 1c.499.5-.001 1.5 1.499 1 3.497-1.5 4.497-2.5 3.497-3.5zM414.109 51s.5.5 0 0c0 .5 0 1-.5 1 0-.5 0-.5-.499-1h.999zm-5.497 6c1.499 0 1.999.5 2.499 1.5h.5-2.499l-.5-.5c-.999-.5-.499-1 0-1zm-5.496-17c.5.5.999.5 1.499.5.5.5 0 1-.999.5-.5 0-.5-.5-.5-1zm-604.624 136.5c-.499.5-1.499.5-1.999 0-.499 0-.999-.5-.999-1s.5-1.5 0-2-.999-.5-1.999-1V171c0-1 .5-1.5 1.499-1.5 1.499 0 1.999.5 1.999 1 .5 2-.5 4 1.499 5.5.5.5.5.5 0 .5zm15.99-23c0-.5-.499-.5-.499-1 .499 0 1.499 0 .999 1h-.5zm7.995-1.5l-.499-.5v-.5h.499c1 .5 1 1 0 1zm12.992-23c1 0 1.999.5 1.999 1v1h-1.499c-.5-.5-.999-.5-1.499-1l-.5-.5c.5 0 1 0 1.499-.5zm-3.498 4.5c0 .5 0 .5 0 0 .5.5 1 .5 1.499.5v.5c-1.499.5-1.499 0-1.499-1 0 .5-.499.5 0 0zm1.499 19.5c-.499.5-.999.5-1.499 0-.499-.5-.999-.5-1.499-1-.499-.5-.499-1 .5-1 1.499-.5 2.498.5 2.498 1.5v.5zm1.5-8.5c-1 0-1 1-.5 1.5.999 1 1.499 1.5 0 2.5-1 .5-2.499.5-3.498-.5-.5-.5-.999-.5-1.499-.5v-3c0-1-.5-2 .999-3 1-.5 1.999 0 2.998-.5 1 0 1.999-.5 2.499-1 1.499-1 1.499.5 1.499 1 0 2 .999 3.5-2.498 3.5zm5.496 0s0-.5 0 0c-.5-.5-.5-1 0-1h.5c.499 0 .499.5-.5 1zm4.497-10.5l.5.5-.5.5-.499-.5c-.5 0 0-.5.499-.5zm-1.998-3.5l-.5-.5s0-.5.5-.5h.499c.5.5 0 1-.499 1zm1.998 18.5c-.499 0-.499-.5-.999-.5l.5-.5.499.5c.5 0 0 0 0 .5zm3.998-15.5c-1 0-1-.5 0-1 0 .5.5.5 0 1 .5-.5 0-.5 0 0zm3.498 6l-.5-.5.5-.5.499.5c0 .5 0 .5-.499.5zm.999-10c0 .5-.5.5-.5 1l-.499.5c0-.5-.5-.5-.5-1s-.5-.5-.5-1c0 0 .5-.5 1-.5.999 0 .999.5.999 1zm3.998-4c-.5.5-1 .5-1.5 0-.999-1-1.998 0-2.998 0l-.999-1c0-1 .5-1.5.999-2 1 0 2.499 0 3.998.5.999.5.999 1.5.5 2.5zm5.496 5l-.5-.5.5-.5.5.5-.5.5zm-.5-11c0-.5 0-.5 0 0 .5-.5.5-.5 1-.5 0 .5 0 .5-.5 1l-.5-.5zm0-8c0-.5-.499-1-.499-1.5s.499-.5.999-1c0 .5.5 1 .5 1.5s-.5 1-1 1zm2.499 3.5l-.5-.5.5-.5.5.5-.5.5zm5.496-4.5c-.999 0-1.499-.5-2.498-.5.5 0 .999-.5 1.499-.5.5 0 .999.5 1.499.5l-.5.5zm2.499 140l-.5-.5s0-.5.5-.5h.5c.499.5 0 .5-.5 1zm5.996-150.5l.5.5h-.5s-.5 0-.5-.5c0 .5.5.5.5 0zm-3.997 4c-.5 0-.5 0-1-.5l.5-.5c.5.5.5.5.5 1 0-.5 0 0 0 0zm.999 140.5c.5 0 .999.5 1.499.5v.5c-1.499 0-1.499-.5-1.499-1zm3.998 3c-.5 1.5-1.5 1.5-2.999 1.5l-.499-.5c0-.5.499-1 .499-1h2.999v-2l.999-.5.5.5c.499 1 0 2-1.499 2zm15.99 28s0-.5 0 0c-.5-.5-1.499-.5-1.999-1s-1.499-1-1-1.5c0 0 .5-.5 1-.5 1.499 0 2.498.5 2.498 1.5-.499.5-.499 1-.499 1.5 0-.5 0-.5 0 0zm8.994-200l.5.5s0 .5-.5.5-.5-.5-1-.5c.5 0 1-.5 1-.5zm0 4.5l.5.5s0 .5-.5.5-.5-.5-1-.5c.5 0 .5-.5 1-.5zm0 7.5c-1-.5-1-.5 0-1l.5.5-.5.5zm3.998-1.5l-.5-.5.5-.5.5.5s-.5 0-.5.5zm9.993-9.5c-.5 0-.5-.5-1-.5l.5-.5c.5 0 1 .5.5 1 .5-.5.5 0 0 0zm8.995 218.5c0 .5 0 .5 0 0 0 .5 0 0 0 0v-2l.999-.5.5.5c.5 1.5 0 2-1.5 2zm4.997-1.5l-.5-.5s0-.5.5-.5h.5c.499.5.499 1-.5 1zm7.995-1.5l-.5-.5.5-.5.5.5-.5.5zm6.995 20.5s0-.5 0 0c-.5-.5-1-.5-1.499-.5-.5-.5 0-1 .5-.5.5 0 1 .5 1 1 0-.5 0-.5 0 0zm2.499-3.5c-1.5.5-2-.5-2-1.5-.998 0-1.498-.5-1.498-1 0-1 .5-2 .5-2.5h.5c.499 0 .499.5.499.5v3.5h2.498l.5.5c-.5 0-.5.5-1 .5zm.999-16c-.5.5-1 .5-1-.5l.5-.5c0 .5.5.5.5 1zm6.996-229.5c.5 0 .5 0 0 0h.5l.5.5-.5.5c0-.5-.5-.5-.5-1zm.5 245.5c-1-.5-1-.5 0-1l.5.5-.5.5zm.999-15.5c-.5 0-1-.5-1.5-.5.5-.5 1-.5 1-.5.5 0 1 .5 1.5.5 0 0-.5.5-1 .5zm11.493 20c-.5 0-.5-.5-1-.5l.5-.5c.5 0 .5.5.5 1 0-.5 0 0 0 0zm0-243c-.5-.5-.5-.5-1-.5l.5-.5c.5 0 .5 0 .5 1 0-.5 0-.5 0 0zm11.492 6c-.999-.5-.999-.5 0-1l.5.5s0 .5-.5.5zm1-10.5c0 1-1 1.5-2.499 1.5-.5 0-.5-.5-.5-.5 0-.5.5-1 .5-1h2.499zM9.36 68.5c-.5.5-1 .5-1-.5l.5-.5c.5.5.5.5.5 1zm1 249l.499-.5.5.5c0 1-.5 1-1 0zm3.497-250L10.86 66c-1-1 .5-1 1-1.5s.999-.5 1.498-.5c1 1 1.5 2.5 2.499 3.5-1-.5-1.5 0-1.999 0zM26.35 72c-.5 0-.999-.5-1.499-.5l1-1c.5 0 1 .5 1.499.5 0 .5-.5 1-1 1zm8.495 7.5l-.5-.5.5-.5.5.5c0 .5 0 .5-.5.5zm1.999-7.5c-.5 0-.5-.5-.5-1-.5 0-1 0-1.499-.5-.5 0-.5-.5-.5-1 1 0 2 .5 2 1.5.499 0 .999 0 1.498.5 0 0-.5.5-1 .5zm4.497 4.5c-.5 0-.5-.5-1-.5l.5-.5c.5 0 .5.5.5 1 .5-.5 0 0 0 0zm1.999-9c-.5.5-1.5 1-1.999 1.5l-.5-.5c-.5-1 0-2 1.5-2 .5 0 .999 0 1.998.5-1 0-1 .5-1 .5zM44.839 315c0-.5-.5-1-.5-1.5s.5-.5 1-1c0 .5.5 1 .5 1.5s-.5.5-1 1zm5.496-246.5s-.5.5-.999.5c-1.499 0-3.498-2.5-2.998-3.5l.5-.5s.5 0 .999-.5c.5 0 1.999.5 2.998 1 .5.5 1 .5 1 1-.5 1-1 1.5-1.5 2zm2.999 3.5c-.5 0-.5-.5-1-.5l.5-.5c.5 0 .5 0 .5 1 .5-.5 0-.5 0 0zm21.986-6l-.5-.5.5-.5.5.5s-.5 0-.5.5zm3.997 240h-.5l.5-.5.5.5c0-.5 0-.5-.5 0zm2-237s-.5 0 0 0l-.5-.5.5-.5.499.5-.5.5zm15.49 236.5l.5-.5.499.5c-.5.5-1 .5-1 0zM103.302 69s-.499 0-.499-.5l.499-.5.5.5-.5.5zm8.495 238c-.5.5-.999.5-.999-.5l.499-.5c0 .5.5.5.5 1zm29.482-244l.5.5-.5.5-.5-.5s.5 0 .5-.5zm-6.996 1.5c.5 0 1 .5 1.499.5-.499 0-.999.5-1.499.5-.5 0-.999-.5-1.499-.5.5 0 .999-.5 1.499-.5zm1.999 237.5l-.5.5h-.499l.499-.5h.5zm-6.996-.5c0 .5.5 1 .5 1.5-.5.5-.5 1-.999 1-.5-.5-.5-1-.5-1 .5-.5.999-1 .999-1.5zM125.289 74l.499.5-.499.5-.5-.5V74c0 .5.5 0 .5 0zm-1 229c0 .5-.499.5-.999 1-.5-.5-.5-1-.999-2 0 0 .499 0 .499-.5h.5l.5.5.499 1zm-2.498-235.5c.5.5.999 1 1.499 2l.5.5c-.5 0-1 .5-1.499.5-1.499 0-1.999-.5-1.999-2 0 0 .999-.5 1.499-1zm-4.997 2.5l.5-.5.499.5c-.499.5-.999.5-.999 0zm6.496 242c0-.5-.5-.5-.5-1h-.499v-.5c-.5 0-1 0-1.499-.5v-.5c.999 0 .999.5.999 1h.5c.499 0 1.499 0 .999 1 .5.5 0 .5 0 .5zm2.498-3.5h-1.499c-.499 0-.499-.5-1.499-1h-4.997c-.499 0-.499-.5-.499-.5 0-.5.499-1 .999-1h6.996c.499 0 .999.5 1.499 1-.5.5-.5 1-1 1.5zm5.997 8c-1 1-1.999 2-3.498 2-.5 0-1.499-.5-1.499-.5 0-1 2.998-2.5 4.497-2.5.5 0 .5.5.5.5v.5zm5.496-4.5s-.499.5-.999.5h-4.997c-2.998 0-3.997-.5-3.498-3 0-.5.5-1 1-1 .499.5.999.5.999 1 .5 1 .5 2 2.498 2 1 0 1.499-.5 1.999-1.5.5-1.5 1.499-1.5 2.499-.5.499.5.999 1 1.499 2 0-.5-.5 0-1 .5zm2.998-242.5c-.499.5-.499 1-.999 1-.5-.5-.999-1-.999-2l.999-.5c.5.5.5 1 .999 1.5zm1.5 245l-.5.5-1-1c0-.5.5-1 .5-1h1c.999 0 .499 1 0 1.5zm3.997-23l-.5.5-.499-.5c.499-.5.999-.5.999 0zm-2.498 15c.499 0 .499.5.499.5-.499 0-.499.5-.999.5l-.5-.5c.5-.5 1-.5 1-.5zm0 11.5c-1-.5-1-.5 0-1l.499.5c0 .5 0 .5-.499.5zm4.497-5h-1.499c-.5 0-1-.5-1-1l-.499-.5c.499 0 .999-.5 1.499-.5.999 0 1.998.5 1.998 1s0 1-.499 1zm6.496-253s.499 0 0 0h6.496s.499.5.499 1l-.499.5c-1.999 0-3.998 0-5.997-.5 0 0 0-.5-.499-1zm2.998 243l-.5.5c-.5 0-.999.5-1.499.5-.5 0-.999-1.5 0-2 0 0 .5 0 .999-.5h1.999c-.499.5-.499 1-.999 1.5zm1.999 7.5c-1-.5-1-1 0-1l.499.5s0 .5-.499.5zm2.498 3s-.5 0-.5-.5l.5-.5.5.5c-.5 0-.5.5-.5.5zm.999-247.5h-2.998c-.499 0-.499-.5-.499-.5V65c.999-.5 3.497-.5 4.497 0-.5.5-.5 1-1 1zm4.498-5c-1 0-1.499-.5-2.499-.5.5 0 1-.5 1.499-.5.5 0 1 .5 1.499.5-.499 0-.499 1-.499.5zm4.497 0c-.5.5-1 .5-1-.5l.5-.5c.5 0 .5.5.5 1 0-.5 0 0 0 0zm3.997 254c-.499.5-.999.5-1.499-.5l.5-.5h.5c.499.5.999.5.499 1zm0-258.5h-.499c0-1 .499-1 .999-1h-.5c.5 0 0 .5 0 1zm3.998 263c-.5 0-1-.5-1-.5-.499-.5 0-1.5 1-1.5l.5.5s.499 1-.5 1.5zM185.751 61c-.999.5-3.498.5-4.497 0l-.5-.5c1-.5 1.499-1.5 2.499-2 .499-.5 1.499 0 2.498 0 .5 1 1 2 0 2.5zm11.993 258.5c-.5.5-1 .5-1-.5l.5-.5h.5c.499.5.499 1 0 1zm-.5-267.5c-.999 0-2.498 0-3.498-.5-.5 0-.5-1-.5-2 0-.5.5-.5 1.5 0 .999.5 1.998.5 3.497 1 .5 0 .5.5.5.5-.999.5-1.499 1-1.499 1zm8.495 2.5c-.5 0-1 0-1-.5v-2c1.499 0 1.999 1 1.999 2-.5.5-.5.5-.999.5zm9.993 3h-.499c-.5-1-1.499-2.5-1.999-3.5h.999c.5 0 1 0 1.499.5.5 1 .5 2 .5 3h-.5zm1-10c.999 0 1.499.5 1.499 1h-.5c-.499 0-.999-.5-.999-1zm0 4l.5-.5.499.5c0 .5-.499.5-.999 0zm7.495 269.5c-.5.5-.999.5-.999-.5l.499-.5s0 .5.5 1c0-.5 0 0 0 0zm14.991 4.5c-.5 0-.5-.5-.5-1h-1.999.5c0-.5.5-1 .5-1 .999 0 .999.5.999 1 .5 0 1 0 1.499.5 0 .5-.499 1-.999.5zm7.495 0l.5-.5.5.5c0 .5-.5.5-1 0zm18.489-280c0-.5-.5-.5-.5-1h-4.997c-.5 0-.5-.5-.5-.5v-.5c1 0 1.499-.5 2.499-.5 1.499 0 1.999.5 2.498 1.5h.5c.5 0 1.499 0 .999 1h-.499zm4.497 14c-1-.5-1.999-1-1.999-2l.5-.5c1.499 0 2.498.5 2.498 1.5l-.999 1zm21.986-14l-.999-.5c0-.5.499-1 .999-2l.5.5c.5 1 .5 1.5-.5 2zm8.495-1.5c-.999 0-.999-.5-1.499-1 .5 0 .999.5 1.499.5v.5zm4.497 271c-.999 0-1.499-.5-1.999-1 0-1 .5-1.5 1.499-1.5 1.499 0 1.999.5 1.999 1 .5 1 0 1.5-1.499 1.5zm23.485 0h-.499l.499-.5.5.5c-.5-.5-.5 0-.5 0zm5.497-5.5c.999 0 1.499-.5 2.499.5l-.5 1c-1 0-1.499-.5-2.499-.5 0-.5.5-1 .5-1zm2.499 7c0 .5-1 .5-1.5.5 0-.5.5-1 .5-1 1-.5 1.499 0 1 .5zm3.997-5s-.5 0-.5.5c0 0 0-.5-.499-.5v-.5c0-.5.499-.5.999-1 0 0 .5.5 0 1.5.5-.5 0 0 0 0zm3.997.5h-.499l.499-.5.5.5c-.499-.5-.5 0-.5 0zm9.994-11c-.499 0-.499-.5-.999-.5l.5-.5c.499.5.499.5.499 1zm0-254s-.499.5 0 0c-.999 0-.999-.5 0-1v1zm8.495-10s.5 0 0 0c.5.5.999.5 1.499.5v.5c-.999 0-.999-.5-1.499-1zm1.999 265l-.5.5c-.5 0-.999 0-.999-.5v-2c-.5 0-1 0-1-.5-.499-.5 0-1 .5-.5.5 0 .5.5.5 1h.999c.5.5.5 1 .5 2zm1.499-4c-.5 0-1-.5-1-.5 0-.5.5-1 1-2 .5.5.5 1 .999 1-.499.5-.999 1-.999 1.5zm7.495-250.5s0-.5 0 0l-.5-.5v-.5s.5 0 .5-.5l.5.5c0 .5 0 .5-.5 1zm1-9v.5c-.5.5-1 .5-1.5 0-.499-.5-.999-.5-1.499-1v-.5c.5 0 1-.5 1.499-.5 1 0 1.5.5 1.5 1.5zm.999 259.5l-.5-.5s0-.5.5-.5h.5c0 .5 0 1-.5 1zm1.999-227.5l-.5-.5.5-.5.499.5s0 .5-.499.5zm0-28l.999-1c.5-.5 1.499 0 1.499.5-.5 0-.5.5-.999.5-.5.5-1 0-1.499 0zm2.498 251c-.5 0-.999-.5-.999-.5 0-.5.499-1.5.999-2 .5.5.5 1 .999 1-.499.5-.999 1-.999 1.5zM381.629 67s0-.5-.5-.5V66c0-.5.5-.5 1-1 0 .5.5 1 .5 1.5-.5 0-.5.5-1 .5zm6.496 225c-.5 0-.5 0-.999-.5l.499-.5c.5 0 .5 0 .5 1 0-.5 0-.5 0 0zm31.98-197h-.499l.499-.5.5.5c0-.5-.5 0-.5 0zm8.995 0c-.5 0-1-.5-1.499-.5l.499-.5.5-.5c.5 0 .999.5 1.499.5 0 .5-.5 1-.999 1zm9.494.5c-.5.5-.5 1-1 1h-.999c-.5-.5-.999-1.5 0-2h.5c1.499 0 1.499.5 1.499 1zm3.498 179.5c-.5 0-.5-.5-1-.5l.5-.5c.5 0 .999.5.5 1 .499-.5.499-.5 0 0zm3.997-108.5l.5.5-.5.5-.5-.5c0-.5 0-.5.5-.5zm0 111.5l-.5-.5.5-.5.5.5-.5.5zm-.999-63.5l.499-.5.5.5c0 .5-.5.5-.999 0zm40.974 30.5c0 .5.5.5.5 1h.5c-.5 0-1.5 0-1-1-.5 0 0 0 0 0zm-5.496 5l-.5.5-.5-.5c.5-1 1-1 1 0zm-6.996-16c.999 0 .999.5 1.499 1-.5 0-.999 0-1.499-1 0 .5 0 0 0 0zm-1.999 25h.5c0 .5.5 1 .5 1l-1 1-.499-.5c0-.5-.5-1 .499-1.5zm-7.995 4.5c.5-.5 1.499-.5 1.999-.5 1.499 0 2.498 0 2.998 1 0 .5 0 1-.5 1.5-1.499-.5-2.998-1-4.497-2 0 .5 0 0 0 0zm.5 4.5c.5.5.999 1 .999 1.5 0 0 0 .5-.499.5l-.5.5-.5-.5-.5-.5c0-1 .5-1 1-1.5zm-12.492-41.5c0-.5.999-.5 1.499-.5 0 .5-.5 1-.5 1-.999.5-1.499 0-.999-.5zm21.986-23s.5 0 0 0c.5 0 .999 0 .999.5l-.499.5s-.5 0-.5-.5v-.5zm-1.499-8l.5.5s0 .5-.5.5-.5-.5-.999-.5c.499 0 .999-.5.999-.5zm-2.499 5h.5c0 .5 0 .5-.5 1v-1zM456.083 215c-.5 0-.5-.5-1-.5l.5-.5c.5 0 .5.5.5 1 .5-.5 0 0 0 0zm.499-32.5c-.499.5-1.499.5-1.499-.5 0-.5.5-1.5 1-2 .999-.5 2.498 0 3.498 0 .499 0 .499.5.499.5l-.499.5c-.5.5-1.999 1-2.999 1.5zm3.498 4h.5v.5c-.5.5-.999.5-.999-.5 0 .5 0 0 .499 0zm0 4l-.499-.5.499-.5.5.5-.5.5zm2.998-90.5c0 1.5-.999 1.5-2.498 1.5-.5 0-.999-.5-1.499-1-.5-.5.5-1.5 1.999-2h1.499c.499.5.499 1 .499 1.5zm4.498 91s.499.5.499 1c-.499 0-.999.5-1.499.5-.499 0-.999-.5-1.499-1 1-.5 1.999-.5 2.499-.5zm-2.499-8v.5c0 .5-.499 1.5-.499 2-.5 0-1-.5-1-.5-.499-1 0-2 1.499-2zm5.997-9s0-.5 0 0h-1.999c-1 0-1.999-.5-1.999-1.5 0-.5.5-1 .5-1.5.499.5.999.5 1.499 1 .999.5 1.499 1 1.999 2 0-.5 0-.5 0 0zm15.99-9.5c-1.5 0-1.999-1-1.999-2 0-.5.499-.5.999-.5l.5.5c.5.5.5 1 .5 2zm41.973-23c.5.5 1 .5 1 .5v.5c-.5 0-.5-.5-1-1zm1.999 21.5c-.499 0-.999 0-1.499-.5-.999-.5-1.499-.5-1.999-1h-.499c0 .5-.5.5-.5 1-.999-1 0-1 .5-1v-.5c0-1 .499-1.5 1.499-1.5 1.999 0 2.998 1 3.498 2 0 1-.5 1.5-1 1.5zm13.991-3c-.999 0-1.998-.5-1.998-1s0-1.5-1-1.5l-.499 1c0 2-1.499 3.5-3.998 4.5h-.5c0 .5 0 1-.999 1v-.5c.5 0 .999-.5.999-.5v-.5c-.499-2.5 2.499-4.5 2.499-7 0-1 2.498-.5 3.498-.5.999 0 1.499.5 1.499 1.5.499 1.5.499 2.5.499 3.5zm2.499-4l.5-.5.499.5c0 1-.499 1-.999 0zm10.493-4c-.499 0-.499-.5-.499-1h-.5c.5 0 .999 0 1.499.5.5 0 0 .5-.5.5z" fill="#fff"/><path d="M261.704 323.5c.499-.5 0-.5 0 0zM129.786 57c2.498.5 4.497-.5 5.996-2 1-1 1.999-.5 3.498 0 2.998-2 5.996-1 9.494-1.5.5 0 .999-.5.999-1-.499 0-.499-.5-.999-.5-2.498-.5-5.496.5-7.495-1.5-1.999 2-4.997.5-6.996 2-.999.5-1.499.5-2.498 0-3.498-1-6.496-2.5-5.997-6l-.499-.5c-.5.5-1 .5-1 1v2.5c0 2.5-.999 3-4.497 1.5-.999-.5-1.499-.5-1.499 0v4.5l.5.5.999-1v-.5l.5-.5c.5 0 1.499.5 1.499.5 0 1-.5 3 1.499 3.5 1.499.5 2.998 0 4.497 0 .5-.5 1.499-1 1.999-1zm28.482-5c-.999 0-1.499-.5-1.999-1.5 0-1 .5-1.5 1.5-1.5.999 0 1.998-.5 1.998-1.5 0-1.5-.999-1.5-2.498-2-1.499 0-1.499-.5-3.498 1.5l-.5.5c-.499 0-.499-.5-.499-.5-.5-1.5-.5-2.5.499-3.5 1.499-1.5 0-1.5-1.499-1.5-.999 0-.999-.5-.999-1 1.999-1.5 0-2-.999-3-.5-.5-1-.5-1.5.5-.499 1.5 0 3.5-3.497 4-1.499 0-1.499 1.5-1 2.5.5 1 1.499 2 1.999 3 1.499 0 2.998.5 4.497 1 2.499 1 2.998 1 1.999 4 0 .5 0 .5.5 1 1.499 1.5 2.998 1.5 4.997 1.5 0-.5.499-1 .499-1 1.999-1.5 1.999-2 0-2.5zm-49.969 267c2.999-1 3.498-.5 3.998 1.5v3c0 .5.999 1 1.999 1 .999 0 1.499-.5 1.499-1.5v-4c0-2-1-2.5-3.498-2.5-1.999 0-3.998.5-5.497.5-.499 0-.499 1-.499 1 0 .5.499.5.999 1s.5 0 .999 0zm129.42 15c.999-.5.499-1.5-.5-1.5-2.498 0-3.498-2.5-5.497-3-1.998 1.5-2.498.5-2.998-1l-.499-.5-.5.5c-.999 1.5-.5 3 .5 3.5 2.498 1 4.997 2 7.995 3-.5 0 .499-.5 1.499-1zm55.965-321.5c-1 0-1.999.5-2.499 1-.499 1 0 2 1 2.5.499.5 1.499 1 2.498.5 1-1 2.499-2 3.498-3 .5-.5.5-1-.5-1h-1.998c-1 0-1.499-.5-1.999 0zm-113.429 41c0 1.5.499 2 3.497 2 .5 0 1.499 0 1.999-.5.999-1 0-1.5-.5-1.5-1.998-1-2.998-2.5-2.498-4.5l-.5-.5c-.499 0-.999.5-.999.5-.999 1.5-.999 3-.999 4.5zM1.866 59c1.499-2.5 0-3.5-3.498-3.5-1 0-1.999.5-1.999 1-.5 1.5 1.999 3.5 3.998 3.5.5-.5.999-.5 1.499-1zm84.447-8.5c-.5 0-2.498 0-1.5 1.5.5.5 2 1.5 3 1 .998-.5 2.498-.5 3.497-1 .5 0 .5-1 1-1 0-.5-1-1.5-1.5-1.5-1.499 0-2.998.5-4.497 1zM233.222 28c-1.5-.5-3.998 0-4.498.5-.499 1 0 3 .5 3.5h.999c.5 0 .5 0 .5.5V32c.999-1 1.999-2.5 2.499-4 .499 0 .999 0 0 0zM107.3 21.5c-.5.5-.999 1-.5 1.5 1 2.5 1.999 2.5 5.497 1.5.5 0 .999-.5 1.499-.5v-.5c-2.499-1-4.997 0-6.496-2zm23.985 307s.5.5.999.5c1 0 1.999-.5 1.999-1 .5-2-.5-3.5-2.498-4.5h-.5l-.5.5c-.499 1.5 1.999 2 1 3.5-.5.5-.5 1-.5 1zM180.754 39c1.499 1 2.998 1.5 4.997 2l.5-.5V40c-1-2-2.998-3.5-4.997-3 0 .5-.999 2-.5 2zm126.921-9l.999-.5c0-1.5-1.998-3-2.998-3-.499.5-1.499 1-1.998 1.5-.5 1 .999 1 1.499 1 .499.5 1.499 1 2.498 1zM112.297 44c-.5 1 0 2.5 1.999 3 .499-1.5 2.498-2.5 1.998-4.5h-.999c-.999.5-2.499.5-2.998 1.5zm128.92 1.5c.999 1 1.998 2 3.497 2 .5-.5 1.499-.5 1.499-1s0-1.5-.499-1.5c-1-.5-2.499-.5-3.498-.5-.5 0-.999 1-.999 1zM237.719 35c.999.5 2.498 0 2.998-1 0-.5.5-1.5 0-2s-1-1-1.999-1c-.5 0-.999.5-.999.5 0 .5.499 1 .499 2 0 .5-1.998 1-.499 1.5zm118.926 281v-1.5c-1.499-1-2.998-1.5-4.498-2l-.499.5c0 .5-.5 1 0 1.5 1.499.5 2.998 1 3.997 2 0 0 .5 0 1-.5zM112.796 53c-1.499 1.5 0 4 2.499 5h.5l.499-.5c-.999-1.5-1.499-3-2.498-4.5-.5-.5-1 0-1 0zm55.466-26c0-.5-.999-1-.999-.5-1.499.5-2.998 1.5-2.499 3 0 1 .5 1.5 1.999 1.5.5 0 1.499 0 1.499-.5.5-.5.5-1 .5-1.5-.5-1 0-1.5-.5-2zM80.317 49c.5 0 1-.5 1.499-1-1-.5-1.5-1-2.499-1.5-.999-.5-1.499.5-1.998 1-.5.5-.5 1-.5 1 .5 0 1 .5 1.499.5h1.999zm230.356 272.5c0-1 0-1.5-.999-1.5-1.499-.5-2.498.5-2.498 1.5s.499 1.5 1.499 1.5c.999 0 1.499-.5 1.998-1.5zM225.726 17c-.499 0-.999.5-.999 1.5s.5 1.5 1.499 1.5c.999 0 1.999-.5 1.999-1 0-1.5-.5-2-2.499-2zm-67.458 309c.5 0 1 0 1.499-.5 0-.5 0-1-.499-1-1-1.5-2.999-1.5-4.997-1.5.499 1.5 1.998 2.5 3.997 3zm27.983-.5c-.5-.5-1.499-1-1.999-.5-.999 0-1.499.5-1.499 1.5s.999 1 1.999 1.5c.999-.5 1.998-1.5 1.499-2.5zM212.734 23c-.999 0-1.998.5-1.998 1-.5 1 .499 2 1.998 2 1 0 1.499-.5 1.499-1.5s-.499-1-1.499-1.5zm87.946 6.5c0-1-1.5-2-2.499-1.5-.5 0-.999.5-.999 1 0 1 0 2 1.998 2h1.5v-1.5zm-36.977 8c-.5 0-1.5-.5-1.999-.5-1 0-1.499 1-1.499 1.5.499 1 1.499 1.5 2.498 1.5.5-.5.999-1.5 1.499-2-.5 0 0-.5-.499-.5zm-114.429-20h.499c0-.5.5-1 .5-1.5s-.5-1-.5-2h-.499c-1 1-1 3 0 3.5zm-2.998 5.5c-1-.5-1.499.5-1.999 1 0 .5 0 1.5.999 1.5 1 0 1.999-1 2.499-2-.5 0-1-.5-1.499-.5zm144.909.5s0 1 .5 1c.5.5.999.5 1.499 1h.5c.5-.5.5-1 .999-1 0-.5-.499-1-.999-1-.5-.5-1.499-.5-2.499 0zm-97.939 4c.5 0 1-.5.5-.5-.5-1-1.499-1.5-1.999-2.5-.499.5-.999 1-.999 1.5 0 1 .999 1.5 2.498 1.5zM278.194 0c-1 0-1.5.5-1.5 1.5 0 .5 0 1 .5 1 1 0 2.998-1.5 2.499-2 0 0-1-.5-1.499-.5zM98.805 40.5c-.5 0-1 1.5 0 2 .5.5 1 .5 1.999.5.5 0 .999-.5.999-1-.499-.5-.999-1-1.499-1-.5-.5-1-.5-1.499-.5zm111.931-8l.499.5 2.998-1.5c-.499-.5-.999-1-1.499-1-1.499.5-2.498 1-1.998 2zm87.445 0c-.999 0-.999 1-.999 2 0 .5.999 1 .999.5.999-.5 2.499-1 2.499-2.5-1 0-1.999-.5-2.499 0zm-104.935 294c.5-.5.5-1 .5-1 0-.5-1.999-.5-2.498 0-.5 0-.5.5-.5 1s.5.5.999 1c.5-.5 1-1 1.499-1zM239.218 42s0 .5 0 0c.499 1 1.499 1 2.498.5l.5-.5-.5-.5c-.999 0-1.999 0-2.498.5zm-97.939 6.5c.499-.5.999-.5.999-1s-.5-1-.5-1.5c-.499 1-.999 1-.999 1.5 0 0 0 .5.5 1zm-40.975 4c0 .5.5.5 1 .5.999-.5.999-1 .499-2l-.499-.5c-1 1-1 1.5-1 2zm8.995-1.5c-.5.5-.5 1-.5 1 0 .5.5 1 .5 1 .499-.5.999-.5.999-1s-.999-1-.999-1zm-22.986 6.5s.5.5 1 .5c0-.5.5-1 .5-1-.5-.5-.5-1-1-1 0 0 0 1-.5 1.5zm169.894-54l-.499-.5c-.5.5-.5 1-1 2 0 0 .5.5 1 .5.999-.5.999-1 .499-2zm32.48 5.5c0-.5-.5-.5-.999-1-.5.5-1 .5-1 1s.5 1 .5 1c.5.5 1.499-.5 1.499-1zm-144.91 319.5c-.499 0-.999-.5-1.499-.5-.5 0-.999.5-1.499.5.5 0 .999.5 1.499.5.5 0 1-.5 1.499-.5zm214.866-313c-.499 0-.999.5-.999.5.5 0 .999.5 1.499.5.5 0 1-.5 1-.5-.5 0-1-.5-1.5-.5zM84.814 19l1 1c.499 0 .999-.5 1.498-.5 0-.5-.5-1-.5-1-.499 0-1.498.5-1.998.5zm173.392 5s-.5-.5-.999-.5l-.5.5c0 1 .5 2 1.499 2 .5-.5.5-1.5 0-2zm-11.493 2c-.5 0-1.499 0-1.499 1 0 0 .999.5 1.499.5.5 0 .999-.5 1.499-.5-.5-.5-.999-.5-1.499-1zm13.492 1.5c.499 0 1.499 0 1.499-.5.499-1-.5-1-1.499-1h-1.499c0 1 .499 1.5 1.499 1.5zM124.289 326c0-.5-.499-.5-.999-1-.5.5-.999.5-.999 1s0 1 .499 1c1 .5 1.499 0 1.499-1zM265.202 33.5c.499 0 .999-.5.999-.5 0-.5-.5-1-.5-1.5-.499.5-.999.5-.999 1 0 0 .5.5.5 1zM181.754 35c0-.5.499-1 .499-1.5s-.499-.5-.999-1c0 .5-.5 1-.5 1.5l1 1zm49.469-1c0 .5-.5 1-.5 1.5s.5.5.999 1c0-.5.5-1 .5-1.5l-.999-1zm39.975 2l-.5.5c0 1 .5 1.5 1.499 2v-2c0-.5-.499-.5-.999-.5zm8.994.5c0-.5-.499-.5-.999-.5l-.5.5v2c1.499-.5 1.999-1 1.499-2zM244.215 38c.499 0 .999-.5 1.998-.5-.499-.5-.499-1-.999-1s-.999 0-1.999.5c0 1 .5 1 1 1zm124.422 275l-.999-.5c-1.499.5-.5 1-.5 2l.5.5c.499-.5.999-1 .999-2zm-304.31 7.5c0 .5.5.5 1 1l.499-.5v-2c-1-.5-1.999 0-1.5 1.5zm55.965-281l-.5-.5c-.499 0-.999 0-.999.5v2c.999-.5 1.499-1 1.499-2zM255.208 8c.5 0 .5.5.999.5 0 0 0-.5.5-.5l-.5-.5-.999.5zm4.997.5l-.5-.5-.5.5c0 .5.5.5 1 0zM149.774 10l-.5-.5-.5.5.5.5c.5 0 .5-.5.5-.5zm129.919.5c0-.5 0-.5.499-1h-.499l-.5.5.5.5zm-93.442 1l-.5-.5-.5.5c0 .5.5.5 1 0zm57.464 4l-.5.5c.5 0 .5.5 1 .5 0 0 0-.5.499-.5-.499-.5-.999-.5-.999-.5zm-61.462 2l-.499-.5-.5.5c0 1 .5 1 .999 0zm133.917 0l-.5-.5-.5.5.5.5s.5 0 .5-.5zM240.217 22l-.5-.5-.499.5c0 .5.499.5.999 0-.5.5 0 .5 0 0zm25.984.5c-.5-.5-.999-.5-1.499 0l.5.5c.499-.5.999-.5.999-.5zm-3.997 1.5s0-.5 0 0c0-.5-.5-.5-.5-.5l-.5.5c0 .5.5.5 1 0zm7.994 3l-.499-.5-.5.5c0 .5.5.5.999 0zm-23.485 3l.5.5.5-.5-.5-.5-.5.5zm6.496 0c0 .5.999.5 1.499.5 0-.5-.5-1-.5-1-.999 0-1.499 0-.999.5zm-75.953 2c1-.5 1-.5.5-1h-.5l-.499.5.499.5zm44.972-.5l-.499-.5-.5.5s.5 0 .5.5l.499-.5zm32.98.5c.5.5.999 0 .5-.5 0-.5-1-.5-1.5-.5.5 0 1 .5 1 1zm46.971-.5c.499-1-.5-1-1-1V32s1 0 1-.5zm33.978 1.5s-.499-.5-.499 0c-.5 0-.5.5-.5.5s.5 0 .999-.5zm-189.382 1.5l.5.5.5-.5-.5-.5-.5.5zm74.954.5l.499-.5-.499-.5-.5.5c-.5 0 0 .5.5.5zm101.936-1l-.499.5c.499 0 .499.5.999.5 0 0 0-.5.5-.5-.5-.5-.5-.5-1-.5zm-114.428 2.5l.499-.5-.499-.5-.5.5.5.5zm40.974-.5l-.5-.5-.499.5.499.5.5-.5zm79.95 0l-.499-.5-.5.5.5.5c.499 0 .499 0 .499-.5zm-188.383 3h-.499l-.5.5.5.5c0-.5.499-1 .499-1zm130.919-.5c0 1 .5 1.5 1.999 1.5 0-1-1-1.5-1.999-1.5zM227.725 41l.5-.5-.5-.5c-.999.5-.999 1 0 1zm2.998-.5c.5 0 .5.5.999.5 0 0 0-.5.5-.5l-.5-.5c-.499 0-.499.5-.999.5zm-138.913 2l-.5-.5-.5.5.5.5c0-.5.5-.5.5-.5z" fill="#fff"/><path d="M118.293 41.5c-.999 0-1.499.5-1.999 1.5 1.499 0 1.999-.5 1.999-1.5zm44.972 3l.5-.5-.5-.5c-.5 0-.5.5 0 1zm-77.452 1l-.5-.5s-.499 0-.499.5h1zm5.997 0l-.5-.5h-.5c0 1 .5 1 1 .5zm133.916.5v-1h-.499l-.5.5c.5 0 .5 0 .999.5zm-109.931 2.5c0-1-.5-1-1-1 0 .5.5.5.5 1h.5zm28.982 0h.499c0-.5.5-.5.5-1-.5.5-.999.5-.999 1zm18.488-.5l-.5.5.5.5.5-.5c0-.5 0-.5-.5-.5zm3.998 0l-.5.5c.5 1 .999 1 1.499 0 0 0-.5-.5-.999-.5zm-4.498 5c.5.5 1 1 1 0l-.5-.5-.5.5zm-66.958 3l-.5-.5-.5.5c0 1 .5 1 1 0zm-25.984 1.5h-.5l-.5.5.5.5c.5-.5 1-1 .5-1zm35.978 1.5l-.5-.5-.499.5c0 1 .499 1 .999 0zm2.998 2c0 .5.999.5 1.499.5 0-.5-.5-1-.5-1-.999-.5-1.499 0-.999.5zm-85.946 1s-.5 0 0 0v1c0-.5 0-.5.5-1h-.5zm339.288 252.5c0-.5-.999-.5-1.499-.5 0 .5 0 1 .5 1 .999 0 1.499-.5.999-.5zm-2.498-2v.5c.5 0 .999.5 1.499.5-.5-.5-.5-1-1.499-1zm6.496-3h-.5l-.5.5.5.5c.999 0 .999-.5.5-1zm3.997-1.5s-.999-.5-1.499-.5c0 .5.5 1 .5 1 .999.5 1.499 0 .999-.5zm-148.907 21.5c0 .5-.5.5 0 0v1c0-.5 0-.5.5-1h-.5zm-6.996.5l-.499-.5-.5.5.5.5s0-.5.499-.5zm-77.451-4.5c.999 0 .999-.5 1.499-1-.5 0-1 .5-1.499.5v.5zm-8.995-2h-.499l-.5.5.5.5c.999-.5.999-1 .499-1zm-31.98.5l-.5-.5-.5.5.5.5c0-.5.5-.5.5-.5zm-37.977-3l-.499-.5c-1 0-1 .5 0 1 0-.5.5-.5.5-.5zm-6.495-1l-.5.5.5.5c.5 0 .5-.5 1-.5-1 0-1-.5-1-.5zm296.815-2.5h-.5l-.499.5.499.5c1-.5 1-1 .5-1z" fill="#fff"/></svg>