<svg width="132" height="48" fill="none" xmlns="http://www.w3.org/2000/svg"><path d="M14 20.49c-.664.552-1.439.772-1.992.772-1.107.11-2.324-.22-2.988-1.103-.553-.662-.885-1.655-1.55-2.427-.995-1.214-2.434-1.986-3.983-1.655-3.099.551-4.427 4.082-2.767 6.51 2.435 3.42 8.079 2.868 10.845.44.886-.772 1.771-1.544 2.435-2.537zm104 0c.664.552 1.439.772 1.992.772 1.107.11 2.324-.22 2.988-1.103.553-.772.885-1.655 1.549-2.427.886-1.214 2.435-1.986 3.984-1.655 3.099.551 4.427 4.082 2.767 6.51-2.435 3.42-8.079 2.868-10.845.44-.886-.772-1.771-1.544-2.435-2.537zM107.526 2h-7.052c-.737 0-1.369.724-1.474 1.448 0 .724.632 1.449 1.474 1.552h7.052c.737 0 1.369-.724 1.474-1.448 0-.724-.632-1.449-1.474-1.552zM60.787 17.403c-.11-.451-.11-.79-.22-1.242v-2.258c.11-2.71.55-7.451-3.09-7.451-2.425 0-3.97 2.145-4.3 2.822C53.066 7.354 51.631 6 49.316 6 47.881 6 47 7.129 47 7.129s1.434.452 1.434 2.371v8.129c0 1.242.882 2.258 2.316 2.258 1.434 0 2.426-1.129 2.426-2.258v-5.984c.221-1.016.773-1.92 1.545-1.92 1.103 0 1.103 1.243 1.103 1.243v5.758c0 .226 0 .338.11.564 0 .339.11.565.22.79.552 1.13 1.765 1.92 3.53 1.92C61.118 20 62 18.871 62 18.871s-.772-.452-1.213-1.468zm35.887.167c-.12-.443-.12-.774-.24-1.216V2.43C96.433 1.105 95.227 0 93.781 0s-2.772 1.105-2.772 2.43v12.266c0 1.105-.12 2.21.482 3.315S93.662 20 95.469 20C97.036 20 98 18.895 98 18.895s-.844-.331-1.326-1.326zM40.5 17.083c-1.279 0-1.918-1.516-1.918-4.083 0-2.45.746-3.967 1.811-4.083 1.066 0 1.812 1.516 1.812 4.083.107 2.45-.426 3.967-1.705 4.083zM40.5 6C36.877 6 34 9.15 34 13s2.877 7 6.5 7 6.5-3.15 6.5-7-2.984-7-6.5-7z" fill="#46248A"/><path d="M68.582 16.76c-1.312 0-1.968-1.323-1.968-3.308 0-1.984.765-3.307 1.858-3.307 1.094 0 1.859 1.323 1.859 3.308.11 1.984-.547 3.308-1.75 3.308zm7.325.772c-.11-.44-.11-.771-.219-1.212V2.426C75.688 1.103 74.595 0 73.173 0c-1.42 0-2.514 1.103-2.514 2.426v6.616c-.547-.772-1.859-2.205-3.936-2.205-5.685 0-6.013 10.034-2.187 12.46 1.094.661 2.734.882 4.046.551.874-.22 2.186-1.103 2.405-2.095 0 .11.11.11.11.22.546 1.103 1.967 1.985 3.607 1.985 1.421 0 2.296-1.102 2.296-1.102s-.765-.331-1.093-1.324zm6.379-5.349c.107-1.05.428-2.45 1.285-3.15A1.299 1.299 0 0185.5 10.2c0 1.05-.643 1.867-1.607 2.1 0-.117-1.607 0-1.607-.117zm7.071 3.5s-.75 1.05-3.428 1.05c-2.786 0-3.322-2.333-3.322-2.333 3.964 0 7.393-.233 7.393-3.733S86.357 6 84.214 6C80.68 6 78 9.033 78 13.117 78 17.667 81.429 20 84.214 20c4.929 0 5.143-4.317 5.143-4.317zm13.036-3.5c.107-1.05.428-2.45 1.286-3.15.75-.466 1.821.117 1.821 1.167s-.643 1.867-1.607 2.1c0-.117-1.5 0-1.5-.117zm6.964 3.5s-.75 1.05-3.428 1.05c-2.679 0-3.322-2.333-3.322-2.333 3.964 0 7.393-.233 7.393-3.733S106.357 6 104.214 6C100.679 6 98 9.033 98 13.117c0 4.55 3.429 6.883 6.214 6.883 4.929 0 5.143-4.317 5.143-4.317zm9.187.574h-2.871c.221 0 2.319-1.823 2.981-2.393 1.877-1.596 5.078-3.875 4.195-6.724-.221-.684-.662-1.14-.662-1.14s-.221.57-.883.798c-.221.114-.552.114-.773.114h-7.949c-.993 0-1.877.798-1.877 1.823 0 1.026.773 1.824 1.877 1.824h4.526c-2.097 1.14-4.526 2.62-5.851 4.672-.772 1.254-1.435 3.077-1.214 4.559.994-.912 3.643-1.71 5.63-1.368.773.114 1.546.57 2.208.912 3.754 2.393 5.962-2.28 4.195-4.33-.11.227-1.214 1.253-3.532 1.253zM34.037 19.07c-2.316-2.416-2.978-6.59-3.199-9.226-.11-2.306 0-6.37 1.875-7.577-.662-.769-1.875-1.098-2.867-1.098-2.096 0-3.199 1.427-3.86 2.416-.221.33-3.861 5.161-3.861 5.161s-2.978-4.722-3.309-5.271c-.551-.769-1.434-2.197-3.198-2.416-.772-.11-2.647-.22-3.64 1.208 1.765 1.427 1.765 4.942 1.324 7.358C12.198 16.873 9 17.532 9 17.532c1.654 4.283 5.735 2.526 6.948-.769.773-2.196 1.214-4.942 1.324-7.248l4.522 6.809 5.184-6.809C26.096 21.595 30.398 25 34.037 25 37.677 25 39 21.705 39 21.705c-1.985-.33-3.64-1.317-4.963-2.635zM45.6 23.098c0 .22.12.329.12.548v6.366c0 .549.6.988 1.08.988.6 0 1.2-.439 1.2-.988v-5.707c0-.44 0-.988-.24-1.427-.24-.439-.96-.878-1.68-.878s-1.08.439-1.08.439.48.22.6.659zm67.8 6.804c0-.22-.12-.329-.12-.548v-6.366c0-.549-.6-.988-1.08-.988-.6 0-1.2.439-1.2.988v5.707c0 .44 0 .988.24 1.427.24.439.96.878 1.68.878s1.08-.439 1.08-.439-.48-.22-.6-.659zm-38.664-4.575c-1.01 0-1.615.873-1.817 1.2v-.545c0-.546-.505-.873-.91-.982-.504 0-1.009.436-1.009.982v4.036c0 .546.505.982.909.982.505 0 1.01-.436 1.01-.982v-2.4c.1-.436.303-.872.605-.872.404 0 .505.545.505.545v2.727c0 .546.505.982.91.982.504 0 1.009-.436 1.009-.982V28.6c.1-1.527.202-3.273-1.212-3.273zm27 0c-1.01 0-1.615.873-1.817 1.2v-.545c0-.546-.505-.873-.91-.982-.504 0-1.009.436-1.009.982v4.036c0 .546.505.982.909.982.505 0 1.01-.436 1.01-.982v-2.4c.101-.436.302-.872.605-.872.404 0 .505.545.505.545v2.727c0 .546.505.982.909.982.505 0 1.01-.436 1.01-.982V28.6c.101-1.527.202-3.273-1.212-3.273zm-48.968 0c-1.018 0-1.63.873-1.833 1.2v-.545c0-.546-.51-.873-.917-.982-.509 0-1.018.436-1.018.982v4.036c0 .546.51.982.916.982.51 0 1.019-.436 1.019-.982v-2.4c.102-.436.305-.872.61-.872.408 0 .51.545.51.545v2.727c0 .546.51.982.917.982.509 0 1.018-.436 1.018-.982V28.6c0-1.527.204-3.273-1.222-3.273zM94 29.667c-.556 0-.889-.667-.889-1.667 0-1.111.333-1.667.889-1.778.444 0 .889.667.889 1.778 0 1-.333 1.667-.889 1.667zM94 25c-1.667 0-3 1.333-3 3s1.333 3 3 3 3-1.333 3-3-1.333-3-3-3zm-14.617 4.578c-.45 0-.721-.545-.721-1.526 0-.872.27-1.417.721-1.526.361 0 .722.545.722 1.526s-.27 1.526-.722 1.526zM82 25.981c0-.545-.451-.981-.902-.981s-.903.436-.903.981v.11c-.18-.328-.721-.982-1.443-.982-2.075 0-2.256 4.47-.812 5.56.36.327.992.436 1.444.218.27-.11.631-.328.811-.654.09.436.452.763.813.763.45 0 .902-.436.902-.981.09 0 .09-3.925.09-4.034zm24.86 3.36c-.541 0-.866-.635-.866-1.78 0-1.017.325-1.653.866-1.78.433 0 .866.635.866 1.78s-.324 1.78-.866 1.78zm3.14-4.196c0-.636-.541-1.145-1.083-1.145-.541 0-1.082.509-1.082 1.145v.127c-.217-.382-.867-1.145-1.733-1.145-2.49 0-2.706 5.215-.974 6.486.433.382 1.191.509 1.732.255.325-.127.758-.382.975-.763.108.508.541.89.974.89.541 0 1.083-.509 1.083-1.145.108 0 .108-4.578.108-4.705zm-20 .957c0-.612-.4-.98-.9-1.102H89c-.4 0-1 .49-1 .98v3.918c0 .612.4.98.9 1.102h.1c.4 0 1-.49 1-.98v-3.918zM90 23c0 .556-.4 1-1 1-.5 0-1-.444-1-1s.4-1 1-1 1 .444 1 1zm-21.057 2.218c-.57 0-.854.436-1.139 1.091v-.327c0-.546-.475-.982-.855-.982-.474 0-.949.436-.949.982v4.037c0 .545.475.981.855.981.474 0 .949-.436.949-.982V27.51c0-.327.19-.873.475-.873.38 0 0 .982.854.982 1.14.11 1.235-2.4-.19-2.4zm-7.903 2.497c.12-.453.24-1.131.72-1.358.36-.226.96 0 .96.453 0 .452-.36.792-.84.905h-.84zm3.6 1.47s-.36.453-1.68.453c-1.44 0-1.68-1.018-1.68-1.018 2.04 0 3.72-.113 3.72-1.584C65 25.566 63.2 25 62.12 25c-1.8 0-3.12 1.357-3.12 3.054 0 1.923 1.68 2.941 3.12 2.941 2.4.113 2.52-1.81 2.52-1.81zM59 29.77S58.474 31 57.526 31c-.842 0-1.79-.861-1.79-1.97v-3.076h-.315a.477.477 0 01-.421-.492c0-.37.316-.493.421-.493h.21v-.861c0-.616.527-1.108 1.053-1.108.527 0 .948.492.948 1.108v.738h.842c.105 0 .42.123.42.492 0 .493-.315.493-.42.493h-.842v2.584c0 .862.631 1.354 1.368 1.354zm28 .153S86.474 31 85.526 31c-.842 0-1.79-.754-1.79-1.723v-2.692h-.315c-.105 0-.421-.108-.421-.431s.316-.43.421-.43h.21v-.755c0-.538.527-.969 1.053-.969.526 0 .948.43.948.97v.645h.842c.105 0 .42.108.42.431 0 .43-.315.43-.42.43h-.842v2.262c.105.754.736 1.185 1.368 1.185zM5.887 45.556v.222c0 .11 0 .11-.113.222 0 0-.114.111-.114.222-.113.334-.34.556-.566.778-.226.111-.34.222-.566.333-.226.111-.453.223-.566.334-.226.11-.453.222-.679.222H2.264c-.34 0-.34 0-.68-.111-.339-.111-.565-.334-.792-.667v.556c0 .11-.113.333-.226.333s-.226 0-.34-.111c-.113-.111-.113-.222-.113-.222v-2.889c0-.111 0-.334.113-.445 0-.11 0-.11.114-.11l.113-.112.113.111c.113.111.113.222.113.334v1.333c0 .222 0 .333.113.444.114.111.227.223.34.445.113.222.226.222.453.333.113 0 .566.111.68.111.226 0 .226-.11.452-.11.226-.112.453 0 .566-.112.113-.111.34-.222.34-.333.113-.111.113-.223.113-.334v-.222c-.113-.222-.227-.333-.227-.444-.113-.445-.113-.667-.226-.89-.226-.333-.566-.666-.906-1a3.413 3.413 0 00-.905-.888c-.34-.333-.566-.667-.906-1-.226-.333-.34-.778-.453-1.222 0-.223-.113-.667-.113-1 0-.445.226-.778.453-1.223.226-.333.566-.666.905-.888.34-.223.567-.223 1.02-.334.226 0 .339-.11.565-.11.227 0 .34 0 .453.11.113 0 .34.111.566.222.227.112.453.112.566.334 0-.222 0-.445.114-.556 0-.11 0-.11.113-.11 0 0 .113-.112.226-.112l.113.111c.114.111.114.222.114.333v2.778c0 .222 0 .667-.34.667-.113 0-.226 0-.34-.111-.113-.111-.113-.222-.113-.222v-1.334c0-.11 0-.333-.113-.444-.113-.222-.113-.334-.34-.445-.113-.11-.226-.222-.453-.222-.113 0-.34-.111-.566-.111-.226 0-.452 0-.566.111-.113.111-.113.222-.226.333a.841.841 0 00-.226.556c0 .222-.114.333-.114.556 0 .11.114.222.114.222v.333c0 .111.226.222.34.333.112.112.226.334.339.445.113.222.34.333.453.555.34.112.566.223.679.334.226.222.566.555.906.778.113.11.226.333.34.444 0 0 .112 0 .112.111.114.111.114.111.114.222l.452.445c.114.11.114.333.227.555.113.111.113.334.113.445V45c0 .111 0 .222-.113.333v.223zm7.675-7.861c.11 0 .438 0 .438.231 0 .116 0 .232-.11.232 0 .116-.11.116-.219.116h-.657v.926c0 .347 0 .579.11.926v2.431c0 .232-.11.464-.11.811v3.127c0 .231.11.579.11.81 0 .232 0 .348-.22.463-.22.232-.438.232-.767.232-.22 0-.438-.116-.658-.116-.219-.116-.438-.231-.547-.347-.33-.347-.548-.695-.768-1.158-.219-.463-.438-.926-.548-1.505-.11-.232-.219-.58-.328-.81-.11-.464-.33-.927-.439-1.39-.11-.348-.219-.58-.328-.927l-.33-.694c0-.116-.109-.116-.109-.116s-.11.116-.11.231v1.042c0 .58 0 1.043.11 1.622v3.589h.658c.11 0 .438 0 .438.232 0 .115 0 .231-.11.231 0 .116-.11.116-.219.116H6.548c-.11 0-.22 0-.329-.116-.11 0-.219-.231-.219-.231v-.116c.11-.116.22-.116.22-.116.218 0 .657-.116.657-.116h.11v-9.263h-.439c-.11 0-.22 0-.329-.116-.11 0-.219-.231-.219-.231v-.116c.11-.116.22-.116.22-.116.218 0 .766-.116.876-.116h.438c.11-.115.22-.115.329-.231.11-.116.22-.116.438-.116.22 0 .439.116.548.347.11.232.22.348.33.463.109.232.109.464.218.695.22.58.329.81.329.927.11.231.22.463.22.694.109.232.109.464.218.695.11.232 0 .463.22.579.219.347.438.926.547 1.39 0 .231.11.463.22.694.11.232.11.463.219.695 0 .231.11.463.219.695 0 .115.11.231.22.231 0 .116 0 .232.109.348 0 .115.11.347.11.463 0 .116.109.116.109.116s.11 0 .11-.116v-2.663c0-.464-.11-1.042-.11-1.506v-3.358h-.768c-.109 0-.218 0-.328-.115-.11 0-.22-.232-.22-.232v-.116c.11-.116.22-.116.22-.116.22 0 .767-.115.877-.115h.329c.11-.116.219-.116.328-.116.11 0 .22 0 .22.116h.767zM22 47.564c0 .11-.099.11-.099.218-.098.11-.197.11-.197.11h-.788c-.1 0-.1 0-.198.108h-.197c-.197 0-.394 0-.493-.109h-.986c-.098 0-.296 0-.394-.109-.099 0-.197-.109-.197-.218 0-.218.197-.218.394-.218h.394v-1.198c0-.108 0-.108-.098-.217 0-.218-.099-.327-.099-.545v-.436c0-.217 0-.326-.098-.544 0-.109 0-.109-.099-.109H17.07c-.098 0-.098.109-.098.218s-.099.327-.099.544c-.098.327-.098.545-.197.872-.098.326-.197.871-.296 1.198h.493c.197 0 .493 0 .493.218 0 .108 0 .108-.098.217-.099.11-.198.11-.198.11h-1.479c-.098 0-.295 0-.394-.11-.098 0-.197-.218-.197-.218s0-.108.099-.108c.098-.11.197-.11.295-.11.197 0 .395 0 .592-.108 0-.218 0-.327.098-.436.1-.327.1-.653.198-1.089 0-.218.098-.544.098-.871 0-.11.099-.327.099-.436 0-.109-.296-.109-.395-.218-.098 0-.098-.109-.098-.218 0-.108.098-.217.296-.217.098 0 .296 0 .394-.11.099-.108.099-.326.099-.435l.295-.98c.099-.327.198-.654.296-1.09.099-.326.099-.653.197-.98.099-.326.099-.653.198-.98.098-.326.197-.653.394-.98l.098-.326c.1-.11.1-.327.198-.436.197-.218.591-.218.788-.218.198 0 .296 0 .395.109.098.109.098.218.197.327.099.109.197.218.197.326 0 .11 0 .218.099.327.098.218.098.545.098.763.099.217.197.544.197.762 0 .327.1.653.1.871.098.327.098.545.098.871 0 .11 0 .327.098.436 0 .218.099.436.099.545 0 .108 0 .217.099.435 0 .11.098.218.098.327h.395c.098 0 .295 0 .394.218v.109s0 .109-.099.109c-.098.109-.197.218-.296.218h-.295v.98c0 .109.098.326.098.435 0 .11.099.327.099.436 0 .218.099.327.099.436 0 .217 0 .326.098.544v.218h.394c-.098.436.099.653.099.762zm-3.45-4.138v-.327c0-.218-.1-.327-.1-.544v-1.416c0-.218 0-.436-.098-.654 0-.218-.099-.435-.099-.762v-.654a.505.505 0 00-.098-.326c-.099 0-.296.217-.296.326 0 .218-.098.327-.098.545v.436c-.099.217-.099.435-.099.544-.099.436-.197.762-.296 1.09 0 .217-.098.326-.098.544 0 .218-.099.435-.099.653 0 .11-.099.327-.099.436h1.381c-.099.218-.099.218.098.109-.098.109 0 .109 0 0zM28 47.327c0 .224 0 .673-.3.673-.1 0-.2 0-.2-.112-.1-.112-.1-.225-.1-.225-.1-.336 0-.561 0-.785-.1.112-.3.449-.4.56-.3.337-.7.562-1.2.562h-.3c-.3-.112-.7-.224-1-.337-.3-.112-.5-.336-.7-.561-.2-.224-.4-.561-.5-.898-.1-.337-.2-.673-.2-1.01 0-.45-.1-.786-.1-1.235v-1.122c0-.337 0-.786.1-1.123.1-.337.2-.785.3-1.122.1-.337.2-.786.4-1.123.1-.336.3-.56.5-.898.2-.224.4-.56.6-.785.2-.225.5-.337.8-.45.2-.111.4-.111.7-.111h.3c.1 0 .2.112.3.224.1.112.1.224.2.337.1.112.1.224.2.336v-.449c0-.112 0-.336.1-.449 0-.112 0-.112.1-.112l.1-.112.1.112c.1.112.1.225.1.337v2.918c0 .225-.1.337-.2.337s-.2 0-.2-.112c-.1 0-.1-.112-.1-.225-.1-.336 0-.449 0-.673v-.112c-.1-.337-.1-.562-.2-.898-.1-.225-.4-.674-.7-.674-.2 0-.3.112-.5.225-.1 0-.1.112-.1.112l-.1.112c-.1.112 0 .337-.1.45-.1.224-.1.336-.1.56-.1.337-.1.674-.2 1.01-.1.337-.1.674-.1 1.01v1.798c0 .336.1.785.1 1.122 0 .337 0 .786.1 1.123 0 .112 0 .336.1.449 0 .112.2.336.2.449.1.336.3.56.6.56s.7-.336.8-.673c.1-.224.2-.336.3-.56v-1.123c0-.113 0-.337.1-.45 0-.112 0-.112.1-.224l.1-.112.1.112c.1.112.1.225.1.337v3.031zm5.845-5.549c-.113.222-.338.444-.338.666 0 .112.338.112.563.334.338.11.676.444.902.778.112.222.225.333.225.444.113.222.113.333.225.556 0 .222.113.333.113.555.113.222.113.445.113.556 0 .11 0 .333.113.444 0 .111.112.111.112.222s.113.223.113.223c0 .222.113.333.225.444.113.222.226.222.338.333.113 0 .226.223.226.334v.11a.867.867 0 01-.564.223c-.225 0-.563 0-.788-.111-.339-.111-.677-.445-.79-.556a1.536 1.536 0 01-.337-.444c-.113-.111-.113-.333-.226-.556-.112-.333-.225-.555-.338-1-.112-.222-.112-.555-.225-.777 0-.112-.113-.334-.113-.445 0-.111-.112-.222-.112-.333-.113-.222-.113-.334-.338-.334 0 0-.113 0-.113.112l-.338.333a.842.842 0 00-.225.555v2.667h.45c.226 0 .676 0 .676.222 0 .111 0 .223-.112.223-.113.11-.226.11-.338.11h-.902c-.112.112-.225.112-.338.112-.113 0-.338 0-.45-.111h-1.577c-.114 0-.339 0-.452-.111-.112 0-.225-.223-.225-.223s0-.11.113-.11c.112-.112.225-.112.338-.112.338 0 .676-.111.788-.111h.338v-.111c-.225-.333-.225-.778-.225-1.111v-7.889h-.675c-.114 0-.339 0-.452-.111-.112 0-.225-.222-.225-.222s0-.112.113-.112c.112-.11.225-.11.338-.11.338 0 .788-.112.901-.112h.113c.113-.11.225-.222.45-.222h.113c.113 0 .338.111.45.111h1.353c.225 0 .676 0 .676.222 0 .111 0 .223-.113.223-.112.11-.225.11-.338.11H31.93c.112.112.112.223.112.445v.333c0 .112 0 .334.113.556v.444c0 .223 0 .445.113.667 0 .222.112.333.112.556v1.222c0 .111 0 .222.113.222s.113-.111.225-.222c.113-.222.226-.445.338-.556.113-.11.113-.333.226-.444.112-.222.338-.445.45-.778.113-.222.226-.444.338-.555.113-.223.338-.556.451-.778.113-.334.338-.667.45-.89v-.11h-.224c-.113 0-.226 0-.339-.111-.112 0-.225-.223-.225-.223v-.11c0-.112.225-.112.225-.112.226 0 .451-.11.564-.11h.338c.112 0 .112-.112.225-.112h1.014c.113 0 .451 0 .451.222 0 .111 0 .222-.113.222 0 .112-.112.112-.225.112h-.901c-.113.11-.113.222-.226.333-.225.333-.338.667-.45.889-.226.333-.339.778-.451 1.11-.338 1.223-.564 1.556-.789 1.89zm7.555 5.643c.2 0 .6 0 .6.232 0 .115 0 .115-.1.231s-.2.116-.3.116h-2.9c-.1 0-.3 0-.4-.116-.1 0-.2-.231-.2-.231s0-.116.1-.116c.1-.116.2-.116.3-.116.3 0 .6-.116.7-.116h.2c-.2.116-.3 0-.3-.231v-8.8h-.5c-.1 0-.3 0-.4-.116-.1 0-.2-.232-.2-.232v-.116c.1-.115.2-.115.3-.115.3 0 .6-.116.7-.116v-.347c0-.116.2-.116.2-.116.1 0 .2-.116.2-.116h.5c.2.116.4.232.5.463h.7c.2 0 .6 0 .6.232 0 .115 0 .115-.1.231s-.2.116-.3.116h-.7c0 .232.1.463.1.58v1.736c.1.463 0 .81.1 1.274v2.547c0 .463.1.81.1 1.274v1.273c0 .232 0 .348-.1.58.4.115.5.115.6.115zm8.168-9.726c.108 0 .432 0 .432.231 0 .116 0 .232-.108.232 0 .116-.108.116-.216.116h-.757v.926c0 .347 0 .579.108.926v2.431c0 .232-.108.464-.108.811v3.127c0 .231.108.579.108.81 0 .232 0 .348-.216.463-.216.232-.433.232-.757.232-.216 0-.432-.116-.649-.116-.216-.116-.432-.231-.54-.347-.325-.347-.54-.695-.757-1.158-.216-.463-.432-.926-.54-1.505-.108-.232-.217-.58-.325-.81-.108-.464-.324-.927-.432-1.39-.108-.348-.216-.58-.325-.927l-.324-.694c0-.116-.108-.116-.108-.116s-.108.116-.108.231v1.042c0 .58 0 1.043.108 1.622v3.589h.649c.108 0 .432 0 .432.232 0 .115 0 .231-.108.231 0 .116-.108.116-.216.116h-2.27c-.109 0-.217 0-.325-.116-.108 0-.216-.231-.216-.231v-.116c.108-.116.216-.116.216-.116.216 0 .649-.116.649-.116h.108v-9.263h-.324c-.108 0-.217 0-.325-.116-.108 0-.216-.231-.216-.231v-.116c.108-.116.216-.116.216-.116.217 0 .757-.116.865-.116h.54c.109-.115.217-.115.217-.231.108-.116.216-.116.432-.116a.59.59 0 01.54.347c.109.232.217.348.325.463.108.232.108.464.216.695.109.232.109.463.217.58.108.23.216.462.216.694.108.231.108.463.216.695.108.231 0 .463.216.579.217.463.433.926.54 1.39 0 .23.109.462.217.694.216.579.216.81.216 1.042 0 .231.108.463.217.695 0 .115.108.231.216.231 0 .116 0 .232.108.348 0 .115.108.347.108.463 0 .116.108.116.108.116s.108 0 .108-.116v-2.663c0-.464-.108-1.042-.108-1.506v-3.358h-.757c-.108 0-.216 0-.324-.115-.108 0-.216-.232-.216-.232v-.116c.108-.116.216-.116.216-.116.216 0 .757-.115.865-.115h.324c.108-.116.216-.116.325-.116.108 0 .216 0 .216.116h.865zM58 43.27c0 .11-.23.22-.344.33-.23.11-.46.11-.689.11-.23 0-.344 0-.344.22v3.3c0 .22 0 .66-.344.66-.115 0-.23 0-.23-.11-.115-.11-.115-.22-.115-.22v-.77c-.114.33-.344.66-.573.77-.46.33-.804.44-1.263.44-.344 0-.688 0-.918-.11a2.517 2.517 0 01-.918-.55c-.344-.33-.574-.77-.803-1.21-.23-.33-.23-.66-.344-.99 0-.22-.115-.44-.115-.77v-.66c0-.88.23-1.76.459-2.64l.344-1.32c.115-.44.345-.88.689-1.32.23-.33.574-.66.918-.99.115-.11.344-.22.459-.22.23-.11.459-.22.688-.22h.459c.23 0 .46.11.574.22l.344.33c0-.11 0-.22.115-.33 0-.11 0-.11.115-.11l.115-.11.114.11c.115.11.115.22.115.33v2.53c0 .22 0 .66-.344.66-.115 0-.23 0-.23-.11-.114-.11-.114-.22-.114-.22v-.99c0-.22-.115-.44-.115-.66 0-.22-.115-.44-.23-.66-.114-.11-.344-.22-.459-.22-.23 0-.344.11-.459.33-.114.22-.23.33-.344.55-.115.22-.115.44-.115.66 0 .22-.114.44-.114.66-.115.22-.115.44-.115.77 0 .22-.115.44-.115.66 0 .22-.115.44-.115.55 0 .22 0 .44-.114.66 0 .22 0 .44-.115.66v1.43c0 .33.115.77.23 1.1 0 .11.114.33.114.44 0 .22.115.33.23.55.114.22.459.55.803.55.23 0 .459-.22.574-.44.23-.33.344-.66.459-.99.114-.33.114-.66.114-.99v-.88c0-.22 0-.22-.23-.22h-.688c-.23 0-.344 0-.573-.11-.115 0-.115-.11-.115-.11s0-.11.115-.11c.114-.11.23-.11.344-.22.23-.11.459-.11.688-.22.23 0 .46 0 .689-.11h1.492c.114.11.344.22.344.33zm11.34 3.952c.22 0 .66 0 .66.222 0 .112 0 .223-.11.223-.11.11-.22.11-.33.11h-.879c-.22.112-.44.223-.769.223-.11 0-.33 0-.44-.111-.11 0-.11-.111-.22-.111h-1.099c-.109 0-.329 0-.439-.111-.11 0-.22-.223-.22-.223s0-.11.11-.11c.11-.112.22-.112.33-.112.33 0 .77-.11.88-.11h.11v-.223c-.11-.445-.11-.889-.11-1.445v-5.888.11c0 .223-.11.445-.11.556l-.33 1.334c-.11.444-.22.888-.22 1.222 0 .222-.11.444-.11.666 0 .223-.11.445-.11.667 0 .222-.11.445-.22.667a.835.835 0 01-.55.222c-.329 0-.659-.111-.878-.333-.33-.334-.44-.778-.55-1.111l-.33-1.334c0-.11-.11-.444-.22-.889L62.858 40c-.11-.333-.11-.556-.22-.667v-.11s0 .11-.11.221v4.445c0 .222-.11.444-.11.778-.11.444-.11 1-.22 1.444v1h.88c.22 0 .55 0 .55.333 0 .112-.11.112-.11.223 0 .11-.11.11-.22.11H60.55c-.11 0-.22 0-.33-.11l-.22-.223s0-.11.11-.11c.11-.112.22-.112.22-.112.22 0 .769-.11.769-.11h.22c0-.445.11-.89.11-1.223 0-.556.11-1 .11-1.556 0-.444 0-.889.11-1.333 0-.667 0-1.222.11-1.889 0-.333 0-.667.11-1 0-.444.109-.778.219-1.333 0-.222 0-.445.11-.778v-.111h-.77c-.22 0-.33 0-.439-.111-.11 0-.22-.222-.22-.222s0-.112.11-.112c.11-.11.22-.11.33-.11.33 0 .769-.112.879-.112h1.099c.11 0 .33 0 .44.111.22.111.439.334.659.778.11.445.33.889.44 1.333 0 .223 0 .445.11.556.11.222.11.444.219.667 0 .222 0 .444.11.555.11.222.11.334.11.556 0 .11.11.333.22.666.11.223.11.445.22.445s.11-.556.11-.667c0-.222.11-.444.11-.778.109-.444.219-1 .329-1.444.11-.556.22-1 .33-1.556.11-.444.22-.777.549-1.11.22-.223.44-.334.77-.334.109 0 .219 0 .329.111h1.099c.22 0 .659 0 .659.222 0 .111 0 .111-.11.223-.11.11-.22.11-.33.11h-.769v.112c0 .222.11.444.11.666 0 .223 0 .445.11.667 0 .111.11.333.11.445v.666c0 .222.11.445.11.667v.222c0 .111.11.222.11.333v1.112c0 .11 0 .333.11.444v.666c0 .112.11.223.11.334 0 .222 0 .333.11.556 0 .222 0 .444.11.777V47c-.55.222-.44.222-.44.222zm9.66.342c0 .11-.113.11-.113.218-.112.11-.225.11-.225.11h-.901c-.113 0-.113 0-.226.108h-.225c-.225 0-.45 0-.564-.109H75.62c-.113 0-.338 0-.451-.109-.113 0-.225-.109-.225-.218 0-.218.225-.218.45-.218h.451v-1.198c0-.108 0-.108-.113-.217 0-.218-.112-.327-.112-.545v-.436c0-.217 0-.326-.113-.544 0-.109 0-.109-.113-.109h-2.028c-.112 0-.112.109-.112.218s-.113.327-.113.544c-.113.327-.113.545-.226.872-.112.326-.225.871-.338 1.198h.564c.225 0 .563 0 .563.218 0 .108 0 .108-.112.217-.113.11-.226.11-.226.11h-1.69c-.113 0-.338 0-.45-.11-.113 0-.226-.218-.226-.218s0-.108.113-.108c.112-.11.225-.11.338-.11.225 0 .45 0 .676-.108 0-.218 0-.327.112-.436.113-.327.113-.653.226-1.089 0-.218.112-.544.112-.871 0-.11.113-.327.113-.436 0-.109-.338-.109-.45-.218-.113 0-.113-.109-.113-.218 0-.108.112-.217.338-.217.112 0 .338 0 .45-.11.113-.108.113-.326.113-.435l.338-.98c.113-.327.225-.654.338-1.09.113-.326.113-.653.226-.98.112-.326.112-.653.225-.98.113-.326.225-.653.45-.98l.113-.326c.113-.11.113-.327.226-.436.225-.218.676-.218.901-.218.225 0 .338 0 .563.109.113.109.113.218.226.327.112.109.225.218.225.326 0 .11 0 .218.113.327.113.218.113.545.113.763.112.217.225.544.225.762 0 .327.112.653.112.871.113.327.113.545.113.871 0 .11 0 .327.113.436 0 .218.113.436.113.545 0 .108 0 .217.112.435 0 .11.113.218.113.327h.451c.112 0 .338 0 .45.218v.109s0 .109-.112.109c-.113.109-.226.218-.338.218h-.338v.98c0 .109.112.326.112.435 0 .11.113.327.113.436 0 .218.113.327.113.436 0 .217 0 .326.112.544v.218H79c-.225.544 0 .653 0 .762zm-3.944-4.138v-.327c0-.218-.112-.327-.112-.544v-1.416c0-.218 0-.436-.113-.654 0-.218-.113-.435-.113-.762v-.654c0-.218-.112-.326-.112-.326-.113 0-.338.217-.338.326 0 .218-.113.327-.113.545v.436c-.113.217-.113.435-.113.544-.112.436-.225.762-.338 1.09 0 .217-.112.326-.112.544 0 .218-.113.435-.113.653 0 .11-.113.327-.113.436h1.577c-.112.327-.112.327.113.109-.112.109 0 .109 0 0zm11.828-.495v.324c0 .108-.116.216-.116.431v.432c0 .107 0 .215-.116.323 0 .108 0 .216-.116.324-.116.108-.116.323-.116.431 0 .108-.116.324-.116.431 0 .108-.116.216-.231.324-.116.108-.116.216-.116.324-.116.107-.232.43-.348.43-.348.432-.696.648-.928.864a.922.922 0 01-.58.215c-.231 0-.463.108-.695.108-.232 0-.348-.108-.464-.108h-.812c-.115.108-.115.216-.231.216h-.696c-.116 0-.348-.108-.348-.108-.116-.108-.232-.108-.348-.216 0 0-.116 0-.116-.107h-.695c-.116 0-.348 0-.464-.108-.116 0-.232-.216-.232-.216 0-.108 0-.108.116-.216.116-.107.232-.107.348-.107.232 0 .463 0 .695-.108v-2.481c0-.215 0-.97.116-1.94v-4.315h-.579c-.116 0-.348 0-.464-.107-.116 0-.232-.216-.232-.216s0-.108.116-.216.232-.108.348-.108c.348 0 .695-.107.811-.107l.116-.108.232-.108c.116 0 .232-.108.232-.108h.58c.232 0 .348.108.464.324h.347c.348 0 .58.107 1.16.107.348 0 .58.108.927.108.116 0 .348 0 .464.108l.348.324c.116.107.232.107.348.215.116.108.116.216.116.324.116.108.232.215.464.323.115.108.115.324.231.432.232.323.464.647.58.97.116.324.116.54.116.863v1.186c0 .432-.116.54-.116.647zm-2.087 0v-.862c0-.432-.116-.755-.116-.863a48.335 48.335 0 00-.348-1.726c0-.107 0-.431-.58-.862-.115-.108-.695-.216-1.043-.216-.232 0-.348 0-.348.108v8.519c0 .108 0 .108.116.108h.58c.116 0 .348-.215.464-.215l.232-.108c.116-.108.231-.216.231-.324.116-.108.232-.323.232-.431.116-.324.232-.324.348-.97 0-.432.116-.756.232-1.08v-1.078zm9.084 4.059l.119.112c0 .112-.119.225-.237.337-.119.112-.238.112-.475.112-.356 0-.712.112-1.068.112-.118 0-.356 0-.474.113h-1.187c0 .112-.118.112-.237.224h-.949c-.119 0-.356-.112-.356-.112-.119-.112-.237-.112-.356-.225h-.949c-.119 0-.356 0-.475-.112-.118 0-.237-.224-.237-.337 0 0 0-.112.119-.112.118-.112.237-.112.356-.112.237 0 .474-.112.83-.112v-6.173c0-.338.119-.674.119-.899V38.01h-.594c-.118 0-.355 0-.474-.112-.119 0-.237-.225-.237-.337 0 0 0-.112.118-.112.119-.112.238-.112.356-.112.356 0 .83-.113 1.068-.113 0-.112.119-.112.119-.112.118-.112.237-.112.474-.112h.475c.118 0 .118 0 .237.112.119 0 .119 0 .237.112.119 0 .356.113.475.113h1.898c.238 0 .356 0 .594.112.118 0 .237 0 .355.112l.12-.112s.118 0 .118.112c.118.112.118.225.118.337v1.347c0 .224 0 .561-.237.561-.119 0-.237 0-.237-.112-.119-.112-.119-.225-.119-.225v-1.123H92.22c-.118 0-.356 0-.949.113h-.237c-.119 0-.119 0-.237.112v3.143h1.661v-.449c0-.112 0-.336.118-.449 0-.112.238-.224.238-.224s.118 0 .118.112c.119.112.119.225.119.337 0 .337 0 .561.118.898v.898c0 .224 0 .561-.237.561-.118 0-.237 0-.237-.112-.119-.113-.119-.225-.119-.225v-.673h-1.542c-.119 0-.237.112-.237.224v3.255c0 .113 0 .337.118.45 0 .112 0 .448.119.448h1.661c.237 0 .356-.112.593-.112v-1.122c0-.113.119-.225.119-.225.118-.112.118-.112.237-.112.237 0 .237.449.237.561.119.561 0 .786 0 1.235 0-.112 0 0 0 0zm9.897.552c.111.114.222.114.222.229v.114c-.111.115-.222.115-.444.115-.445 0-1-.344-1.334-.573-.333-.344-.444-.687-.666-1.031-.112-.23-.223-.344-.334-.573-.111-.23-.111-.344-.222-.573a.89.89 0 00-.222-.573c-.111-.23-.111-.458-.222-.573-.112-.114-.112-.344-.223-.573-.111-.229-.111-.343-.333-.458-.111-.115-.222-.115-.333-.115h-.334v1.146c0 .344.111.459.111.802 0 .459-.11.802-.11 1.26v.69h.555c.222 0 .667 0 .667.343 0 .114 0 .23-.112.23-.111.114-.222.114-.333.114h-1c-.222.114-.444.229-.555.229H98c-.111 0-.333-.115-.444-.23h-.889c-.111 0-.334-.114-.445-.114-.11 0-.222-.23-.222-.23s0-.114.111-.114c.111-.114.222-.114.333-.114.223 0 .556-.115.778-.115v-8.823h-.555c-.111 0-.334 0-.445-.114-.11 0-.222-.23-.222-.23s0-.114.111-.114c.111-.115.222-.115.333-.115.334 0 .556-.114.778-.114 0 0 0-.115.111-.115s.111-.114.334-.114c.11 0 .222-.115.222-.115h.222c.111 0 .333 0 .445.115.222.114.333.114.333.229h1.555c.223 0 .445.114.778.229.111 0 .222.114.445.23.111 0 .222.114.444.228.222.115.333.23.333.344.112.23.334.344.334.458.111.23.111.459.111.688 0 .229.111.344.111.344v.687c0 .115 0 .23-.111.458 0 .23-.111.344-.222.573 0 .115-.111.115-.111.23 0 .114 0 .114-.112.229l-.333.343c-.111 0-.111 0-.222.115l-.222.23-.334.343c-.111.114-.222.114-.222.23 0 .114.333.343.445.457l.333.688c.111.23.111.458.222.687.111.344.222.573.222.917.111.344.223.573.334.917.111.229.111.343.222.458.555-.114.667 0 .889.115zm-2.334-8.365v-.23c0-.228-.111-.457-.333-.687l-.222-.229c-.111-.114-.222-.114-.333-.114-.223-.115-.445-.115-.667-.115h-.445v.917c0 .458.112 1.031.112 1.604v1.948c0 .114 0 .114.11.114h.445c.222 0 .556-.114.667-.229.111-.114.222-.229.222-.458 0-.115.111-.344.111-.458.111-.23.111-.344.111-.573v-.917c.222-.23.222-.23.222-.573zm6.941 8.25c.205 0 .615 0 .615.23 0 .114 0 .114-.103.228-.102.115-.205.115-.307.115h-2.975c-.102 0-.307 0-.41-.115-.102 0-.205-.229-.205-.229s0-.114.103-.114c.102-.115.205-.115.307-.115.308 0 .616-.114.718-.114h.205c-.102-.115-.205-.23-.205-.344V38.26h-.513c-.102 0-.307 0-.41-.114-.102 0-.205-.23-.205-.23v-.114c.103-.114.205-.114.308-.114.307 0 .615-.115.718-.115v-.344l.205-.114c.102 0 .205-.115.205-.115h.513c.205.115.41.23.513.458h.717c.206 0 .616 0 .616.23 0 .114 0 .114-.103.229.103.229 0 .343-.102.343h-.718c0 .23.102.459.102.573v1.72c.103.457 0 .801.103 1.26v2.52c0 .459.102.802.102 1.26v1.262c0 .23 0 .344-.102.573h.308zM116 43.27c0 .11-.197.22-.295.33-.197.11-.394.11-.59.11-.197 0-.295 0-.295.22v3.3c0 .22 0 .66-.295.66-.099 0-.197 0-.197-.11-.098-.11-.098-.22-.098-.22v-.77c-.099.33-.296.66-.492.77-.394.33-.689.44-1.082.44-.295 0-.59 0-.787-.11-.295-.11-.59-.33-.787-.55-.295-.33-.492-.77-.689-1.21-.196-.33-.196-.66-.295-.99 0-.22-.098-.44-.098-.77v-.66c0-.88.197-1.76.393-2.64l.296-1.32c.098-.44.295-.88.59-1.32.196-.33.491-.66.787-.99.098-.11.295-.22.393-.22.197-.11.393-.22.59-.22h.394a.71.71 0 01.491.22l.296.33c0-.11 0-.22.098-.33 0-.11 0-.11.098-.11l.099-.11c.098 0 .098.11.098.11.098.11.098.22.098.33v2.53c0 .22 0 .66-.295.66-.098 0-.196 0-.196-.11-.099-.11-.099-.22-.099-.22v-.99c0-.22-.098-.44-.098-.66 0-.22-.099-.44-.197-.66-.098-.11-.295-.22-.393-.22-.197 0-.295.11-.394.33-.098.22-.197.33-.295.55-.098.22-.098.44-.098.66 0 .22-.099.44-.099.66-.098.22-.098.44-.098.77 0 .22-.098.44-.098.66 0 .22-.099.44-.099.55 0 .22 0 .44-.098.66 0 .22 0 .44-.098.66v1.43c0 .33.098.77.196 1.1 0 .11.099.33.099.44.098.22.098.33.196.55.099.22.394.55.689.55.197 0 .393-.22.492-.44.196-.33.295-.66.393-.99.099-.33.099-.66.099-.99v-.88c0-.22 0-.22-.197-.22h-.59c-.197 0-.295 0-.492-.11-.099 0-.099-.11-.099-.11s0-.11.099-.11c.098-.11.197-.11.295-.22.197-.11.393-.11.59-.22.197 0 .394 0 .59-.11h1.279c.098.11.295.22.295.33zm8.299 3.928c.233 0 .701 0 .701.23 0 .114 0 .228-.117.228-.117.115-.234.115-.351.115h-3.155c-.117 0-.351 0-.468-.115-.117 0-.234-.229-.234-.229s0-.114.117-.114c.117-.115.234-.115.351-.115.234 0 .584-.115.701-.115-.117-.114-.234-.229-.234-.458V42.27h-.116c-.234 0-.468.115-.585.115h-1.286s-.117 0-.117.115v4.698c.234 0 .585 0 .585.23 0 .114 0 .228-.117.228-.117.115-.234.115-.351.115h-.35c-.117 0-.117 0-.234.114-.117 0 0 .115-.117.115h-.234c-.233 0-.467-.115-.584-.115l-.117-.114h-1.286c-.117 0-.35 0-.467-.115-.117 0-.234-.229-.234-.229s0-.114.117-.114c.117-.115.234-.115.351-.115.233 0 .584-.115.818-.115v-4.468c0-.115 0-.115-.117-.115h-.468c-.233 0-.467-.115-.467-.23 0 0 0-.114.117-.114.117-.114.233-.114.233-.114h.351c.117 0 .117 0 .234-.115v-1.374c0-.688 0-1.49.117-2.178v-.344h-.585c-.117 0-.35 0-.467-.114-.117 0-.234-.23-.234-.23s0-.114.117-.114c.117-.115.234-.115.351-.115.35 0 .818-.114.935-.114h.116c.117-.23.234-.344.702-.344.234 0 .467.115.701.344h.468c.233 0 .701 0 .701.229 0 .114-.117.23-.234.23-.117.114-.234.114-.351.114h-.467v.114c.117.23.117.573.117.802 0 .23 0 .573.117.802 0 .23.117.459.117.803v.802c0 .114.116.114.116.229v.114c0 .115 0 .115.117.115.234 0 .935-.115 1.052-.115h.819c.116 0 .233 0 .233-.229v-3.552h-.233c-.117 0-.351 0-.468-.114-.117 0-.234-.23-.234-.23s0-.114.117-.114c.117-.115.234-.115.351-.115h.584l.117-.114h.818c.117 0 .117 0 .117.114h1.169c.234 0 .584 0 .584.23 0 .114 0 .228-.117.228-.116.115-.233.115-.35.115h-1.052c0 .115.117.23.117.458 0 .23.117.573.234.803 0 .229 0 .458.116.687.117.23.117.458.117.688v1.031c0 .114.117.114.117.114h.234c.117 0 .351 0 .351.115v.114c0 .115-.117.344-.351.344-.117 0-.234 0-.234.115-.117 0-.117 0-.117.114v1.948c0 .344.117.802.117 1.146v.573c0 .344-.117.688-.117.917l-.117.114v.344c.468-.23.585-.23.702-.23zm7.588-7.303c0 .21 0 .526-.226.526-.113 0-.226 0-.226-.105-.112-.105-.112-.105-.112-.21v-1.369h-1.468c-.113 0-.226 0-.226.105v1.474c0 .105.113.316 0 .42v6.423h.452c.225 0 .677.105.677.316 0 .105 0 .21-.113.21-.113.105-.226.105-.339.105h-.903s-.113 0-.113.106c-.113.105-.225.105-.338.105h-.339c-.226 0-.339-.105-.452-.105 0 0-.113 0-.113-.106h-1.129c-.225 0-.338 0-.451-.105-.113 0-.226-.21-.226-.316 0 0 0-.105.113-.105.113-.105.226-.105.339-.105.225 0 .564 0 .677-.105v-8.317c0-.105-.113-.105-.113-.105h-1.581v1.157c0 .211 0 .527-.225.527-.113 0-.226 0-.226-.105-.113-.106-.113-.106-.113-.211v-1.474c0-.105-.113-.105-.113-.21s0-.105.113-.105c.113-.106.226-.106.452-.106h2.032c.113 0 .226-.105.338-.105h.904c.113 0 .113 0 .226.105.112 0 .112.106.225.106h1.92c.225 0 .451 0 .564.105.113.105.226.21.226.316 0 .105 0 .105-.113.21v1.053z" fill="#46248A"/></svg>