<svg width="134" height="35" fill="none" xmlns="http://www.w3.org/2000/svg"><path d="M12.594 6.56c-.603.973-4.136.325-3.791 1.297a1.9 1.9 0 00.517.891c-.172.405.948.81 2.326 1.054-.172.243-.086.486.776.729.603 0 .948-.081 1.206-.162.259-.081.431-.162.517-.243.603.08 1.12.08 1.465.08-.603.973-4.05.487-3.705 1.378.172.405.345.81.69 1.053l1.723-.567c4.394.324-1.81 1.216 1.12 2.107.603-.081.947-.081 1.206-.243 1.465-.486 1.034-.73.172-1.215 4.05-.163 2.758 2.35 4.653 2.511 0 .081-.258.081-.517.081.086.081-.258.081-.344.081 0 .081-.087.081-.259.081-.172-.08.086-.08.086-.162-.172 0-.43 0-.43.081.258 0-.26.081 0 .162.086 0 0-.08.172-.08 0 .08-.086.08-.173.161-.172 0-.172-.162-.258-.162-.086 0-.345 0-.517.081.258-.08.603 0 .43.081-.172 0-.085-.08-.172-.08-.086 0-.43.08-.344-.082-.172.081-.172.081-.086.162-.259 0-.173-.08-.086-.08h-.173c-.086.08.086.161 0 .161s-.086-.08-.172-.08c-.173 0-.259.08-.517.08-.086-.162-.345 0-.517-.08 0 .08.086.08 0 .08s-.086-.08-.172-.08c0 .08 0 .08-.087.08h-.086s.086 0 .086-.08c-.603.08-.689.08-1.12-.082-.086.081-.345.081-.517.081.086.081-.086.081-.086.081.258 0 .086.081.086.081h.431c0-.08.172-.08.259-.08 0 .08.172.08.258.08 0-.08.345-.08.345-.08 0 .08-.345 0-.259.08.259-.08.172 0 .086.081.604 0 .604 0 1.12-.08 0 .08-.086.08 0 .161.087-.162.431 0 .69 0h-.173c.087.082.173 0 .173.082-.086 0 0 0 .086.08.086-.08 0-.08.086-.162.431 0 1.12 0 1.293.244-.259-.081-.431.08-.69 0 0 .08-.086.08 0 .08.345 0 .517 0 .862.081-.086 0 0 .082.086.082 0 0 0-.082.086-.082-.086 0-.086.082.086.082 0-.082.173-.082.259 0-.259 0 0 .162-.172.162-.259 0-.173-.162-.259-.081.086 0 0 .08.086.08-.086 0-.258.082-.344 0 .086-.08 0-.161-.087-.161.087.08.087.162 0 .162-.258 0-.517.08-.517-.081.087 0 .087-.081.087-.081-.173 0 0 .08-.173.08h-.172c.086.082.172-.08.258 0-.172 0-.172.082-.344 0 0-.08-.086-.08-.086-.162.172 0 0-.08 0-.08s-.345 0-.173.08h.087c-.087 0 0 .082-.087.082-.086 0-.172 0-.258-.082 0 0 .172 0 .172-.08-.172-.081-.43.162-.517 0h.259c-.173-.081-.345 0-.517-.081 0 .08 0 .08-.087.08 0-.08-.172-.08-.344 0-.086-.08 0-.08-.086-.08 0 .08-.259.08-.259.08.086 0 .086 0 .086.081-.086.082-.086 0-.258 0 0 .082.258 0 .258.082-.258 0 0 .08 0 .08-.086.082-.258 0-.344-.08.086.08-.087.162.086.162.086-.081.172 0 .345-.081 0 .08 0 .08.086.08.086-.08-.087-.08.086-.08.43 0 .172.243-.172.243.172.08.086 0 .258 0-.172.08.086.08.172.08-.086.082-.517 0-.517.082h.776c-.086 0-.086.08-.173.08H16.3c-.086 0-.258.082-.258 0 .258 0-.086 0 0-.08h-.173c.345 0-.258.08 0 .08 0-.08.173 0 .173 0-.259 0-.345-.08-.603-.08 0 .08 0 .08-.086.08-.259 0-.604 0-.862-.08h-.086c-.431 0-.948-.081-1.379-.081.086 0 .172 0 .086-.081-.086 0-.172 0-.258.08-.173 0-.345 0-.431-.08-.258 0-.517.08-.776.08 0-.08 0-.08-.086-.08h-.172c.086 0 .086.08.172.08-.344.082-.689.082-.947.163h-.173c-.603.162-.861.324-.948.486H9.32l-.086.08h.172c-.086.163.086.325.431.487H8.631c0-.081-.086-.081 0-.081-.173.081-.431.081-.603.081 0 .081-.087.081-.259.081 0 0 .086 0 0-.081h-.172v-.081c-.173 0-.259-.081-.259 0h.173-.173c.086-.081-.172 0-.086-.081-.172.081-.258.081-.517.081 0 .081 0 .081-.086.081.086-.081-.345-.081-.43 0v-.081h-.863c.087.081-.258.081-.43.081 0 0 0-.081.086-.081-.086.081.258.081.172 0-.258 0-.172-.081-.258-.081-.087.162-.173.081-.087.243.173 0 .604-.081.517 0 0-.081-.086 0-.172 0h-.43c0 .081-.087.081-.087.081.086 0 .086.081.172.081 0-.162.431 0 .69-.08 0-.082.69-.163.948-.082h-.431c.086 0 0 .081.086.081s.345 0 .258-.08c.087.08.259 0 .345 0-.086-.082.172-.163.172-.082h-.086c.517.162 1.12-.081 1.637.081.087 0-.086-.081 0-.081.259.081.69-.081 1.034.081v-.081h.345c.086.081.172.081.258.162-.172 0-.344-.08-.43 0 0 .081.344.081.43 0 1.38.567 4.05 1.134 5.429 1.215l-.086.081h-.259c0 .081.173 0 .173.081l-.087.081h-.258c0-.08 0-.08-.086-.08.086.243-.862.08-1.12.243l.086-.082h-.173c-.086 0 .087.082 0 .082-.172 0-.086 0-.086-.082-.172 0-.086.082-.258.082 0-.163-.259 0-.345-.082-.086.082-.258 0-.43 0-.087.082.258 0 .258.082-.086 0 0 .08-.086.08.086.082.086.163.258.163 0-.162.172 0 .259-.081v.08c-.948 0-1.81 0-1.724.568v.08h-.172c0 .082.086.082 0 .082h.172v.08c-.086 0-.172 0-.172.082h.172l.259.486s-.086 0-.086-.081c-.087 0-.173 0-.259.081.172 0 .172.081.345.081l.258.243c-.43 0-.947.081-1.378 0 .086 0 0 .081.086.081a.779.779 0 01.603 0c.345-.08.862-.08 1.206-.08 0 .161.517.161.431.242.172 0 .345-.08.43 0-.171 0-.085.081-.258.081.087 0 .259.081.431 0 0 .081-.086.081.086.081.345 0 .862-.08 1.207.081-.086 0-.173.081-.173.081h-.344c.172 0-.259 0-.173.081.173 0 .173.162 0 .162-.086 0-.172-.08-.172-.162-.086 0-.258 0-.258.081.258-.08.086.081.172.081 0 0 .086-.08.172-.08 0 .08.086.08.086.08-.086.081-.172.081-.172.162-.086.081-.258.081-.345.081 0 0 0 .081.087.081-.431.082-.862.163-1.12.082-.173 0-.431 0-.517.08.172 0 .172.082.344.082-.172 0-.258.08-.344.162-.087-.081-.345 0-.431-.081-.087-.081.258 0 .172-.081-.517-.162-1.379 0-1.982-.081.086-.081.431.08.517-.081-.172-.082-.43 0-.69-.082-.085-.08.087-.08.26-.08 0 .162.689 0 .516.242.259-.08.517-.08.69 0 .086 0 0-.08.172-.08 0 .08-.086.08-.086.08.258-.08 1.206-.08 1.465-.162 0 .082.086.082.086.082 0-.082.172-.082.172-.082-.172 0-.172-.08-.258-.08 0 0-.259.08-.259 0 0-.082.172 0 .172-.082h-.086.086c-.258 0-.516.162-.603.081.173 0 .087-.08.173-.08.258.08.603-.082.689-.082-.345 0-.259-.08-.43-.162.171 0 .085.081.258 0 0-.162-.173-.162-.259-.243.172 0 .086-.08.172-.08-.172 0-.43 0-.258-.082-.172 0-.345.081-.43 0 .085-.08.43 0 .344-.08-.776.323-1.293-.325-2.068-.082.086-.08-.086-.08-.259-.162.086-.08.173-.162.345-.243h.259c.172 0 0 .081.172.081 0 0 0-.081-.086-.081h.689c.086-.081.172-.081.086-.162-.345.081-.517 0-.775.081.086-.081-.173-.243-.259-.081h.173v.081c-.173 0-.345.081-.345 0h.172c-.172 0 0-.081-.172-.081-.086.081-.517.081-.603 0v-.081c.258 0 .344-.162.258-.081-.344-.081-.517.162-.517.243-.172 0-.086-.081-.172-.081 0 .081-.259.081-.345.162.086 0 .173.081.086.081-.344 0-.861 0-1.12-.081 0-.081.173-.081 0-.081 0 .162-.43 0-.517.081 0 .081.173 0 .173.081-.259 0-.173.081-.345.162-.259-.08-.862 0-1.034 0 .086.081.258 0 .345.081-.087.081 0 .162-.087.162-.086 0-.344 0-.43.081.172 0 .258.081.086.081.43 0 .603-.08 1.12-.08 0-.082 0-.082.086-.082h.259c0 .081-.259 0-.259.162.172 0 .603-.08.517 0h.259c-.087-.162.603-.08.43 0 .259 0 .604 0 .604.081-.345 0-.517 0-.776.081.086 0 .086.081.259 0-.087-.08.086-.08.172-.08 0 .08.258 0 .258.08 0 .081.087.081.087.081-.259.081-.517 0-.69 0 0 .081.259 0 .345.081 0 0-.172 0-.172.081.086.081.344 0 .43 0-.086 0-.344 0-.344.081-.173 0-.345-.08-.431-.08.086.08-.259.08-.259.242.259-.08.517-.243.776-.08.258 0 .603-.082.775 0-.086 0-.258.08-.258.161.086.082.345-.08.517 0-.086 0-.086 0-.086.082.172 0 .172-.082.258-.082.086 0 .259.082.086.163-.603-.081-1.12 0-1.81-.081.346-.082.863.08.949-.082-.259.082-.345-.08-.431.082-.172 0-.259-.163-.43-.082.171 0 .085.082 0 .082H7.94c0 .08-.43.08-.43.162.43-.162 1.034 0 1.378.08.173 0-.086-.08 0-.08s.086 0 .173.08c-.087.082.086.082.172.163-.259.08-.172-.081-.345-.081-.086 0-.258.08-.344.08 0 0 .086 0 .086-.08h-.173c0 .08 0 .08-.086.08-.086-.08-.172-.162-.43-.162 0 0 .086.082 0 .082-.173-.081-.431 0-.604-.081-.086.08-.258 0-.344.08 0-.08-.431 0-.431-.08h-.086c0 .243.689.08.861.162-.258 0-.172.08 0 .08-.344.163-.861-.161-.861 0-.087 0-.431-.08-.431-.08.258 0 .086 0 .086.08.086.082.258-.08.43 0 0 0-.344 0-.172.082.173 0 .173 0 .345-.081.086 0 .086.08.172.08.087 0 0-.08.173-.08.086.243.69.08 1.034.162-.69.08-1.379.08-1.81.08.086 0 .086 0 0 .082h-.172c0-.081 0-.081-.086-.081-.173.08-.259-.081-.431-.081-.345.08-1.292.08-1.637 0-.259 0-1.12.08-1.379-.081v.08c-.258 0-1.034-.08-1.034-.08s.086.08 0 .08-.086-.08-.258-.08c-.259.162-.603-.081-.862 0 .086.08.259 0 .172 0h.259c-.172 0 0 0 0 .08H.704c0 .163.517 0 .775 0 .259 0 .172.163.43.163 0-.081-.085-.081-.085-.081.172 0 .517-.081.603 0-.172 0 0 .08.086.08.086-.08.172 0 .345-.08-.086.08.258 0 .086.162.258 0 .086-.081.258-.081.173.08 0 0 .173 0 0 .08.172 0 .086.08.258 0 .43-.08.603 0 .086 0 .086-.08.172-.08.173 0 .431.08.69 0 0 .162.775.162.947.243v-.081c.173 0 .087.162.259.08 0-.08-.172 0-.172-.08.258 0 .689-.081.947-.081-.172 0-.258.08-.172.08.086 0 .172-.08.345-.08-.086 0 0 .08-.086.08.258 0 .517-.08.775 0 0 0-.086 0-.086.082-.345 0-.948-.081-1.034.08.345-.08.775.082 1.206 0 0 .163.69-.08.776.082.517-.081 1.378-.081 1.81 0 0 0-.087 0 0 .08.085 0 .258 0 .258-.08-.086 0-.086 0-.086-.081h.603l-.086.08c.258-.08.344.082.603 0 0-.08-.173-.08 0-.08 0 .08.172.08.172.08.086 0-.086-.08.086-.08.345 0 .345 0 .603-.081 0 .08.345.08.173.162.344 0 .344.08.517-.081-.087.08.086.08 0 .162h.172c0-.081-.172-.081 0-.162.517 0 1.206.08 1.55-.081v.08h.26c0-.08 0-.08.172-.08-.087.08.086 0 .086.162-.172.08-.43 0-.69 0-.086.162-.775.08-.861 0 .258.162.948.08 1.12.08.345.082.603.082.948.082-.086-.081.086-.081.172-.081 0-.081-.086-.081-.086-.162-.172 0-.086.08-.258.08.086-.08-.259-.08-.173-.161.259 0 .603.08.603 0h.259c-.086 0 0 .08-.086.08.258 0-.087-.08.258-.161.086 0 .086.08.172 0 .173.08-.086.162 0 .162 0 0 .345-.081.345 0 0 .08 0 .08-.086.08.086-.08-.259 0-.43 0-.087 0-.087-.08-.173-.08 0 .08-.259 0-.345 0 .086.162.345.08.431.08 0 .082-.172 0-.258.082.172 0 .43-.081.517 0 0-.081.344 0 .258-.081-.172 0-.259.08-.259 0 .173-.081.345 0 .517 0 .087-.081-.172 0-.086-.081h.087c.258 0 .344 0 .516.08.173 0-.086 0-.086-.08h.173c.086 0 .172 0 .172.08 0 .082-.172 0-.172.082h.43c.087 0 .087-.081.259-.081.086 0 .086.08.172.08.087 0 .345-.08.603 0 .087-.08.173-.08.259-.08-.259 0-.345.08-.43 0 .085 0 .085 0 .171-.081-.086 0-.172.08-.258.08 0-.161-.345 0-.345-.08 0 0 .087-.081 0-.081-.258.08-.689.08-.861 0 .086.162-.517.08-.345-.081-.259 0-.086.08-.259.08 0-.08-.086-.08-.086-.08.431-.162.69-.081 1.12.08.345-.08.431 0 .604-.08v.08c0-.08.517-.08.344-.08-.086.08-.43 0-.43 0h.775c-.086.08 0 .08.086.08 0-.08.086-.08.172-.08.259.567.517 1.053 1.465 1.053 1.465-.081 1.896-.486 1.896-.972h.603c.086 0 .517-.081.776-.081 1.895 1.053 5.686 1.944 8.874 2.187 1.81-.162 3.706 0 5.687.244a.68.68 0 00-.43.162c-.087.162-.345.162-.517.162h-.345c-.517-.082-.69-.082-.776.08-.172.244-.43.082-.689.163-.345.08-1.034.08-.862.405 0 .08-.172.162-.258.243-.086.08-.086.162 0 .243.258.162.603.405.948.567.086.081.258.081.43.081.345 0 .69 0 1.035.081.258.243.775-.08 1.033.162.604-.08 1.207.081 1.81.162.345 0 .603.162.948.162.344 0 .689.081 1.034 0 .344 0 .603.162.948.162.172 0 .258-.08.344 0 .086.081-.172.243-.43.243H42.32c-.086 0-.258 0-.345.081-.172.081.087.162.087.243.086.163.086.325.172.406.172.162.258.243 0 .405-.172.08-.172.324-.517.324-.173 0-.517 0-.603-.081-.086-.081.172-.081.258-.081.086 0 .086-.081.172-.081-.344-.081-.689-.243-1.033-.243-.431-.081-.948-.081-1.38-.081-.085 0-.085 0-.171-.081.086 0 .172-.081.172-.081h1.034a.68.68 0 00.43-.162c.087-.081.173-.325-.085-.325-.345-.08-.604-.324-1.034-.243-.517 0-.862-.162-1.293-.162-.517-.08-1.034 0-1.55-.162h-.087c0 .081-.086.162-.086.162.086.081.172.162.344.243.259.081 1.465.162 1.896.162.086 0 .172.081.172.081v.081c-.086.163-.258.244-.43.406-.087.08-.259.08-.259 0-.086-.243-.258-.324-.69-.324-.602 0-1.12-.082-1.292-.406-.689-.243-1.292-.486-2.068-.567h-.344c-.086 0-.086.081-.173.162 0 .081 0 .162.087.162.258.081.517.243.861.324 0 .243.431.243.69.325.172.08.517.162.689.243.086.08.086.243.43.162.345-.162.776 0 1.207-.162.172-.081.172.08.258.162 0 0 0 .08.087.08.258.082.517.082.775.163.259.08.086.324.517.324.172 0 .345 0 .517.08.086 0 .086 0 .172.082-.086 0-.086.08-.172.08-.603 0-1.292.082-1.895-.08-.259-.081-.517-.081-.862-.081-.69 0-1.379 0-2.068-.162-.345-.081-.776 0-1.206 0-.087 0-.173.08-.173.162 0 .08.086.162.086.162.431 0 .862.162 1.207.243.086-.081.172-.162.43-.162.173 0 .259.08.259.162v.162h.69v.081c.602.162.947.162 1.378-.081.086-.081.172-.081.258-.081a3.09 3.09 0 001.38.324c.085 0 .344.081.344.162.172.243.517.324 1.034.324h1.378c.259 0 .431-.08.517-.162.345-.324.345-.243 1.12-.162.517.081.862.243 1.38.324.258.081.43.081.602 0 .173-.08.259-.08.431 0 .172.081.345.243.603.243.086-.162 0-.324.431-.324.862-.405.862-.486.948-.486.172 0 .172.081.258.162.173 0 .345-.081.345-.162.086-.081-.086-.162-.258-.243h-.862c-.086 0-.172-.081-.172-.081.086 0 .086-.081.172-.081h1.895c.69 0 1.38 0 1.982-.162.173 0 .259-.162.431-.081.345.162.603.08.948 0 .258.162.69.162 1.12.162.776 0 1.551 0 2.327.08.258 0 .603 0 .861.082.345.162.776.162 1.206.162 2.068 0 4.222.081 6.463.162.43 0 .43 0 .517.324 0 .081.086.081.086.162.086 0 .172-.08.258-.08.345-.163.948-.244 1.293-.163v.081s-.086.081-.172.081c-.517 0-.948 0-.862.405 0 .162-.259.243-.345.405-.086.081-.258.081-.43 0-.087-.08-.26-.08-.26 0 0 .081 0 .162-.085.243.861 0 1.723.163 2.498-.08.173-.082.604 0 .862.08.345.163.776.163 1.12.244.087-.163.173-.081.173 0 .258 0 .43.08.689 0 .258-.163.69-.244.775-.487 0-.08.087-.08.173-.162.086.081.086.162.172.243.172.081.345.162.603.081.086 0 .259-.08.259-.08.258.08.69.161.775.324.173.242.259.161.517.08.259-.08.173-.324.603-.405 0 0 0-.08.087-.08.344-.244.775.242 1.206 0 .086 0 .172.08.172.08.086.081.086.162.086.162.69.081 1.293.325 1.982.487h.172c.087 0 .087-.081 0-.163-.086 0-.086-.161-.086-.161a4.98 4.98 0 011.551 0c.259 0 .086 0 0 .08-.258.163-.172.244.259.244h.69c.258 0 .516-.243.775-.081.344.243.603 0 .947 0 .259 0 .431.08.69.08.086 0 .258.082.258 0 .345-.162.603-.08.948 0 .086.082.345.082.517.082.69 0 1.379.162 2.068-.081h.345c.172.08.43.08.603.162.603.243 1.12.243 1.81.08.085 0 .258-.08.344-.08.861.08 1.723-.081 2.585-.162.517 0 1.034-.081 1.292-.325.259 0 .69 0 .862.082.345.162.69 0 .948.08.344.163.689.082 1.034.082.43 0 .689.162 1.12.243h.344c.345 0 .604-.162.948 0 .345-.162.776-.081 1.12-.162.517-.163 1.293-.081 1.724-.406-.086-.08.086.163.344.081.173-.08.345-.324.69-.162.344.163.517-.08.775-.08.086 0 .259 0 .259.08v.163c-.087.08-.173.08-.259.08-.086 0-.172.081-.345.081.087 0 .173.082.259.082h1.896c.258 0 .517-.162.775-.162h1.034c.086 0 .172-.081.259-.081.172 0 .258-.082.258-.082s-.086 0-.172-.08c-.862-.163-1.637.08-2.413.08-.172 0-.345.243-.517.081-.086-.08.172-.162.517-.243.345-.08.689-.162 1.034-.162.776.081 1.465-.08 2.24-.162.086 0 .173-.08.173-.162 0 0-.087-.08-.173-.08h-.172c-.086 0-.172-.082-.258-.082.086 0 .172-.08.258-.08h.689c.431 0 1.034.08 1.293.242.172.162.431.162.775.162.776.081 1.465-.162 2.154-.243.776-.08 1.465-.324 2.327-.243a4.82 4.82 0 002.24-.324c.172-.081.345-.162.603-.162.173 0 .431 0 .431.081s-.172.081-.345.081c-.086 0-.086.081-.172.081 0 0 1.206.162 1.293.162.086-.08.258-.162.344-.162-.086 0-.172-.08-.258-.08-.086 0-.173-.082-.259-.082.086-.081.173-.081.259-.162.258-.162.517-.081.775-.081.776 0 1.379-.324 2.068-.405.172-.324.776-.486 1.206-.648.259-.162.431-.324.431-.567-.086-.244 0-.487.69-.487.689-.243 1.464-.324 2.068-.648.086 0 .086-.08.086-.162 0 0-.086-.08-.173-.08h-.861c-.259-.082-.517-.163-.603-.325-.087-.081.258-.243.517-.324.258-.081.43 0 .603.08.172.082.431.163.603 0 .172-.08.345-.161.517-.161.603-.081.517-.243.345-.405-.087-.081.344-.243.258-.324-.345-.243-.172-.487-.172-.81 0-.163 0-.325-.173-.406-.258-.243-.258-.405.431-.486.086 0 .172-.08.172-.162 0-.162 0-.324.087-.486 0-.162-.173-.243-.517-.324-.173 0-.173-.081-.086-.162.086-.081.258-.162.172-.243-.259-.162 0-.324.086-.567.086 0 .258-.162.258-.243 0-.162-.172-.324-.344-.487-.259-.162-.172-.405-.086-.648l.172-.08c.345.161.431.08.517-.082.086-.324-.086-.567.258-.891.087-.081-.258-.405-.517-.486-.516-.081-.344-.243-.172-.405l.086-.081c-.258-.162-.258-.324-.258-.405.172 0 .258 0 .431.08.172.082.344.244.517.244.344.08.344-.325.43-.486.173-.244.431-.487.604-.73.258-.243.43-.243.775-.08.517.161.948-.325 1.551-.163.086 0 .172-.08.259-.162v-.162c0-.08-.087-.324-.173-.324-.603-.081-1.206-.243-1.723.162-.259.162-.431.081-.689-.081-.173-.081-.431-.162-.517-.162-.173.243-.431.243-.69.324 0-.08 0-.162-.172-.243-.517-.243-.603-.567-.431-.81h1.379c.258 0 .431-.243.603-.405.086-.081.172-.243 0-.324-.172-.163-.345-.325-.603-.406-.259-.08-.517 0-.69 0-.172 0-.43 0-.517-.08-.172-.163-.43-.325-.516-.487 0-.162.258-.486.43-.486.517-.08.948-.08 1.465-.08.345 0 .517-.163.603-.568.173-.486.69-.648.776-1.215.086-.405.086-.649-.259-.81a11.32 11.32 0 00-.861-.244c.086-.729-.345-.567-.776-.648-.345 0-.517.243-.862.324-.258.162-.517-.243-.775-.243-.086 0-.258 0-.345.081a1.52 1.52 0 01-.861.243c-1.293 0-2.585-.162-3.792.324h-.172c0-.08.086-.08.172-.162 0 0 .087 0 .087-.08.517-.082.947-.163 1.464-.244.087 0 .173 0 .345-.08h-.086c.345-.082.603-.244.862-.406-.087-.324-.173-.567-.345-.73.775-.08 1.465-.323 2.154-.647h.172c.259-.081.431-.243.69-.243.258-.081.43.405.775.08.172-.161.345.244.603.244h.517c.086 0 .086-.081.173-.081.344-.243.603-.649 1.034-.73.086 0 .086-.162-.087-.243-.172-.08-.43 0-.344-.243 0-.162.344-.405.344-.405.431.243.862-.243 1.121-.08.517.404.775.08.947-.325.087-.405.345-.486.69-.486h.517c.086 0 .172-.162.172-.243l-.086-.162-.776-.486c-.517-.324-1.206-.405-1.292-1.216 0-.08-.259-.162-.431-.243-.172-.08-.431-.08-.517-.162-.086-.162-.172-.486-.086-.729 0-.243.172-.405.258-.648-.344-.081-.517-.486-.775-.648-.345-.243-.862-.081-1.206-.406a.308.308 0 00-.517.244c-.087.324-.259.405-.517.405-.517 0-.948.567-1.551.486 0 0-.173.162-.173.324 0 .08.087.243.173.324.172.162.431.243.603.324.172.162.258.405.344.648 0 .243-.086.567-.344.567h-1.12c-.345 0-.517-.243-.345-.648.259-.567.172-.567-.258-.891-.173-.081-.259-.243-.431-.405-.173-.162-.259-.324-.603-.081-.517.324-1.121.324-1.551.08-.604-.404-1.379-.08-1.896-.404-.689-.405-1.292-.081-1.982-.243h-.517c-.172 0-.431-.081-.517-.162-.431-.486-1.034-.649-1.637-.568-.689-.567-1.465-.567-2.24-.162-.086 0-.259-.162-.431-.243-.172-.162-.086-.324.086-.324.345-.08.69-.486 1.12 0h.173c.344-.324.603-.324.947 0 .087.081.259 0 .345-.08v-.163c-.258-.891-.431-.972-1.292-.729-.776.243-1.551.324-2.671 0-.259-.081-.517.324-.776 0-.172-.162-.345.081-.431.162-.172.081-.344.081-.517-.081-.258-.243-.517-.243-.775 0-.259.243-.603.243-.862.162-.689-.162-1.292-.648-1.982 0-.086.081-.344-.081-.517-.162-.344-.243-.775-.243-1.034-.081-.689.405-1.378.243-2.154.324-1.206 0-2.412.081-3.705 0-.344 0-.69.081-1.034.243-.43-.405-.775-.243-1.12.081-.775-.243-1.379.486-2.154.405-.43 0-.862.081-1.293 0-.517-.08-.861.405-1.378.405-.259 0-.603 0-.862.162-.603.325-1.206.325-1.723.081-.43-.243-.775-.243-1.206-.08-.603.243-1.12.648-1.81.243-.086 0-.258.08-.344.08-.431.325-.776.325-1.207 0-.258-.243-.603-.324-.861-.161-.517.405-1.034.324-1.551.324-.517 0-.948 0-1.379.243-.517.243-1.206.243-1.723-.081a1.394 1.394 0 00-1.379 0c-.258.162-.43.162-.69.162-.344.08-.43-.486-.775-.162-.344.243-.689.162-1.034.162H60.933c-.345 0-.776-.081-1.034.162-.345.243-.776-.324-1.12.162h-4.223c-.344 0-.689-.081-.861.08-.431.325-.948.244-1.379.244-.345 0-.775-.081-1.12.08-.603.325-1.206.244-1.81.244h-1.895a5.94 5.94 0 01-1.81-.81l.604.324c.086.162-.345.243-.69.324.086 0 .086.081.173.081h-4.05c-.517 0-1.034 0-1.637.243-.517.243-1.207.081-1.81.081-1.034-.648-2.154-.243-3.274-.243-.69.486-1.379.324-2.154.324-.517 0-1.206-.081-1.637.162-.086.081-.172.081-.345.162-.69-.162-1.723-.405-3.446-.567-3.102.405-6.807.972-10.512.81-1.293-.08-2.5-.648-2.327-.972a62.58 62.58 0 01-5.514 0c-7.066 1.296.861 2.43 3.532 2.593zm3.878 9.075c0 .081-.173 0-.173 0s.173 0 0-.08c0 0 .173 0 .259-.082.172.081-.259.081-.086.162zm1.206.081h-.259c.087-.08.173-.08.259-.162.172.081 0 .162 0 .162zm.517 0c.086-.08-.172 0-.259 0-.086 0 .087-.08-.086-.08 0-.082.259 0 .259-.082.172 0 .086.081.172 0 .086 0-.086 0 0-.08h.172s-.086.08 0 .08c.173-.08.087-.08.345 0 0 .081-.172.081-.258.081h.172c-.172.162-.259.081-.517.081zm.776.081h-.173c0-.08.086-.08.173 0 0-.08-.087-.162.086-.08v.08c0-.08-.086-.08-.086 0zm-.862.892c-.173-.081-.345 0-.431-.081.258 0 .43-.081.517 0 0 0-.172 0-.086.08zm-4.998 5.833c.259.081-.172 0 0 0-.086.081-.258 0-.43 0h.172c.086 0 0-.08.086-.08s0 .08.172.08zm-.258-.243c.086 0 0 0 0 0 .172-.08 0 .081-.259 0 0 0 .259.081.259 0zm-.431-.08c.086 0 .086-.082 0 0 .172-.082.086 0 .172 0h-.344.172zm-.172.323c0 .081-.173 0-.431 0 0-.08.345 0 .43 0zm-.173.081c.259 0 .259 0 .431.081 0 .081-.172 0-.258 0-.259.162-.517 0-.862.081-.086-.08-.172 0-.345-.08.259-.082.862 0 1.034-.082zm-1.12.081c0 .081-.086.081-.172.081s-.086-.08-.086-.08h.258zm-3.36.649c-.086-.081 0-.081 0-.162.258 0 .172.08.43 0 .087.08-.172 0-.172.08 0 .082.345 0 .259.082h-.517zm-3.964.486c0-.081.173-.081.259-.081.086.08-.086.08-.259.08zm1.896 0c.172-.081.258 0 .43 0v.08c-.172 0-.344 0-.43-.08zm2.67-.567h.26c.086.08-.26.162-.26 0zm.432.486c-.086-.081.344-.081.258-.081.086.08-.172 0-.258.08zm.861.162c.087-.081.345 0 .431 0 0 .08-.344 0-.43 0zm-.086-1.216c.086 0 .345 0 .431.081-.172-.08-.345 0-.43-.08zm.431-.972c.086-.08.086-.08 0-.162.258 0 .345.081.43 0 .173 0 .432.243.087.243.086-.162-.43 0-.517-.08zm.258.162c0-.08.259 0 .173-.08h.258c0 .161-.344.161-.43.08zm.173.81c0-.08.258 0 .345 0 0 .081-.259.081-.345 0zm1.465.567h-.69c0-.08-.172-.08-.344-.08-.086 0 .258 0 .086-.081.172 0 .258.08.43 0v.08c.173.081.26.081.518.081v-.08c.086 0-.087.08 0 .08zm.258 0c-.086.082-.086-.08-.172 0 0-.08.258-.08.345-.08.172.08-.345 0-.173.08zm1.206.082c-.086-.081 0-.081.087-.162.172 0 .258 0 .258.162-.172-.081-.258 0-.345 0zm.431-.081c.086-.081-.172-.081-.172-.162.345.08.69.162 1.034.162-.172.08-.603-.081-.862 0zM37.41 31.11h-.431v-.081c.086-.081.172-.081.345-.081.086 0 .086 0 .086.08.086 0 0 .082 0 .082zm3.877-.162c.258 0 .43-.081.517-.081.43 0 .603 0 .776.162v.08c-.087.082-.173.082-.173.082-.172 0-.258-.081-.43-.162-.26-.081-.604.08-.69-.081zm1.551.567s-.172 0-.258.081c0 .081-.087.081-.087.081-.086 0-.172 0-.086-.081.086 0 .173 0 .259-.081v-.081s0-.081.086-.081c0 .08.086.162.086.162zM128.055 5.02s.086.081.086.162v.162h-.173c-.086-.162-.086-.243.087-.324zM21.814 15.231c-.086 0-.086-.082 0 0 0-.082 0-.082 0 0 1.378-.163 1.81-.568 1.895-.973.259 0 .604 0 .776.081.172 0 .43-.162.517 0 .172 0 .086-.081.259-.081.086 0 0 .162.086.162 0-.081.172 0 .258-.081.086.081.345.081.43.162-.171 0-.516.081-.344.162.173-.162.431-.162.776-.162.086 0 .258.081.344.081 0 0 .087 0 .087.081h.086c.086 0 .172.081.258.081v.081h-.172c0 .162.258.162.517.162-.086 0-.086.081-.172.081h-.776c-.086.081 0 .081.086.081-.086.081-.258.081-.43 0 0-.08 0-.08.086-.162h.172s0-.08-.086-.08h-.086c0 .08 0 .08-.087.08 0-.08 0-.08.087-.162h.086c.172 0 .258-.08.43-.08.087-.082-.086-.082.087-.082-.173 0-.345 0-.173.081h-.43s-.173-.081-.259-.162c0 .081 0 .081-.086.162-.172 0-.345 0-.43.081h.171s.087-.08.259-.08c0 .08 0 .08-.086.161h-.086.086-.173.173l.086.081c-.259 0-.43 0-.603.081.086 0 .258 0 .43.081H23.71l.087-.08c-.173 0-.259.08-.517.08 0 0 0-.08-.087-.08h-.172c0 .08.172 0 .172.08-.258.081-.689 0-1.034.081-.086-.08-.344-.08-.43-.08-.086.08.086.161-.086.161.086.081-.173 0 .172-.08zm-3.188 2.268c0-.081.172 0 .172 0s-.172.08-.172 0c-.086 0 0 0 0 0 .086 0 0 0 0 0zm.086.08c.172.082.517 0 .69-.08.085.08.172.08.344.162 0 0-.086-.081 0-.081.172 0 .172.08.345.08 0-.08 0-.08.086-.08.172.243.344.324.517.486-.259.081-.517 0-.69 0-.172 0 .087.081 0 .081-.517-.081-1.034-.243-1.378-.486l.086-.081zm6.807.325h-.086.086zm-.603-.81h-.259v-.081c.087 0 .259 0 .259.08zm-3.447-1.702c.086 0 .086.081.173.081 0 0-.259-.08-.173-.08zm-.69.162c0-.08.087-.08 0-.162.173 0 .432 0 .432.081-.345-.08-.259 0-.431.081zm-1.636 1.135c.086 0 .172-.081.258 0 0 .08-.172 0-.172.08.172 0 .172.082.345 0 .086-.161.775-.161.689 0 .172-.08.345-.08.086-.08.172 0 .517 0 .43-.081 0 .08.173 0 .173.08 0 .082-.258 0-.258.082 0 .08.344 0 .344 0-.172 0 0 .08-.172.08.086-.08-.086-.08-.172 0 .086-.08 0-.08-.173-.08.173.08.087.08-.086.162h.862c-.086 0 .172-.081.172-.081.345-.081.517.08.862 0-.086 0 0 .08 0 .08H21.9c.086 0 0 0 0 .082h.259s-.087.08-.087.162h-.086s0-.081-.086-.081-.345 0-.258.08c.344-.08.172.082.344.163v.08h-.344c.086 0 .086 0 0 0-.173 0-.259 0-.345-.08 0 .08 0 .08-.172.08 0 .082.086.082.086.082h-.431c-.086 0-.172-.081-.172-.162l-.087-.081c.345-.081.776 0 .948 0-.086-.081-.344 0-.43-.081.344 0 .516.08.689.08 0-.08-.259-.161-.431-.161-.086-.162.43-.081.517-.162-.259 0-.517.08-.69.162-.172-.081-.344-.081-.689-.081.173.08.086 0 .086.162.087 0 .173-.081.173 0 0 .08-.259.08-.259.08-.086 0-.172-.08-.258 0h-.086c-.087 0-.087-.08-.087-.08h.431c-.086-.081 0-.162-.172-.162 0 .08.086.08.086.08-.172 0-.43 0-.43-.08 0 .08-.604 0-.345.08H19.4v-.161c-.172-.081-.258-.162-.258-.243 0 .08-.086 0 0 0zm0 .08c-.086.082-.172 0-.172.082h-.431c.086-.081.344-.081.603-.081zm-.345 0c-.258 0 .086-.08.173-.08 0 .08-.087.08-.173.08h-.345c0-.08.173 0 .345 0zm.345.406c0-.081-.086-.081 0 0 .086 0 .258-.081.43-.081 0 .08 0 .08.173.08-.086-.08.258-.08.258 0v-.08c.087.08-.258.08-.086.08h.173l-.087.082c-.086 0 0-.081-.172-.081 0 .08-.258.162-.345.08 0-.08.173 0 0-.08-.086.08-.344 0-.344.162-.259-.081-.259 0-.517 0-.086.08 0 .08 0 .08h-.173l-.258-.242c.172-.081.69-.081.948 0zm-3.791 2.674c0 .162-.259.08-.517.08.086-.08.43-.08.517-.08zm-1.465.08h-.173v-.08h-.086c.086-.082.345 0 .259.08.344-.08.69 0 1.034.082-.259 0-.603.08-.948.08 0 0 .172 0 .086-.08-.086 0-.172 0-.172-.081zm-.69 1.702h-.258.258c.087 0 .087 0 0 0zm.087-.081l.258-.081c.086 0 .086 0 .086.081-.086 0-.258.081-.344 0zm2.068.324c-.087-.08-.173-.08-.087 0-.172-.08-.603 0-.689-.08 0-.082.086-.082 0-.163.259-.081.69-.081 1.034-.081 0-.081-.086-.081-.086-.081 0 .081 0 .081-.172.081-.087-.081-.087-.081 0-.081h-.259.172c0-.081-.43-.162-.517-.081.087 0 .087 0 .173.081-.086 0-.086 0-.173.081-.172 0-.086-.081-.172-.081-.086.081-.086-.081-.086-.081s-.086.081-.172.081v-.081l.344-.081s0 .081.086 0c.517.081.862.162 1.12.243-.086 0-.172.081-.258.081.172 0 .43.081.603.162v.162h-.086s.086 0 0-.08c-.43 0-.172-.163-.603-.163-.086 0-.086.081-.259.162.259-.08.173 0 .087 0zm-.517.972s0 .081 0 0c-.087.081-.087.081-.173.081 0-.08.086-.08.173-.08zm-.173.325c.173 0 .086.08.259 0 .086.08-.345.08-.259 0zm2.93.81c-.086.08-.259 0-.259-.081.259 0 .173.08.259.08zm6.204-1.297c0-.08.086-.08.172-.162v.162h-.172zm34.638 5.429c0 .081 0 .081 0 0s.172-.162.258-.162c.345 0 .69 0 1.034.08.086 0 .086.082.086.163.087 0 .173 0 .173.081.086.081 0 .081-.086.081v-.162c-.087 0-.173 0-.259.081-.345.162-.603.162-.862 0-.086-.081-.172-.081-.344-.162 0 .081 0 .081 0 0 0 .081 0 .081 0 0 0 .081 0 .081 0 0l-.173.162c-.086 0-.172 0-.086-.081.086 0 .173 0 .259-.081 0 .081 0 .081 0 0zm1.81 1.782h.085c.087 0 .173.082.259.082.086 0 .086.08.086.162h-.258c-.173 0-.345-.081-.259-.162 0 0 0-.082.086-.082zM39.821 26.33c.173 0 .259 0 .431.082v.08c-.086 0-.172 0-.258-.08-.087-.082-.173-.082-.173-.082zm4.48 4.943c-.43.08-.688-.162-1.12-.243-.086 0-.086-.081-.086-.081.087 0 .173 0 .345-.081.172 0 .259-.081.259-.162h-.431c-.086 0-.086 0-.086-.081 0 0 .086-.081.172-.081h.43c-.085-.081-.171-.162-.171-.243-.087-.081-.087-.162-.087-.162.259-.244.603-.406 1.12-.487.087 0 .173.081.259.081-.258.162-.43.244-.172.487.258.162.517.243.947.243.087 0 .087 0 .173.08h.086-2.068v.163c.43.08.603.243.862.405l.086.08c-.259 0-.431.082-.517.082zm2.5.08l-.087.082h-.086c-.172-.162-.258-.243-.43-.324-.26-.162-.345 0-.345.08l-.173.082c0-.081-.086-.081-.086-.162 0-.324.086-.324.862-.324.43 0 .517.08.517.243-.086.08-.172.243-.172.324zm2.757-.161h-.086c-.087-.081-.087-.081.086 0 0-.081.086-.081.086-.081l-.086.08zm.603-1.053c-.086.08-.172.162-.43.162h-.69c-.603-.162-1.206-.162-1.81-.243-.086 0-.172-.081-.172-.081 0-.082 0-.163.259-.244.258 0 .43-.08.43-.162-.344-.08-.689-.324-1.206-.08-.258.08-.69 0-1.034 0-.086 0-.172-.082-.172-.163-.086-.08.086-.162.258-.162 1.293 0 2.585.081 3.878.081.258 0 .43.081.43.243 0 .081.173.162.259.243.086 0 .258.081.258.162 0 .082-.172.163-.258.244zm11.374.972c-.173 0-.431-.081-.604-.162-.258-.081-.516-.081-.861 0-.086 0-.259.08-.259.08-.775-.323-1.723-.08-2.584-.161-.517-.081-1.12 0-1.724-.162-.344-.081-.948-.081-1.378-.081-.948 0-1.896 0-2.671-.243-.259-.081-.69.08-.862-.162.344-.162.69 0 1.034-.081h2.242c.344 0 .688 0 1.033-.081.258-.081.603-.081.775 0 .259.162.517 0 .69 0l.775.243c.259.08.517.08.862.08.345.082.69-.161.948-.08.344.162.775.08 1.206.08h1.034c.345 0 .603.082.776.163.086.08.172.162.172.243 0 .324-.345.324-.603.324zm6.031 1.54c-.172.08-.344.242-.603.08-.172-.08-.258.081-.43 0-.087 0-.26-.08-.173-.08 0-.082.086-.163.172-.244h.948c.172.162.172.162.086.243zm1.81-.487h-.087c-.086 0-.086-.08.087-.08v.08c.086-.08 0-.08 0 0zm.948.567l-.087-.08.087-.082c.172.081.172.162 0 .162zm1.12-.486l-.087-.08.087-.082c.172.081.172.081 0 .162zm.258.324l-.086-.08s.086 0 .086-.082h.086c0 .081 0 .162-.086.162zm1.896-.486s-.086 0-.086-.08c0 0 .086 0 .086-.082h.086c-.086.081-.086.081-.086.162zm7.065.648c-.086.081-.258.081-.43.081-.173-.08-.26-.08-.431-.162.086 0 .172-.08.258-.08.086 0 .172 0 .345-.082h.172c.086 0 .172 0 .258.081 0 .081-.086.162-.172.162zm1.551-1.053s-.086 0 0 0h-.172v-.081a.274.274 0 00.172.081zm2.24 1.863s-.086 0-.086-.08c0 0 .086 0 .086-.081h.087c0 .161-.087.161-.087.161zm1.465-.648l-.086-.08.086-.082c.173.081.173.162 0 .162zm2.757-.324s0 .081 0 0c-.086.081-.086.081 0 0-.086.162-.258.162-.517.162-.086 0-.086 0-.086-.08-.086 0 0-.082.087-.082.172 0 .258.081.516 0-.086.081-.086 0 0 0-.086 0 0 0 0 0l.087-.08h.086c.086.08-.086.08-.172.08zm4.481.892c-.345 0-.775-.081-.948.08-.344.163-.603-.161-.861 0-.259.082-.69.082-.948.163-.345.08-.69.08-1.034.08-.172 0-.345-.08-.345-.161-.086-.162 0-.243.172-.243h.862c.086 0 .086-.082.086-.082l-.086-.08h-.517c-.086 0-.086 0-.172-.082-.086 0 0-.08.172-.08.431 0 .948 0 1.379-.163.258-.08.775-.08 1.034 0 .43.162 1.12.162 1.206.568zm34.294-8.427s.086 0 .086.081c-.086 0-.086 0-.173.081l-.086-.08c.086-.082.173-.082.173-.082zm.43-3.322c0 .081-.086.081-.086.162h-.344l-.087-.08h-.086l.517-.244c0 .081.086.162.086.162zm1.034-2.917c-.086.081-.172.243-.258.243-.086.081-.259.243-.431.243-.172.081-.259 0-.345-.08.086-.163.173-.244.259-.406 0-.08.086-.162.172-.243h.172c.173.162.345.162.431.243zm-3.791-5.428a.08.08 0 01.086.08c-.086 0-.086.082-.172.082s-.086-.081-.172-.081c.086 0 .172-.081.258-.081zm-2.068-5.348c.086.081.172.081.259.162-.087.081-.173.162-.345.162-.086 0-.172-.08-.259-.162.173-.08.259-.08.345-.162zm-.862.405l.087.081h-.173c-.086 0 0 0 .086-.08zm-9.65-5.347l.086.08s0 .082-.086.082h-.086c-.086 0 0-.081.086-.162zm-.775-1.378c.086-.08.172-.08.258.081l-.086.081s-.086 0-.086-.08c-.173 0-.173-.082-.086-.082zm-1.638 8.265c.087 0 .173 0 .259.08-.172 0-.259-.08-.431-.08h.172zm-.603-8.67c.086 0 .086.081.173.081l-.087.081-.086-.08v-.082zm-2.843 7.13l.086.081-.086.081c-.086 0-.086-.08-.086-.08l.086-.082zm-4.136.081c.086 0 .086-.08.172-.08.431-.082.862 0 1.034.485v.162c0 .081-.086.081-.172.081-.259-.08-.517-.243-.689-.324 0-.08-.087-.162-.087-.243-.086 0-.172.081-.258.081h-.086c.086-.08.086-.08.086-.162zm-1.034-.08l.086.08s0 .081-.086.081h-.086c-.086 0-.086-.08.086-.162zm-77.29 4.86l.087.082v.243h-.517v-.081c.086-.081.258-.162.43-.243z" fill="#155B11"/></svg>