<svg width="148" height="35" fill="none" xmlns="http://www.w3.org/2000/svg"><path d="M10.805 6.56c-.514.973-3.522.325-3.228 1.297.073.324.22.648.44.891-.147.405.807.81 1.98 1.054-.146.243-.073.486.661.729.514 0 .807-.081 1.027-.162.22-.081.367-.162.44-.243.514.08.954.08 1.247.08-.513.973-3.448.487-3.154 1.378.146.405.293.81.587 1.053l1.467-.567c3.742.324-1.54 1.216.954 2.107.513-.081.807-.081 1.027-.243 1.247-.486.88-.73.146-1.215 3.449-.163 2.348 2.35 3.962 2.511 0 .081-.22.081-.44.081.073.081-.22.081-.294.081 0 .081-.073.081-.22.081-.146-.08.074-.08.074-.162-.147 0-.367 0-.367.081.22 0-.22.081 0 .162.073 0 0-.08.147-.08 0 .08-.074.08-.147.161-.147 0-.147-.162-.22-.162-.074 0-.294 0-.44.081.22-.08.513 0 .366.081-.146 0-.073-.08-.146-.08-.074 0-.367.08-.294-.082-.146.081-.146.081-.073.162-.22 0-.147-.08-.073-.08h-.147c-.073.08.073.161 0 .161s-.073-.08-.147-.08c-.147 0-.22.08-.44.08-.073-.162-.293 0-.44-.08 0 .08.073.08 0 .08-.074 0-.074-.08-.147-.08 0 .08 0 .08-.073.08h-.074s.074 0 .074-.08c-.514.08-.587.08-.954-.082-.073.081-.293.081-.44.081.073.081-.074.081-.074.081.22 0 .074.081.074.081h.367c0-.08.146-.08.22-.08 0 .08.146.08.22.08 0-.08.293-.08.293-.08 0 .08-.293 0-.22.08.22-.08.147 0 .073.081.514 0 .514 0 .954-.08 0 .08-.073.08 0 .161.074-.162.367 0 .587 0h-.147c.074.082.147 0 .147.082-.073 0 0 0 .074.08.073-.08 0-.08.073-.162.367 0 .954 0 1.1.244-.22-.081-.367.08-.587 0 0 .08-.073.08 0 .08.294 0 .44 0 .734.081-.073 0 0 .082.073.082 0 0 0-.082.074-.082-.074 0-.074.082.073.082 0-.082.147-.082.22 0-.22 0 0 .162-.147.162-.22 0-.146-.162-.22-.081.074 0 0 .08.074.08-.074 0-.22.082-.294 0 .074-.08 0-.161-.073-.161.073.08.073.162 0 .162-.22 0-.44.08-.44-.081.073 0 .073-.081.073-.081-.147 0 0 .08-.147.08h-.146c.073.082.146-.08.22 0-.147 0-.147.082-.294 0 0-.08-.073-.08-.073-.162.147 0 0-.08 0-.08s-.293 0-.147.08h.073c-.073 0 0 .082-.073.082s-.146 0-.22-.082c0 0 .147 0 .147-.08-.147-.081-.367.162-.44 0h.22c-.147-.081-.294 0-.44-.081 0 .08 0 .08-.074.08 0-.08-.146-.08-.293 0-.074-.08 0-.08-.074-.08 0 .08-.22.08-.22.08.074 0 .074 0 .074.081-.074.082-.074 0-.22 0 0 .082.22 0 .22.082-.22 0 0 .08 0 .08-.074.082-.22 0-.294-.08.074.08-.073.162.074.162.073-.081.146 0 .293-.081 0 .08 0 .08.073.08.074-.08-.073-.08.074-.08.367 0 .146.243-.147.243.147.08.073 0 .22 0-.147.08.074.08.147.08-.073.082-.44 0-.44.082h.66c-.073 0-.073.08-.147.08H13.96c-.073 0-.22.082-.22 0 .22 0-.073 0 0-.08h-.147c.294 0-.22.08 0 .08 0-.08.147 0 .147 0-.22 0-.293-.08-.513-.08 0 .08 0 .08-.074.08-.22 0-.513 0-.733-.08h-.074c-.367 0-.807-.081-1.174-.081.074 0 .147 0 .074-.081-.073 0-.147 0-.22.08-.147 0-.294 0-.367-.08-.22 0-.44.08-.66.08 0-.08 0-.08-.074-.08h-.146c.073 0 .073.08.146.08-.293.082-.587.082-.807.163h-.146c-.514.162-.734.324-.807.486h-.147l-.073.08h.146c-.073.163.074.325.367.487H7.43c0-.081-.073-.081 0-.081-.147.081-.367.081-.514.081 0 .081-.073.081-.22.081 0 0 .074 0 0-.081H6.55v-.081c-.147 0-.22-.081-.22 0 .073-.081-.147 0-.074-.081-.147.081-.22.081-.44.081 0 .081 0 .081-.073.081.073-.081-.294-.081-.367 0v-.081h-.734c.074.081-.22.081-.367.081 0 0 0-.081.074-.081-.074.081.22.081.146 0-.22 0-.146-.081-.22-.081-.073.162-.146.081-.073.243.147 0 .514-.081.44 0 0-.081-.073 0-.147 0H4.13c0 .081-.074.081-.074.081.074 0 .074.081.147.081 0-.162.367 0 .587-.08 0-.082.587-.163.807-.082H5.23c.073 0 0 .081.073.081.074 0 .294 0 .22-.08.074.08.22 0 .294 0-.073-.082.147-.163.147-.082H5.89c.44.162.954-.081 1.394.081.074 0-.073-.081 0-.081.22.081.587-.081.88.081v-.081h.294c.073.081.147.081.22.162-.147 0-.293-.08-.367 0 0 .081.294.081.367 0 1.174.567 3.448 1.134 4.622 1.215l-.073.081h-.22c0 .081.146 0 .146.081l-.073.081h-.22c0-.08 0-.08-.073-.08.073.243-.734.08-.954.243l.073-.082h-.147c-.073 0 .074.082 0 .082-.146 0-.073 0-.073-.082-.147 0-.073.082-.22.082 0-.163-.22 0-.293-.082-.074.082-.22 0-.367 0-.074.082.22 0 .22.082-.074 0 0 .08-.074.08.074.082.074.163.22.163 0-.162.147 0 .22-.081v.08c-.806 0-1.54 0-1.467.568v.08h-.146c0 .082.073.082 0 .082h.146v.08c-.073 0-.146 0-.146.082h.146l.22.486s-.073 0-.073-.081c-.073 0-.147 0-.22.081.147 0 .147.081.293.081l.22.243c-.366 0-.806.081-1.173 0 .073 0 0 .081.073.081a.573.573 0 01.514 0c.293-.08.733-.08 1.027-.08 0 .161.44.161.367.242.146 0 .293-.08.366 0-.146 0-.073.081-.22.081.074 0 .22.081.367 0 0 .081-.073.081.073.081.294 0 .734-.08 1.028.081-.074 0-.147.081-.147.081h-.294c.147 0-.22 0-.146.081.146 0 .146.162 0 .162-.074 0-.147-.08-.147-.162-.073 0-.22 0-.22.081.22-.08.073.081.146.081 0 0 .074-.08.147-.08 0 .08.074.08.074.08-.074.081-.147.081-.147.162-.073.081-.22.081-.294.081 0 0 0 .081.074.081-.367.082-.734.163-.954.082-.147 0-.367 0-.44.08.147 0 .147.082.293.082-.146 0-.22.08-.293.162-.074-.081-.294 0-.367-.081-.073-.081.22 0 .147-.081-.44-.162-1.174 0-1.688-.081.074-.081.367.08.44-.081-.146-.082-.366 0-.586-.082-.074-.08.073-.08.22-.08 0 .162.587 0 .44.242.22-.08.44-.08.587 0 .073 0 0-.08.147-.08 0 .08-.074.08-.074.08.22-.08 1.027-.08 1.247-.162 0 .082.074.082.074.082 0-.082.146-.082.146-.082-.146 0-.146-.08-.22-.08 0 0-.22.08-.22 0 0-.082.147 0 .147-.082-.22 0-.44.162-.514.081.147 0 .074-.08.147-.08.22.08.514-.082.587-.082-.293 0-.22-.08-.367-.162.147 0 .074.081.22 0 0-.162-.146-.162-.22-.243.147 0 .074-.08.147-.08-.147 0-.367 0-.22-.082-.147 0-.293.081-.367 0 .073-.08.367 0 .294-.08-.66.323-1.1-.325-1.761-.082.073-.08-.073-.08-.22-.162.073-.08.147-.162.293-.243h.22c.147 0 0 .081.147.081 0 0 0-.081-.073-.081h.587c.073-.081.146-.081.073-.162-.293.081-.44 0-.66.081.073-.081-.147-.243-.22-.081h.146v.081c-.146 0-.293.081-.293 0h.147c-.147 0 0-.081-.147-.081-.073.081-.44.081-.514 0v-.081c.22 0 .294-.162.22-.081-.293-.081-.44.162-.44.243-.146 0-.073-.081-.146-.081 0 .081-.22.081-.294.162.073 0 .147.081.073.081-.293 0-.733 0-.953-.081 0-.081.146-.081 0-.081 0 .162-.367 0-.44.081 0 .081.146 0 .146.081-.22 0-.146.081-.293.162-.22-.08-.734 0-.88 0 .073.081.22 0 .293.081-.073.081 0 .162-.073.162-.074 0-.294 0-.367.081.146 0 .22.081.073.081.367 0 .514-.08.954-.08 0-.082 0-.082.073-.082h.22c0 .081-.22 0-.22.162.147 0 .514-.08.44 0h.22c-.073-.162.514-.08.367 0 .22 0 .514 0 .514.081-.294 0-.44 0-.66.081.073 0 .073.081.22 0-.074-.08.073-.08.146-.08 0 .08.22 0 .22.08 0 .081.074.081.074.081-.22.081-.44 0-.587 0 0 .081.22 0 .293.081 0 0-.146 0-.146.081.073.081.293 0 .366 0-.073 0-.293 0-.293.081-.147 0-.293-.08-.367-.08.074.08-.22.08-.22.242.22-.08.44-.243.66-.08.22 0 .514-.082.66 0-.073 0-.22.08-.22.161.074.082.294-.08.44 0-.073 0-.073 0-.073.082.147 0 .147-.082.22-.082.074 0 .22.082.074.163-.514-.081-.954 0-1.54-.081.293-.082.733.08.806-.082-.22.082-.293-.08-.367.082-.146 0-.22-.163-.366-.082.146 0 .073.082 0 .082h-.294c0 .08-.367.08-.367.162.367-.162.88 0 1.174.08.147 0-.073-.08 0-.08s.073 0 .147.08c-.074.082.073.082.147.163-.22.08-.147-.081-.294-.081-.073 0-.22.08-.293.08 0 0 .073 0 .073-.08h-.147c0 .08 0 .08-.073.08-.073-.08-.147-.162-.367-.162 0 0 .073.082 0 .082-.147-.081-.367 0-.513-.081-.074.08-.22 0-.294.08 0-.08-.367 0-.367-.08h-.073c0 .243.587.08.734.162-.22 0-.147.08 0 .08-.294.163-.734-.161-.734 0-.073 0-.367-.08-.367-.08.22 0 .073 0 .073.08.074.082.22-.08.367 0 0 0-.293 0-.146.082.146 0 .146 0 .293-.081.073 0 .073.08.147.08.073 0 0-.08.146-.08.074.243.587.08.88.162-.586.08-1.173.08-1.54.08.074 0 .074 0 0 .082h-.147c0-.081 0-.081-.073-.081-.147.08-.22-.081-.367-.081-.293.08-1.1.08-1.394 0-.22 0-.953.08-1.173-.081v.08c-.22 0-.88-.08-.88-.08s.073.08 0 .08c-.074 0-.074-.08-.22-.08-.22.162-.514-.081-.734 0 .073.08.22 0 .146 0h.22c-.146 0 0 0 0 .08H.681c0 .163.44 0 .66 0 .22 0 .147.163.367.163 0-.081-.074-.081-.074-.081.147 0 .44-.081.514 0-.147 0 0 .08.073.08.074-.08.147 0 .294-.08-.074.08.22 0 .073.162.22 0 .073-.081.22-.081.147.08 0 0 .147 0 0 .08.147 0 .073.08.22 0 .367-.08.514 0 .073 0 .073-.08.146-.08.147 0 .367.08.587 0 0 .162.66.162.807.243v-.081c.147 0 .074.162.22.08 0-.08-.146 0-.146-.08.22 0 .587-.081.807-.081-.147 0-.22.08-.147.08.073 0 .147-.08.293-.08-.073 0 0 .08-.073.08.22 0 .44-.08.66 0 0 0-.073 0-.073.082-.293 0-.807-.081-.88.08.293-.08.66.082 1.027 0 0 .163.587-.08.66.082.44-.081 1.174-.081 1.54 0 0 0-.073 0 0 .08.074 0 .22 0 .22-.08-.073 0-.073 0-.073-.081h.514l-.073.08c.22-.08.293.082.513 0 0-.08-.147-.08 0-.08 0 .08.147.08.147.08.073 0-.074-.08.073-.08.294 0 .294 0 .514-.081 0 .08.293.08.146.162.294 0 .294.08.44-.081-.073.08.074.08 0 .162h.147c0-.081-.146-.081 0-.162.44 0 1.027.08 1.32-.081v.08h.22c0-.08 0-.08.148-.08-.074.08.073 0 .073.162-.147.08-.367 0-.587 0-.073.162-.66.08-.733 0 .22.162.807.08.953.08.294.082.514.082.807.082-.073-.081.074-.081.147-.081 0-.081-.073-.081-.073-.162-.147 0-.074.08-.22.08.073-.08-.22-.08-.147-.161.22 0 .513.08.513 0h.22c-.073 0 0 .08-.073.08.22 0-.073-.08.22-.161.073 0 .073.08.147 0 .147.08-.074.162 0 .162 0 0 .293-.081.293 0 0 .08 0 .08-.073.08.073-.08-.22 0-.367 0-.073 0-.073-.08-.147-.08 0 .08-.22 0-.293 0 .073.162.293.08.367.08 0 .082-.147 0-.22.082.146 0 .367-.081.44 0 0-.081.293 0 .22-.081-.147 0-.22.08-.22 0 .147-.081.293 0 .44 0 .073-.081-.147 0-.073-.081h.073c.22 0 .293 0 .44.08.147 0-.073 0-.073-.08h.147c.073 0 .146 0 .146.08 0 .082-.146 0-.146.082h.366c.074 0 .074-.081.22-.081.074 0 .074.08.147.08.074 0 .294-.08.514 0 .073-.08.146-.08.22-.08-.22 0-.294.08-.367 0 .073 0 .073 0 .147-.081-.074 0-.147.08-.22.08 0-.161-.294 0-.294-.08 0 0 .074-.081 0-.081-.22.08-.587.08-.733 0 .073.162-.44.08-.294-.081-.22 0-.073.08-.22.08 0-.08-.073-.08-.073-.08.367-.162.587-.081.953.08.294-.08.367 0 .514-.08v.08c0-.08.44-.08.293-.08-.073.08-.366 0-.366 0h.66c-.074.08 0 .08.073.08 0-.08.074-.08.147-.08.22.567.44 1.053 1.247 1.053 1.247-.081 1.614-.486 1.614-.972h.514c.073 0 .44-.081.66-.081 1.614 1.053 4.842 1.944 7.556 2.187 1.54-.162 3.155 0 4.842.244a.534.534 0 00-.367.162c-.073.161-.293.161-.44.161h-.293c-.44-.08-.587-.08-.66.082-.147.243-.367.08-.587.162-.294.08-.88.08-.734.405 0 .08-.147.162-.22.243-.073.08-.073.162 0 .243.22.162.513.405.807.567.073.081.22.081.367.081.293 0 .587 0 .88.081.22.243.66-.08.88.162.514-.08 1.028.081 1.541.162.293 0 .514.162.807.162.293 0 .587.081.88 0 .294 0 .514.162.807.162.147 0 .22-.08.294 0 .073.081-.147.243-.367.243h-1.027c-.074 0-.22 0-.294.081-.146.081.074.162.074.243.073.163.073.325.146.406.147.162.22.243 0 .405-.146.08-.146.324-.44.324-.146 0-.44 0-.513-.081-.074-.081.146-.081.22-.081.073 0 .073-.081.147-.081-.294-.081-.587-.243-.88-.243-.367-.081-.808-.081-1.175-.081-.073 0-.073 0-.146-.081.073 0 .147-.081.147-.081h.88a.534.534 0 00.367-.162c.073-.081.146-.325-.074-.325-.293-.08-.513-.324-.88-.243-.44 0-.734-.162-1.1-.162-.44-.08-.88 0-1.321-.162H31.2c0 .081-.074.162-.074.162.074.081.147.162.294.243.22.081 1.247.162 1.614.162.073 0 .146.081.146.081v.081c-.073.163-.22.244-.366.406-.074.08-.22.08-.22 0-.074-.243-.22-.324-.587-.324-.514 0-.954-.082-1.1-.406-.588-.243-1.101-.486-1.762-.567h-.293c-.073 0-.073.081-.147.162 0 .081 0 .162.074.162.22.081.44.243.733.324 0 .243.367.243.587.325.147.08.44.162.587.243.073.08.073.243.367.162.293-.162.66 0 1.027-.162.147-.081.147.08.22.162 0 0 0 .08.073.08.22.082.44.082.66.163.22.08.074.324.44.324.148 0 .294 0 .441.08.073 0 .073 0 .147.082-.074 0-.074.08-.147.08-.514 0-1.1.082-1.614-.08-.22-.081-.44-.081-.734-.081-.586 0-1.173 0-1.76-.162-.294-.081-.66 0-1.027 0-.074 0-.147.08-.147.162 0 .08.073.162.073.162.367 0 .734.162 1.027.243.074-.081.147-.162.367-.162.147 0 .22.08.22.162v.162h.587v.081c.514.162.807.162 1.174-.081.073-.081.147-.081.22-.081.294.162.66.324 1.174.324.073 0 .293.081.293.162.147.243.44.324.88.324h1.174c.22 0 .367-.08.44-.162.294-.324.294-.243.954-.162.44.081.734.243 1.174.324.22.081.367.081.514 0 .146-.08.22-.08.367 0 .146.081.293.243.513.243.073-.162 0-.324.367-.324.733-.405.733-.486.807-.486.147 0 .147.081.22.162.147 0 .293-.081.293-.162.074-.081-.073-.162-.22-.243h-.733c-.074 0-.147-.081-.147-.081.073 0 .073-.081.147-.081h1.614c.587 0 1.173 0 1.687-.162.147 0 .22-.162.367-.081.293.162.513.08.807 0 .22.162.587.162.954.162.66 0 35.147 0 35.807.08.22 0 .514 0 .734.082.293.162.66.162 1.027.162 1.76 0 3.595.081 5.502.162.367 0 .367 0 .44.324 0 .081.074.081.074.162.073 0 .147-.08.22-.08.293-.163.807-.244 1.1-.163v.081s-.073.081-.146.081c-.44 0-.807 0-.734.405 0 .162-.22.243-.293.405-.074.081-.22.081-.367 0-.074-.08-.22-.08-.22 0 0 .081 0 .162-.074.243.734 0 1.468.163 2.128-.08.146-.082.513 0 .733.08.294.163.66.163.954.244.073-.163.147-.081.147 0 .22 0 .367.08.587 0 .22-.163.587-.244.66-.487 0-.08.073-.08.147-.162.073.081.073.162.147.243.146.081.293.162.513.081.073 0 .22-.08.22-.08.22.08.587.161.66.324.147.242.22.161.44.08.22-.08.147-.324.514-.405 0 0 0-.08.073-.08.294-.244.66.242 1.028 0 .073 0 .146.08.146.08a.263.263 0 01.074.162c.587.081 1.1.325 1.687.487h.147c.073 0 .073-.081 0-.163-.074 0-.074-.161-.074-.161.44-.082.881-.082 1.321 0 .22 0 .073 0 0 .08-.22.163-.147.244.22.244h.587c.22 0 .44-.243.66-.081.294.243.514 0 .807 0 .22 0 .367.08.587.08.073 0 .22.082.22 0 .294-.162.514-.08.807 0 .073.082.294.082.44.082.587 0 1.174.162 1.761-.081h.293c.147.08.367.08.514.162.514.243.954.243 1.541.08.073 0 .22-.08.293-.08.734.08 1.467-.081 2.201-.162.44 0 .88-.081 1.1-.325.22 0 .587 0 .734.082.293.162.587 0 .807.08.293.163.587.082.88.082.367 0 .587.162.954.243h.294c.293 0 .513-.162.806 0 .294-.162.661-.081.954-.162.44-.163 1.101-.081 1.467-.406-.073-.08.074.163.294.081.147-.08.293-.324.587-.162.293.163.44-.08.66-.08.073 0 .22 0 .22.08v.163c-.073.08-.147.08-.22.08-.073 0-.147.081-.293.081.073 0 .146.082.22.082h1.614c.22 0 .44-.162.66-.162h.88c.074 0 .147-.081.22-.081.147 0 .221-.082.221-.082s-.074 0-.147-.08c-.734-.163-1.394.08-2.054.08-.147 0-.294.243-.441.081-.073-.08.147-.162.441-.243.293-.08.587-.162.88-.162.66.081 1.247-.08 1.907-.162.074 0 .147-.08.147-.162 0 0-.073-.08-.147-.08h-.146c-.074 0-.147-.082-.22-.082.073 0 .146-.08.22-.08h.587c.366 0 .88.08 1.1.242.147.162.367.162.66.162.661.081 1.247-.162 1.834-.243.661-.08 1.248-.324 1.981-.243a3.558 3.558 0 001.908-.324c.146-.081.293-.162.513-.162.147 0 .367 0 .367.081s-.147.081-.293.081c-.074 0-.074.081-.147.081 0 0 1.027.162 1.1.162.074-.08.22-.162.294-.162-.074 0-.147-.08-.22-.08-.074 0-.147-.082-.221-.082.074-.081.147-.081.221-.162.22-.162.44-.081.66-.081.66 0 1.174-.324 1.761-.405.146-.324.66-.486 1.027-.648.22-.162.366-.324.366-.567-.073-.244 0-.487.587-.487.587-.243 1.248-.324 1.761-.648.073 0 .073-.08.073-.162 0 0-.073-.08-.146-.08h-.734c-.22-.082-.44-.163-.513-.325-.074-.081.22-.243.44-.324.22-.081.367 0 .513.08.147.082.367.163.514 0 .147-.08.293-.161.44-.161.514-.081.44-.243.293-.405-.073-.081.294-.243.221-.324-.294-.243-.147-.487-.147-.81 0-.163 0-.325-.147-.406-.22-.243-.22-.405.367-.486.073 0 .147-.08.147-.162 0-.162 0-.324.073-.486 0-.162-.147-.243-.44-.324-.147 0-.147-.081-.074-.162.074-.081.221-.162.147-.243-.22-.162 0-.324.074-.567.073 0 .22-.162.22-.243 0-.162-.147-.324-.294-.487-.22-.162-.147-.405-.073-.648l.147-.08c.293.161.366.08.44-.082.073-.324-.074-.567.22-.891.073-.081-.22-.405-.44-.486-.441-.081-.294-.243-.147-.405l.073-.081c-.22-.162-.22-.324-.22-.405.147 0 .22 0 .367.08.147.082.293.244.44.244.294.08.294-.325.367-.486.147-.244.367-.487.513-.73.221-.243.367-.243.661-.08.44.161.807-.325 1.32-.163.074 0 .147-.08.22-.162v-.162c0-.08-.073-.324-.146-.324-.514-.081-1.027-.243-1.468.162-.22.162-.366.081-.587-.081-.146-.081-.366-.162-.44-.162-.146.243-.366.243-.587.324 0-.08 0-.162-.146-.243-.44-.243-.514-.567-.367-.81h1.174c.22 0 .366-.243.513-.405.074-.081.147-.243 0-.324-.147-.163-.293-.325-.513-.406-.22-.08-.44 0-.587 0-.147 0-.367 0-.44-.08-.147-.163-.367-.325-.441-.487 0-.162.221-.486.367-.486.44-.08.807-.08 1.247-.08.294 0 .441-.163.514-.568.147-.486.587-.648.66-1.215.074-.405.074-.649-.22-.81a8.496 8.496 0 00-.734-.244c.074-.729-.293-.567-.66-.648-.293 0-.44.243-.733.324-.22.162-.441-.243-.661-.243-.073 0-.22 0-.293.081-.22.162-.44.243-.734.243-1.1 0-2.201-.162-3.228.324h-.146c0-.08.073-.08.146-.162 0 0 .074 0 .074-.08.44-.082.807-.163 1.247-.244.073 0 .147 0 .293-.08h-.073c.293-.082.513-.244.734-.406-.074-.324-.147-.567-.294-.73.66-.08 1.247-.323 1.834-.647h.147c.22-.081.367-.243.587-.243.22-.081.367.405.66.08.147-.161.293.244.514.244h.44c.073 0 .073-.081.146-.081.294-.243.514-.649.881-.73.073 0 .073-.162-.074-.243-.146-.08-.366 0-.293-.243 0-.162.293-.405.293-.405.367.243.734-.243.954-.08.44.404.66.08.807-.325.074-.405.294-.486.587-.486h.44c.074 0 .147-.162.147-.243l-.073-.162-.661-.486c-.44-.324-1.027-.405-1.1-1.216 0-.08-.22-.162-.367-.243-.147-.08-.367-.08-.44-.162-.073-.162-.147-.486-.073-.729 0-.243.146-.405.22-.648-.294-.081-.441-.486-.661-.648-.293-.243-.733-.081-1.027-.406-.146-.162-.44-.08-.44.244-.073.324-.22.405-.44.405-.44 0-.807.567-1.321.486 0 0-.146.162-.146.324 0 .08.073.243.146.324.147.162.367.243.514.324.147.162.22.405.293.648 0 .243-.073.567-.293.567h-.954c-.293 0-.44-.243-.293-.648.22-.567.147-.567-.22-.891-.147-.081-.22-.243-.367-.405-.147-.162-.22-.324-.514-.081-.44.324-.953.324-1.32.08-.514-.404-1.174-.08-1.614-.404-.587-.405-1.101-.081-1.688-.243h-.44c-.146 0-.366-.081-.44-.162a1.407 1.407 0 00-1.394-.568c-.587-.567-1.247-.567-1.907-.162-.074 0-.22-.162-.367-.243-.147-.162-.073-.324.073-.324.294-.08.587-.486.954 0h.147c.293-.324.513-.324.807 0 .073.081.22 0 .293-.08v-.163c-.22-.891-.367-.972-1.1-.729-.66.243-1.321.324-2.274 0-.221-.081-.441.324-.661 0-.146-.162-.293.081-.367.162-.146.081-.293.081-.44-.081-.22-.243-.44-.243-.66 0-.22.243-.514.243-.734.162-.587-.162-1.1-.648-1.687 0-.073.081-.293-.081-.44-.162-.294-.243-.66-.243-.88-.081-.587.405-1.174.243-1.835.324-1.027 0-2.054.081-3.154 0a1.81 1.81 0 00-.881.243c-.366-.405-.66-.243-.953.081-.66-.243-1.174.486-1.834.405-.367 0-.734.081-1.101 0-.44-.08-.733.405-1.174.405-.22 0-.513 0-.733.162-.514.325-1.027.325-1.467.081-.367-.243-.661-.243-1.028-.08-.513.243-.953.648-1.54.243-.073 0-.22.08-.294.08-.366.325-.66.325-1.027 0-.22-.243-.513-.324-.733-.161-.44.405-.881.324-1.321.324-.44 0-.807 0-1.174.243-.44.243-1.027.243-1.467-.081a1.036 1.036 0 00-1.174 0c-.22.162-.367.162-.587.162-.293.08-.366-.486-.66-.162-.293.243-.587.162-.88.162H85.789c-.294 0-.661-.081-.881.162-.293.243-.66-.324-.954.162H80.36c-.293 0-34.413-.081-34.56.08-.367.325-.807.244-1.174.244-.294 0-.66-.081-.954.08-.513.325-1.027.244-1.54.244h-1.614a4.724 4.724 0 01-1.541-.81l.514.324c.073.162-.294.243-.587.324.073 0 .073.081.146.081h-3.448c-.44 0-.88 0-1.394.243-.44.243-1.027.081-1.54.081-.88-.648-1.834-.243-2.788-.243-.587.486-1.174.324-1.834.324-.44 0-1.027-.081-1.394.162-.073.081-.147.081-.293.162a17.04 17.04 0 00-2.935-.567c-2.641.405-5.796.972-8.95.81-1.1-.08-2.128-.648-1.981-.972a45.379 45.379 0 01-4.695 0c-6.016 1.296.733 2.43 3.008 2.593zm3.301 9.075c0 .081-.147 0-.147 0s.147 0 0-.08c0 0 .147 0 .22-.082.147.081-.22.081-.073.162zm1.027.081h-.22c.073-.08.147-.08.22-.162.147.081 0 .162 0 .162zm.44 0c.074-.08-.146 0-.22 0-.073 0 .074-.08-.073-.08 0-.082.22 0 .22-.082.147 0 .073.081.147 0 .073 0-.074 0 0-.08h.146s-.073.08 0 .08c.147-.08.074-.08.294 0 0 .081-.147.081-.22.081h.146c-.146.162-.22.081-.44.081zm.66.081h-.146c0-.08.073-.08.146 0 0-.08-.073-.162.074-.08v.08c0-.08-.073-.08-.073 0zm-.733.892c-.147-.081-.293 0-.367-.081.22 0 .367-.081.44 0 0 0-.146 0-.073.08zm-4.255 5.833c-.147 0 .22.081 0 0-.073.081-.22 0-.367 0h.147c.073 0 0-.08.073-.08s0 .08.147.08zm-.22-.243c.146-.08 0 .081-.22 0 0 0 .22.081.22 0zm-.367-.08c.073-.082.073 0 0 0 .147-.082.073 0 .147 0h-.294.147zm-.147.323c0 .081-.146 0-.367 0 0-.08.294 0 .367 0zm-.146.081c.22 0 .22 0 .366.081 0 .081-.146 0-.22 0-.22.162-.44 0-.733.081-.074-.08-.147 0-.294-.08.22-.082.734 0 .88-.082zm-.954.081c0 .081-.074.081-.147.081s-.073-.08-.073-.08h.22zm-2.861.649c-.074-.081 0-.081 0-.162.22 0 .146.08.366 0 .074.08-.146 0-.146.08 0 .082.293 0 .22.082h-.44zm-3.375.486c0-.081.147-.081.22-.081.073.08-.073.08-.22.08zm1.614 0c.147-.081.22 0 .367 0v.08c-.147 0-.294 0-.367-.08zm2.274-.567h.22c.074.08-.22.162-.22 0zm.367.486c-.073-.081.293-.081.22-.081.073.08-.147 0-.22.08zm.734.162c.073-.081.293 0 .366 0 0 .08-.293 0-.366 0zm-.074-1.216c.074 0 .294 0 .367.081-.147-.08-.293 0-.367-.08zm.367-.972c.073-.08.073-.08 0-.162.22 0 .294.081.367 0 .147 0 .367.243.073.243.074-.162-.367 0-.44-.08zm.22.162c0-.08.22 0 .147-.08h.22c0 .161-.293.161-.367.08zm.147.81c0-.08.22 0 .293 0 0 .081-.22.081-.293 0zm1.247.567h-.587c0-.08-.147-.08-.293-.08-.074 0 .22 0 .073-.081.147 0 .22.08.367 0v.08c.147.081.22.081.44.081v-.08c.073 0-.073.08 0 .08zm.22 0c-.073.082-.073-.08-.147 0 0-.08.22-.08.294-.08.147.08-.294 0-.147.08zm1.027.082c-.073-.081 0-.081.074-.162.146 0 .22 0 .22.162-.147-.081-.22 0-.294 0zm.367-.081c.073-.081-.147-.081-.147-.162.294.08.587.162.88.162-.146.08-.513-.081-.733 0zm20.248 7.859h-.367v-.081c.074-.081.147-.081.294-.081.073 0 .073 0 .073.08.074 0 0 .082 0 .082zm3.301-.162c.22 0 .367-.081.44-.081.367 0 .514 0 .661.162v.08c-.073.082-.147.082-.147.082-.147 0-.22-.081-.367-.162-.22-.081-.513.08-.587-.081zm1.321.567s-.147 0-.22.081c0 .081-.073.081-.073.081-.074 0-.147 0-.074-.081.074 0 .147 0 .22-.081v-.081s0-.081.074-.081c0 .08.073.162.073.162zM142.938 5.02s.073.081.073.162v.162h-.146c-.074-.162-.074-.243.073-.324zM18.655 15.231c-.074-.082-.074 0 0 0 0-.082 0-.082 0 0 1.173-.163 1.54-.568 1.613-.973.22 0 .514 0 .66.081.148 0 .368-.162.441 0 .147 0 .073-.081.22-.081.073 0 0 .162.073.162 0-.081.147 0 .22-.081.074.081.294.081.367.162-.146 0-.44.081-.293.162.147-.162.367-.162.66-.162.073 0 .22.081.294.081 0 0 .073 0 .073.081h.073c.074 0 .147.081.22.081v.081h-.146c0 .162.22.162.44.162-.073 0-.073.081-.147.081h-.66c-.074.081 0 .081.073.081-.073.081-.22.081-.367 0 0-.08 0-.08.074-.162h.146s0-.08-.073-.08h-.073c0 .08 0 .08-.074.08 0-.08 0-.08.074-.162h.073c.147 0 .22-.08.367-.08.073-.082-.073-.082.073-.082-.146 0-.293 0-.146.081h-.367s-.147-.08-.22-.162c0 .081 0 .081-.074.162-.146 0-.293 0-.366.081h.146s.074-.08.22-.08c0 .08 0 .08-.073.161h-.147.147l.073.081c-.22 0-.366 0-.513.081.073 0 .22 0 .367.081h-1.835l.074-.08c-.147 0-.22.08-.44.08 0 0 0-.08-.074-.08h-.146c0 .08.146 0 .146.08-.22.081-.587 0-.88.081-.073-.08-.294-.08-.367-.08-.073.08.073.161-.073.161.073.081-.147 0 .146-.08zm-2.715 2.268c0-.081.147 0 .147 0s-.147.08-.147 0zm.074.08c.146.082.44 0 .586-.08.074.08.147.08.294.162 0 0-.074-.081 0-.081.147 0 .147.08.293.08 0-.08 0-.08.074-.08.146.243.293.324.44.486-.22.081-.44 0-.587 0-.147 0 .073.081 0 .081-.44-.081-.88-.243-1.174-.486l.074-.081zm5.795.325h-.073.073zm-.513-.81h-.22v-.081c.073 0 .22 0 .22.08zm-2.935-1.702c.073 0 .073.081.147.081 0 0-.22-.08-.147-.08zm-.587.162c0-.08.073-.08 0-.162.147 0 .367 0 .367.081-.293-.08-.22 0-.367.081zM16.38 16.69c.074 0 .147-.081.22 0 0 .08-.146 0-.146.08.146 0 .146.082.293 0 .073-.161.66-.161.587 0 .147-.08.293-.08.073-.08.147 0 .44 0 .367-.081 0 .08.147 0 .147.08 0 .082-.22 0-.22.082 0 .08.293 0 .293 0-.146 0 0 .08-.146.08.073-.08-.074-.08-.147 0 .073-.08 0-.08-.147-.08.147.08.073.08-.073.162h.733c-.073 0 .147-.081.147-.081.293-.081.44.08.734 0-.074 0 0 .08 0 .08h-.367c.073 0 0 0 0 .082h.22s-.073.08-.073.162H18.8s0-.081-.073-.081c-.074 0-.294 0-.22.08.293-.08.146.082.293.163v.08h-.293c.073 0 .073 0 0 0-.147 0-.22 0-.294-.08 0 .08 0 .08-.146.08 0 .082.073.082.073.082h-.367c-.073 0-.147-.081-.147-.162l-.073-.081c.294-.081.66 0 .807 0-.073-.081-.293 0-.367-.081.294 0 .44.08.587.08 0-.08-.22-.161-.367-.161-.073-.162.367-.081.44-.162-.22 0-.44.08-.586.162-.147-.081-.294-.081-.587-.081.146.08.073 0 .073.162.073 0 .147-.081.147 0 0 .08-.22.08-.22.08-.074 0-.147-.08-.22 0h-.074c-.073 0-.073-.08-.073-.08h.367c-.074-.081 0-.162-.147-.162 0 .08.073.08.073.08-.146 0-.366 0-.366-.08 0 .08-.514 0-.294.08H16.6v-.161c-.146-.081-.22-.162-.22-.243-.073 0 0 .08 0 0zm0 .08c-.073.082-.146 0-.146.082h-.367c.073-.081.293-.081.513-.081zm-.293 0c-.22 0 .073-.08.146-.08 0 .08-.073.08-.146.08h-.294c0-.08.147 0 .294 0zm.293.406c-.073-.081 0-.081 0 0 .074 0 .22-.081.367-.081 0 .08 0 .08.147.08-.074-.08.22-.08.22 0v-.08c.073.08-.22.08-.073.08h.146l-.073.082c-.073 0 0-.081-.147-.081 0 .08-.22.162-.293.08 0-.08.146 0 0-.08-.074.08-.294 0-.294.162-.22-.081-.22 0-.44 0-.073.08 0 .08 0 .08h-.147l-.22-.242c.147-.081.587-.081.807 0zm-3.228 2.674c0 .162-.22.08-.44.08.074-.08.367-.08.44-.08zm-1.247.08h-.147v-.08h-.073c.073-.082.293 0 .22.08.294-.08.587 0 .88.082-.22 0-.513.08-.806.08 0 0 .146 0 .073-.08-.073 0-.147 0-.147-.081zm-.587 1.702h-.22.22c.074 0 .074 0 0 0zm.074-.081l.22-.081c.073 0 .073 0 .073.081-.073 0-.22.081-.293 0zm1.76.324c-.073-.08-.146-.08-.073 0-.147-.08-.514 0-.587-.08 0-.082.073-.082 0-.163.22-.081.587-.081.88-.081 0-.081-.073-.081-.073-.081 0 .081 0 .081-.147.081-.073-.081-.073-.081 0-.081h-.22.147c0-.081-.367-.162-.44-.081.073 0 .073 0 .147.081-.074 0-.074 0-.147.081-.147 0-.074-.081-.147-.081-.073.081-.073-.081-.073-.081s-.074.081-.147.081v-.081l.293-.081s0 .081.074 0c.44.081.733.162.954.243-.074 0-.147.081-.22.081.146 0 .366.081.513.162v.162h-.073s.073 0 0-.08c-.367 0-.147-.163-.514-.163-.073 0-.073.081-.22.162.22-.08.147 0 .073 0zm-.44.972c-.073.081-.073.081-.147.081 0-.08.074-.08.147-.08zm-.147.325c.147 0 .074.08.22 0 .074.08-.293.08-.22 0zm2.495.81c-.074.08-.22 0-.22-.081.22 0 .146.08.22.08zm5.282-1.297c0-.08.073-.08.147-.162v.162h-.147zm63.319 5.429c0-.081.147-.162.22-.162.293 0 .587 0 .88.08.074 0 .074.082.074.163.073 0 .146 0 .146.081.074.081 0 .081-.073.081v-.162c-.073 0-.147 0-.22.081-.294.162-.514.162-.734 0-.073-.081-.146-.081-.293-.162 0 .081 0 .081 0 0l-.147.162c-.073 0-.147 0-.073-.081.073 0 .146 0 .22-.081zm1.54 1.782h.074c.073 0 .146.082.22.082.073 0 .073.08.073.162h-.22c-.147 0-.293-.081-.22-.162 0 0 0-.082.073-.082zM33.987 26.33c.147 0 .22 0 .367.082v.08c-.073 0-.146 0-.22-.08-.073-.082-.147-.082-.147-.082zm3.815 4.943c-.367.08-.587-.162-.953-.243-.074 0-.074-.081-.074-.081.074 0 .147 0 .294-.081.146 0 .22-.081.22-.162h-.367c-.073 0-.073 0-.073-.081 0 0 .073-.081.146-.081h.367c-.073-.081-.147-.162-.147-.243-.073-.081-.073-.162-.073-.162.22-.244.514-.406.954-.487.073 0 .146.081.22.081-.22.162-.367.244-.147.487.22.162.44.243.807.243.073 0 .073 0 .147.08h.073-1.761v.163c.367.08.514.243.734.405l.073.08c-.22 0-.366.082-.44.082zm2.128.08l-.074.082h-.073c-.147-.162-.22-.243-.367-.324-.22-.162-.293 0-.293.08l-.147.082c0-.081-.073-.081-.073-.162 0-.324.073-.324.733-.324.367 0 .44.08.44.243a.641.641 0 00-.146.324zm2.347-.161h-.073c-.073-.081-.073-.081.073 0 0-.081.074-.081.074-.081l-.074.08zm.514-1.053c-.073.08-.147.162-.367.162h-.587c-.513-.162-1.027-.162-1.54-.243-.074 0-.147-.081-.147-.081 0-.082 0-.163.22-.244.22 0 .367-.08.367-.162-.294-.08-.587-.324-1.027-.08-.22.08-.587 0-.88 0-.074 0-.147-.082-.147-.163-.074-.08.073-.162.22-.162 1.1 0 2.2.081 3.301.081.22 0 .367.081.367.243 0 .081.147.162.22.243.073 0 .22.081.22.162 0 .082-.147.163-.22.244zm43.51.972c-.146 0-.366-.081-.513-.162-.22-.081-.44-.081-.733 0-.074 0-.22.08-.22.08-.66-.323-1.468-.08-2.201-.161-.44-.081-.954 0-1.468-.162-.293-.081-.807-.081-1.173-.081-.807 0-35.441 0-36.102-.243-.22-.081-.587.08-.733-.162.293-.162.587 0 .88-.081h1.908c.293 0 34.413 0 34.707-.081.22-.081.513-.081.66 0 .22.162.44 0 .587 0l.66.243c.22.08.44.08.734.08.293.082.587-.161.807-.08.293.162.66.08 1.027.08h.88c.294 0 .514.082.66.163.074.08.147.162.147.243 0 .324-.293.324-.513.324zm5.136 1.54c-.147.08-.293.242-.513.08-.147-.08-.22.081-.367 0-.073 0-.22-.08-.147-.08 0-.082.074-.163.147-.244h.807c.147.162.147.162.073.243zm1.54-.487h-.073c-.073 0-.073-.08.074-.08v.08c0-.08.073-.08 0 0zm.808.567l-.073-.08.073-.082c.147.081.147.162 0 .162zm.954-.486l-.074-.08.074-.082c.146.081.146.081 0 .162zm.22.324l-.074-.08s.074 0 .074-.082h.073c0 .081 0 .162-.073.162zm1.614-.486s-.074 0-.074-.08c0 0 .074 0 .074-.082h.073c-.073.081-.073.081-.073.162zm6.015.648c-.073.081-.22.081-.366.081-.147-.08-.221-.08-.367-.162.073 0 .146-.08.22-.08.073 0 .147 0 .293-.082h.147c.073 0 .147 0 .22.081 0 .081-.073.162-.147.162zm1.321-1.053h-.147v-.081c.074.081.147.081.147.081zm1.907 1.863s-.073 0-.073-.08c0 0 .073 0 .073-.081h.074c0 .161-.074.161-.074.161zm1.248-.648l-.074-.08.074-.082c.146.081.146.162 0 .162zm2.347-.324c-.073.081-.073.081 0 0-.073.162-.22.162-.44.162-.073 0-.073 0-.073-.08-.074 0 0-.082.073-.082.147 0 .22.081.44 0-.073 0-.073.081 0 0l.073-.08h.074c.073.08-.074.08-.147.08zm3.815.892c-.293 0-.66-.081-.807.08-.293.163-.514-.161-.734 0-.22.082-.587.082-.807.163-.293.08-.587.08-.88.08-.147 0-.293-.08-.293-.161-.074-.162 0-.243.146-.243h.734c.073 0 .073-.082.073-.082l-.073-.08h-.44c-.074 0-.074 0-.147-.082-.073 0 0-.08.147-.08.367 0 .807 0 1.174-.163.22-.08.66-.08.88 0 .367.162.954.162 1.027.568zm29.198-8.427s.074 0 .074.081c-.074 0-.074 0-.147.081l-.073-.08c.073-.082.146-.082.146-.082zm.367-3.322c0 .081-.073.081-.073.162h-.294l-.073-.08h-.073l.44-.244c0 .081.073.162.073.162zm.881-2.917c-.074.081-.147.243-.22.243-.074.081-.221.243-.367.243-.147.081-.22 0-.294-.08.074-.163.147-.244.22-.406 0-.08.074-.162.147-.243h.147c.147.162.293.162.367.243zm-3.228-5.428c.073 0 .073.08.073.08-.073 0-.073.082-.147.082-.073 0-.073-.081-.146-.081.073 0 .146-.081.22-.081zm-1.761-5.348c.073.081.147.081.22.162-.073.081-.147.162-.293.162-.074 0-.147-.08-.221-.162.147-.08.221-.08.294-.162zm-.734.405l.074.081h-.147c-.073 0 0 0 .073-.08zm-8.216-5.347l.073.08s0 .082-.073.082h-.074c-.073 0 0-.081.074-.162zm-.661-1.378c.074-.08.147-.08.22.081l-.073.081s-.073 0-.073-.08c-.147 0-.147-.082-.074-.082zm-1.394 8.265c.074 0 .147 0 .221.08-.147 0-.221-.08-.367-.08h.146zm-.513-8.67c.073 0 .073.081.147.081l-.074.081-.073-.08v-.082zm-2.421 7.13l.073.081-.073.081c-.073 0-.073-.08-.073-.08l.073-.082zm-3.521.081c.073 0 .073-.08.146-.08.367-.082.734 0 .881.485v.162c0 .081-.074.081-.147.081-.22-.08-.44-.243-.587-.324 0-.08-.073-.162-.073-.243-.074 0-.147.081-.22.081h-.074c.074-.08.074-.08.074-.162zm-.881-.08l.074.08s0 .081-.074.081h-.073c-.074 0-.074-.08.073-.162zm-99.633 4.86l.073.082v.243h-.44v-.081c.073-.081.22-.162.367-.243z" fill="#155B11"/></svg>