<svg width="164" height="38" fill="none" xmlns="http://www.w3.org/2000/svg"><path d="M152.534 2.593a.731.731 0 00.565-.243c.162-.162.323-.405.242-.648-.161-.244-.323-.568-.565-.568-.323 0-.646.324-.727.73-.161.486.081.729.485.729zm-2.584 1.539h.484c.404 0 .646-.486.404-.89 0-.082-.081-.082-.081-.163 0 .081-.081.081-.081.162-.08.324-.161.567-.484.567h-.646c-.081 0-.081.162-.162.243.081 0 .081.081.162.081h.404zm.969-3.97c-.081-.08-.162-.08-.242-.162-.081.081-.162.081-.323.162.08.081.161.162.242.162.081 0 .242-.08.323-.162zm11.627 11.668c-.08 0-.08.08-.161.08 0 .082.081.082.081.082l.08-.081c.081 0 .081-.081 0-.081zm-6.136-5.186c-.081 0-.081-.081-.162-.081 0 0 0 .081-.081.081l.081.081c.081 0 .162 0 .162-.08zm5.248-.567c-.161 0-.323.08-.323.324.242 0 .323-.081.323-.324zm.242-.243h-.08c0 .08-.081.162-.081.243.081-.081.242-.081.161-.243zm1.05-.324l-.081-.081-.08.08c0 .082.08.082.08.163a.251.251 0 00.081-.162zm-8.559-1.54c-.081 0-.081-.08-.161-.08 0 0 0 .08-.081.08l.081.081c.08 0 .08 0 .161-.08zm-5.652-.243c.161-.081.161-.162 0-.243 0 0-.081.081-.162.081l.162.162zm-1.05 0s.08-.081.161-.081c0-.081-.081-.081-.081-.162-.08 0-.08.081-.161.081 0 .081 0 .162.081.162zm3.472-1.539l.081-.081c0-.082-.081-.163-.081-.082-.162.082-.162.163-.081.244 0-.081.081-.081.081-.081zm-2.422 0l.08-.082c-.08-.162-.161-.162-.242 0 0 0 .081.082.162.082zM37.467 10.533l1.615-.324c-1.13-.81-.162-2.025-3.31-2.593-1.373-.162-2.827.73-3.07.892-.645.89 2.666 1.62 4.765 2.025zm-5.41.81l-.242 1.134.888-.972c-.323-.08-.323-.162-.646-.162zm12.113-.729l-1.696-.405c-.081-.162.807-.324.484-.405l-1.534.081c.484 1.215.484.324 2.745.73z" fill="#155B11"/><path d="M50.225 9.56c-.565.973-3.875.325-3.552 1.297.08.324.242.648.484.891-.161.405.888.81 2.18 1.054-.161.243-.08.486.727.729.565 0 .888-.081 1.13-.162.243-.081.404-.162.485-.243.565.08 1.05.08 1.373.08-.566.973-3.795.487-3.472 1.378.161.405.323.81.645 1.053l1.615-.567c4.119.324-1.695 1.216 1.05 2.107.565-.081.888-.081 1.13-.243 1.373-.486.97-.73.162-1.216 3.795-.162 2.584 2.35 4.36 2.512 0 .081-.242.081-.484.081.08.081-.242.081-.323.081 0 .081-.08.081-.242.081-.162-.08.08-.08.08-.162-.16 0-.403 0-.403.081.242 0-.242.081 0 .162.08 0 0-.08.161-.08 0 .08-.08.08-.161.161-.162 0-.162-.162-.242-.162-.081 0-.323 0-.485.081.242-.08.565 0 .404.081-.162 0-.08-.08-.162-.08-.08 0-.403.08-.323-.082-.161.081-.161.081-.08.162-.243 0-.162-.08-.081-.08h-.162c-.08.08.081.161 0 .161-.08 0-.08-.08-.161-.08-.162 0-.242.08-.485.08-.08-.162-.323 0-.484-.08 0 .08.08.08 0 .08s-.08-.08-.162-.08c0 .08 0 .08-.08.08h-.081s.08 0 .08-.08c-.565.08-.645.08-1.05-.082-.08.081-.322.081-.484.081.081.081-.08.081-.08.081.242 0 .08.081.08.081h.404c0-.08.162-.08.242-.08 0 .08.162.08.243.08 0-.08.323-.08.323-.08 0 .08-.323 0-.243.08.243-.08.162 0 .081.081.565 0 .565 0 1.05-.08 0 .08-.08.08 0 .161.08-.162.404 0 .646 0h-.162c.081.082.162 0 .162.082-.08 0 0 0 .08.08.081-.08 0-.08.081-.162.404 0 1.05 0 1.212.244-.243-.081-.404.08-.646 0 0 .08-.081.08 0 .08.323 0 .484 0 .807.082-.08 0 0 .08.08.08 0 0 0-.08.082-.08-.081 0-.081.08.08.08 0-.08.162-.08.243 0-.243 0 0 .163-.162.163-.242 0-.161-.162-.242-.081.08 0 0 .08.08.08-.08 0-.242.082-.322 0 .08-.08 0-.161-.081-.161.08.08.08.162 0 .162-.242 0-.485.08-.485-.081.081 0 .081-.081.081-.081-.161 0 0 .08-.161.08h-.162c.08.082.162-.08.242 0-.161 0-.161.082-.323 0 0-.08-.08-.08-.08-.161.161 0 0-.081 0-.081s-.323 0-.162.08h.08c-.08 0 0 .082-.08.082s-.161 0-.242-.081c0 0 .161 0 .161-.081-.161-.081-.403.162-.484 0h.242c-.161-.081-.323 0-.484-.081 0 .08 0 .08-.081.08 0-.08-.162-.08-.323 0-.08-.08 0-.08-.08-.08 0 .08-.243.08-.243.08.08 0 .08 0 .08.082-.08.08-.08 0-.242 0 0 .08.243 0 .243.08-.243 0 0 .082 0 .082-.081.08-.243 0-.323-.081.08.08-.081.162.08.162.081-.081.162 0 .323-.081 0 .08 0 .08.081.08.08-.08-.08-.08.08-.08.405 0 .162.243-.16.243.16.08.08 0 .242 0-.162.08.08.08.161.08-.08.082-.484 0-.484.082h.726c-.08 0-.08.08-.161.08h-1.534c-.081 0-.242.082-.242 0 .242 0-.081 0 0-.08h-.162c.323 0-.242.08 0 .08 0-.08.162 0 .162 0-.243 0-.324-.08-.566-.08 0 .08 0 .08-.08.08-.243 0-.566 0-.808-.08h-.08c-.404 0-.889-.081-1.293-.081.081 0 .162 0 .081-.081-.08 0-.162 0-.242.08-.162 0-.323 0-.404-.08-.242 0-.484.08-.727.08 0-.08 0-.08-.08-.08h-.162c.08 0 .08.08.162.08-.323.082-.646.082-.889.163h-.161c-.565.162-.808.324-.888.486h-.162l-.08.08h.16c-.08.163.082.325.405.487h-1.13c0-.081-.082-.081 0-.081-.162.081-.405.081-.566.081 0 .081-.08.081-.242.081 0 0 .08 0 0-.081h-.162v-.081c-.161 0-.242-.081-.242 0h.161-.161c.08-.081-.162 0-.08-.081-.162.081-.243.081-.485.081 0 .081 0 .081-.081.081.08-.081-.323-.081-.404 0v-.081h-.807c.08.081-.243.081-.404.081 0 0 0-.081.08-.081-.08.081.243.081.162 0-.242 0-.161-.081-.242-.081-.08.162-.162.081-.08.243.16 0 .564-.081.484 0 0-.081-.081 0-.162 0h-.404c0 .081-.08.081-.08.081.08 0 .08.081.161.081 0-.162.404 0 .646-.08 0-.082.646-.163.888-.082h-.403c.08 0 0 .081.08.081.081 0 .323 0 .243-.08.08.08.242 0 .323 0-.081-.082.161-.163.161-.082h-.08c.484.162 1.05-.081 1.534.081.08 0-.081-.081 0-.081.242.081.646-.081.969.081v-.081h.323c.08.081.161.081.242.162-.162 0-.323-.08-.404 0 0 .081.323.081.404 0 1.292.567 3.795 1.134 5.087 1.215l-.08.081h-.243c0 .081.161 0 .161.081l-.08.081h-.242c0-.08 0-.08-.081-.08.08.243-.808.08-1.05.243l.08-.082h-.16c-.082 0 .08.082 0 .082-.162 0-.082 0-.082-.082-.161 0-.08.082-.242.082 0-.163-.242 0-.323-.082-.08.082-.242 0-.404 0-.08.082.243 0 .243.082-.081 0 0 .08-.081.08.08.082.08.163.242.163 0-.162.162 0 .242-.081v.08c-.888 0-1.695 0-1.614.568v.08h-.162c0 .082.08.082 0 .082h.162v.08c-.081 0-.162 0-.162.082h.162l.242.486s-.081 0-.081-.081c-.08 0-.161 0-.242.081.161 0 .161.081.323.081l.242.243c-.404 0-.888.081-1.292 0 .08 0 0 .081.08.081a.688.688 0 01.566 0c.323-.08.808-.08 1.13-.08 0 .161.485.161.404.242.162 0 .323-.08.404 0-.162 0-.08.081-.242.081.08 0 .242.081.404 0 0 .081-.081.081.08.081.323 0 .808-.08 1.13.081-.08 0-.16.081-.16.081h-.324c.162 0-.242 0-.161.081.161 0 .161.162 0 .162a.173.173 0 01-.162-.162c-.08 0-.242 0-.242.081.242-.08.08.081.161.081 0 0 .081-.08.162-.08 0 .08.08.08.08.08-.08.081-.16.081-.16.162-.081.081-.243.081-.324.081 0 0 0 .081.081.081-.404.082-.808.163-1.05.082-.161 0-.403 0-.484.08.161 0 .161.082.323.082-.162 0-.242.08-.323.162-.081-.081-.323 0-.404-.081-.08-.081.242 0 .162-.081-.485-.162-1.292 0-1.858-.081.081-.081.404.08.485-.081-.162-.082-.404 0-.646-.082-.08-.08.08-.08.242-.08 0 .162.646 0 .485.242.242-.08.484-.08.646 0 .08 0 0-.08.161-.08 0 .08-.08.08-.08.08.242-.08 1.13-.08 1.372-.162 0 .082.08.082.08.082 0-.082.162-.082.162-.082-.161 0-.161-.08-.242-.08 0 0-.242.08-.242 0 0-.082.161 0 .161-.082h-.08.08c-.242 0-.484.162-.565.081.162 0 .08-.08.162-.08.242.08.565-.082.645-.082-.323 0-.242-.08-.403-.162.161 0 .08.081.242 0 0-.162-.162-.162-.242-.243.161 0 .08-.08.161-.08-.161 0-.403 0-.242-.082-.161 0-.323.081-.404 0 .081-.08.404 0 .323-.08-.726.323-1.211-.325-1.938-.082.081-.08-.08-.08-.242-.162.08-.08.162-.162.323-.243h.242c.162 0 0 .081.162.081 0 0 0-.08-.081-.08h.646c.08-.082.162-.082.08-.163-.322.081-.484 0-.726.081.08-.081-.161-.243-.242-.081h.161v.081c-.161 0-.323.081-.323 0h.162c-.162 0 0-.081-.162-.081-.08.081-.484.081-.565 0v-.081c.242 0 .323-.162.242-.081-.323-.081-.484.162-.484.243-.162 0-.08-.081-.162-.081 0 .081-.242.081-.323.162.081 0 .162.081.081.081-.323 0-.807 0-1.05-.08 0-.082.162-.082 0-.082 0 .162-.403 0-.484.081 0 .081.161 0 .161.081-.242 0-.161.081-.323.162-.242-.08-.807 0-.969 0 .081.081.243 0 .323.081-.08.081 0 .162-.08.162-.081 0-.323 0-.404.081.161 0 .242.081.08.081.404 0 .566-.08 1.05-.08 0-.082 0-.082.081-.082h.242c0 .081-.242 0-.242.162.162 0 .565-.08.485 0h.242c-.08-.162.565-.08.404 0 .242 0 .565 0 .565.081-.323 0-.485 0-.727.081.08 0 .08.081.242 0-.08-.08.081-.08.162-.08 0 .08.242 0 .242.08 0 .081.08.081.08.081-.241.081-.484 0-.645 0 0 .081.242 0 .323.081 0 0-.162 0-.162.081.081.081.323 0 .404 0-.08 0-.323 0-.323.081-.161 0-.323-.08-.404-.08.081.08-.242.08-.242.242.242-.08.485-.243.727-.08.242 0 .565-.082.727 0-.081 0-.243.08-.243.162.081.08.323-.082.485 0-.08 0-.08 0-.08.08.16 0 .16-.08.241-.08.081 0 .243.08.081.162-.565-.081-1.05 0-1.696-.081.323-.082.808.08.889-.082-.243.082-.323-.08-.404.082-.162 0-.242-.163-.404-.082.162 0 .08.082 0 .082h-.323c0 .08-.404.08-.404.162.404-.162.97 0 1.292.08.162 0-.08-.08 0-.08.081 0 .081 0 .162.08-.08.082.08.082.161.163-.242.08-.161-.081-.323-.081-.08 0-.242.08-.323.08 0 0 .081 0 .081-.08h-.161c0 .08 0 .08-.081.08-.08-.08-.162-.162-.404-.162 0 0 .08.082 0 .082-.161-.081-.404 0-.565-.081-.08.08-.242 0-.323.08 0-.08-.404 0-.404-.08h-.08c0 .243.645.08.807.162-.242 0-.162.08 0 .08-.323.163-.808-.161-.808 0-.08 0-.403-.08-.403-.08.242 0 .08 0 .08.08.081.082.243-.08.404 0 0 0-.323 0-.161.082.161 0 .161 0 .323-.081.08 0 .08.08.161.08.08 0 0-.08.162-.08.08.243.646.08.969.162-.646.08-1.292.08-1.696.08.08 0 .08 0 0 .082h-.162c0-.081 0-.081-.08-.081-.162.08-.243-.081-.404-.081-.323.08-1.211.08-1.534 0-.243 0-1.05.08-1.292-.081v.08c-.243 0-.97-.08-.97-.08s.081.08 0 .08c-.08 0-.08-.08-.242-.08-.242.162-.565-.081-.807 0 .08.08.242 0 .161 0h.243c-.162 0 0 0 0 .08h-.162c0 .163.485 0 .727 0s.162.163.404.163c0-.081-.081-.081-.081-.081.162 0 .485-.081.565 0-.161 0 0 .08.08.08.082-.08.162 0 .324-.08-.08.08.242 0 .08.162.243 0 .081-.081.243-.081.161.08 0 0 .161 0 0 .08.162 0 .081.08.242 0 .404-.08.565 0 .081 0 .081-.08.162-.08.161 0 .404.08.646 0 0 .162.727.162.888.243v-.081c.162 0 .08.162.242.08 0-.08-.161 0-.161-.08.242 0 .646-.081.888-.081-.161 0-.242.08-.161.08.08 0 .161-.08.323-.08-.081 0 0 .08-.081.08.242 0 .484-.08.727 0 0 0-.081 0-.081.082-.323 0-.888-.081-.97.08.324-.08.728.082 1.131 0 0 .163.646-.08.727.082.485-.081 1.292-.081 1.696 0 0 0-.08 0 0 .08.08 0 .242 0 .242-.08-.08 0-.08 0-.08-.081h.565l-.081.08c.242-.08.323.082.565 0 0-.08-.161-.08 0-.08 0 .08.162.08.162.08.08 0-.081-.08.08-.08.323 0 .323 0 .566-.081 0 .08.322.08.161.162.323 0 .323.08.484-.081-.08.08.081.08 0 .162h.162c0-.081-.162-.081 0-.162.484 0 1.13.08 1.453-.081v.08h.243c0-.08 0-.08.161-.08-.08.08.081 0 .081.162-.161.08-.404 0-.646 0-.08.162-.727.08-.808 0 .243.162.889.08 1.05.08.323.082.566.082.889.082-.081-.081.08-.081.16-.081 0-.081-.08-.081-.08-.162-.161 0-.08.08-.242.08.08-.08-.242-.08-.162-.161.243 0 .566.08.566 0h.242c-.08 0 0 .08-.08.08.241 0-.082-.08.241-.161.081 0 .081.08.162 0 .161.08-.08.162 0 .162 0 0 .323-.081.323 0 0 .08 0 .08-.08.08.08-.08-.243 0-.405 0-.08 0-.08-.08-.161-.08 0 .08-.242 0-.323 0 .08.162.323.08.404.08 0 .082-.162 0-.243.082.162 0 .404-.081.485 0 0-.081.323 0 .242-.081-.161 0-.242.08-.242 0 .161-.081.323 0 .484 0 .081-.081-.161 0-.08-.081h.08c.243 0 .323 0 .485.08.161 0-.08 0-.08-.08h.16c.081 0 .162 0 .162.08 0 .082-.161 0-.161.082h.403c.081 0 .081-.081.243-.081.08 0 .08.08.161.08.08 0 .323-.08.565 0 .081-.08.162-.08.243-.08-.243 0-.323.08-.404 0 .08 0 .08 0 .161-.081-.08 0-.161.08-.242.08 0-.161-.323 0-.323-.08 0 0 .08-.081 0-.081-.242.08-.646.08-.807 0 .08.162-.485.08-.323-.081-.243 0-.081.08-.243.08 0-.08-.08-.08-.08-.08.403-.162.646-.081 1.05.08.322-.08.403 0 .565-.08v.08c0-.08.484-.08.323-.08-.081.08-.404 0-.404 0h.727c-.081.08 0 .08.08.08 0-.08.081-.08.162-.08.242.567.484 1.053 1.373 1.053 1.372-.081 1.776-.486 1.776-.972h.565c.081 0 .485-.081.727-.081 1.777 1.053 5.33 1.944 8.317 2.187 1.696-.162 3.472 0 5.33.244a.616.616 0 00-.404.162c-.081.162-.323.162-.485.162h-.323c-.484-.082-.646-.082-.727.08-.161.244-.403.082-.645.163-.323.08-.97.08-.808.405 0 .08-.161.162-.242.243-.08.08-.08.162 0 .243.242.162.565.405.888.567.08.081.242.081.404.081.323 0 .646 0 .969.081.242.243.727-.08.969.162.565-.08 1.13.081 1.695.162.323 0 .566.162.889.162.323 0 .646.081.969 0 .323 0 .565.162.888.162.161 0 .242-.08.323 0 .08.081-.162.243-.404.243h-1.13c-.081 0-.243 0-.323.081-.162.081.08.162.08.243.081.163.081.325.162.406.162.162.242.243 0 .405-.162.08-.162.324-.484.324-.162 0-.485 0-.566-.081-.08-.081.162-.081.242-.081.081 0 .081-.081.162-.081-.323-.081-.646-.243-.969-.243-.404-.081-.888-.081-1.292-.081-.08 0-.08 0-.162-.081.081 0 .162-.081.162-.081h.969a.616.616 0 00.404-.163c.08-.08.161-.324-.081-.324-.323-.08-.565-.324-.969-.243-.484 0-.807-.162-1.211-.162-.485-.08-.97 0-1.454-.162h-.08c0 .081-.081.162-.081.162.08.081.161.162.323.243.242.081 1.373.162 1.776.162.081 0 .162.081.162.081v.081c-.081.162-.242.243-.404.406-.08.08-.242.08-.242 0-.081-.244-.242-.325-.646-.325-.565 0-1.05-.08-1.211-.405-.646-.243-1.212-.486-1.938-.567h-.323c-.081 0-.081.081-.162.162 0 .081 0 .162.08.162.243.081.485.243.808.324 0 .243.404.243.646.325.162.08.485.162.646.243.081.08.081.243.404.162.323-.162.727 0 1.13-.162.162-.081.162.08.243.162 0 0 0 .08.08.08.243.082.485.082.727.163.243.08.081.324.485.324.161 0 .323 0 .484.08.081 0 .081 0 .162.082-.081 0-.081.08-.162.08-.565 0-1.211.082-1.776-.08-.243-.081-.485-.081-.808-.081-.646 0-1.292 0-1.938-.162-.323-.081-.726 0-1.13 0-.08 0-.162.08-.162.162 0 .08.081.162.081.162.404 0 .808.162 1.13.243.081-.081.162-.162.404-.162.162 0 .243.08.243.162v.162h.646v.081c.565.162.888.162 1.291-.081.081-.081.162-.081.243-.081.323.162.727.324 1.292.324.08 0 .323.081.323.162.161.243.484.324.969.324h1.292c.242 0 .404-.08.484-.162.323-.324.323-.243 1.05-.162.484.081.807.243 1.292.324.242.081.404.081.565 0 .162-.08.242-.08.404 0 .161.081.323.243.565.243.08-.162 0-.324.404-.324.807-.405.807-.486.888-.486.162 0 .162.081.242.162.162 0 .323-.081.323-.162.081-.081-.08-.162-.242-.243h-.807c-.081 0-.162-.081-.162-.081.08 0 .08-.081.162-.081h1.776c.646 0 1.292 0 1.857-.162.162 0 .243-.162.404-.081.323.162.565.08.888 0 .243.162.646.162 1.05.162.727 0 1.454 0 2.18.08.242 0 .565 0 .808.082.323.162.726.162 1.13.162 1.938 0 3.957.081 6.056.162.404 0 .404 0 .485.324 0 .081.08.081.08.162.081 0 .162-.08.243-.08.323-.163.888-.244 1.211-.163v.081s-.081.081-.161.081c-.485 0-.889 0-.808.405 0 .162-.242.243-.323.405-.08.081-.242.081-.404 0-.08-.08-.242-.08-.242 0 0 .081 0 .162-.08.243.807 0 1.614.163 2.341-.08.161-.082.565 0 .807.08.323.163.727.163 1.05.244.081-.163.162-.081.162 0 .242 0 .403.08.646 0 .242-.163.646-.244.726-.487 0-.08.081-.08.162-.162.081.081.081.162.161.243.162.081.323.162.566.081.08 0 .242-.08.242-.08.242.08.646.161.727.324.161.242.242.161.484.08.242-.08.162-.324.565-.405 0 0 0-.08.081-.08.323-.244.727.242 1.131 0 .08 0 .161.08.161.08a.25.25 0 01.081.162c.646.081 1.211.325 1.857.487h.162c.08 0 .08-.081 0-.163-.081 0-.081-.161-.081-.161a4.374 4.374 0 011.453 0c.243 0 .081 0 0 .08-.242.163-.161.244.243.244h.646c.242 0 .484-.243.726-.081.323.243.565 0 .888 0 .243 0 .404.08.646.08.081 0 .243.082.243 0 .323-.162.565-.08.888 0 .081.082.323.082.484.082.646 0 1.292.162 1.938-.081h.323c.162.08.404.08.566.162.565.243 1.049.243 1.695.08.081 0 .243-.08.323-.08.808.08 1.615-.081 2.423-.162.484 0 .969-.081 1.211-.325.242 0 .646 0 .807.082.323.162.646 0 .889.08.323.163.646.082.969.082.403 0 .646.162 1.049.243h.323c.323 0 .566-.162.889 0 .323-.162.726-.081 1.049-.162.485-.163 1.212-.081 1.615-.406-.08-.08.081.163.323.081.162-.08.323-.324.646-.162.323.163.485-.08.727-.08.081 0 .242 0 .242.08v.163c-.08.08-.161.08-.242.08-.081 0-.161.081-.323.081.081 0 .162.082.242.082h1.777c.242 0 .484-.162.727-.162h.969c.08 0 .161-.081.242-.081a.353.353 0 00.242-.082s-.081 0-.162-.08c-.807-.163-1.534.08-2.26.08-.162 0-.323.243-.485.081-.081-.08.162-.162.485-.243.323-.08.646-.162.969-.162.726.081 1.372-.08 2.099-.162.081 0 .161-.08.161-.162 0 0-.08-.08-.161-.08h-.162c-.08 0-.161-.082-.242-.082.081 0 .162-.08.242-.08h.646c.404 0 .969.08 1.212.242.161.162.403.162.726.162.727.081 1.373-.162 2.019-.243.727-.08 1.373-.324 2.18-.243a4.261 4.261 0 002.1-.324c.161-.081.323-.162.565-.162.162 0 .404 0 .404.081s-.162.081-.323.081c-.081 0-.081.081-.162.081 0 0 1.131.162 1.212.162.08-.08.242-.162.323-.162-.081 0-.162-.08-.243-.08-.08 0-.161-.082-.242-.082.081-.081.162-.081.242-.162.243-.162.485-.081.727-.081.727 0 1.292-.324 1.938-.405.161-.324.727-.486 1.13-.648.243-.162.404-.324.404-.568-.081-.243 0-.486.646-.486.646-.243 1.373-.324 1.938-.648.081 0 .081-.08.081-.162 0 0-.081-.08-.162-.08h-.807c-.242-.082-.485-.163-.565-.325-.081-.081.242-.243.484-.324.242-.081.404 0 .565.08.162.082.404.163.566 0 .161-.08.323-.161.484-.161.565-.081.485-.243.323-.405-.081-.081.323-.243.242-.324-.323-.243-.161-.487-.161-.81 0-.163 0-.325-.162-.406-.242-.243-.242-.405.404-.486a.174.174 0 00.162-.162c0-.162 0-.324.08-.486 0-.162-.161-.243-.484-.324-.162 0-.162-.081-.081-.162s.242-.162.162-.243c-.243-.162 0-.324.08-.567.081 0 .243-.162.243-.243 0-.162-.162-.324-.323-.487-.243-.162-.162-.405-.081-.648l.161-.08c.323.161.404.08.485-.082.081-.324-.081-.567.242-.891.081-.081-.242-.405-.484-.486-.485-.081-.323-.243-.162-.405l.081-.081c-.242-.162-.242-.324-.242-.405.161 0 .242 0 .403.08.162.082.323.244.485.244.323.08.323-.325.404-.486.161-.244.403-.487.565-.73.242-.243.404-.243.727-.08.484.161.888-.325 1.453-.163.081 0 .162-.08.242-.162v-.162c0-.08-.08-.324-.161-.324-.565-.081-1.131-.243-1.615.162-.242.162-.404.081-.646-.081-.162-.081-.404-.162-.485-.162-.161.243-.403.243-.646.324 0-.08 0-.162-.161-.243-.485-.243-.565-.567-.404-.81h1.292c.242 0 .404-.243.565-.405.081-.081.162-.243 0-.324-.161-.163-.323-.325-.565-.406-.242-.08-.484 0-.646 0-.161 0-.404 0-.484-.08-.162-.163-.404-.325-.485-.487 0-.162.242-.486.404-.486.484-.08.888-.08 1.373-.08.323 0 .484-.163.565-.568.161-.486.646-.648.727-1.215.08-.405.08-.649-.243-.81a10.05 10.05 0 00-.807-.244c.081-.729-.323-.567-.727-.648-.323 0-.484.243-.807.324-.243.162-.485-.243-.727-.243-.081 0-.242 0-.323.081a1.362 1.362 0 01-.808.243c-1.211 0-2.422-.162-3.553.324h-.161c0-.08.081-.08.161-.162 0 0 .081 0 .081-.08.485-.082.888-.163 1.373-.244.081 0 .161 0 .323-.08h-.081c.323-.082.565-.244.808-.406-.081-.324-.162-.567-.323-.73.726-.08 1.372-.323 2.018-.647h.162c.242-.081.404-.243.646-.243.242-.082.404.405.727.08.161-.162.323.244.565.244h.484c.081 0 .081-.081.162-.081.323-.243.565-.649.969-.73.081 0 .081-.162-.081-.243-.161-.08-.404 0-.323-.243 0-.162.323-.405.323-.405.404.243.808-.243 1.05-.08.484.404.727.08.888-.325.081-.405.323-.486.646-.486h.485c.08 0 .161-.162.161-.243l-.081-.162-.726-.486c-.485-.324-1.131-.405-1.212-1.216 0-.08-.242-.162-.403-.243-.162-.08-.404-.08-.485-.162-.081-.162-.161-.486-.081-.729 0-.243.162-.405.243-.648-.323-.081-.485-.486-.727-.648-.323-.243-.808-.081-1.131-.406-.161-.162-.484-.08-.484.244-.081.324-.242.405-.485.405-.484 0-.888.567-1.453.486 0 0-.162.162-.162.324 0 .08.081.243.162.324.161.162.404.243.565.324.162.162.242.405.323.648 0 .243-.081.567-.323.567h-1.05c-.323 0-.484-.243-.323-.648.243-.567.162-.567-.242-.891-.161-.081-.242-.243-.404-.405-.161-.162-.242-.324-.565-.081-.484.324-1.05.324-1.453.08-.566-.404-1.292-.08-1.777-.404-.646-.405-1.211-.081-1.857-.243h-.484c-.162 0-.404-.081-.485-.162-.404-.486-.969-.649-1.534-.568-.646-.567-1.373-.567-2.1-.162-.08 0-.242-.162-.403-.243-.162-.162-.081-.324.08-.324.323-.08.646-.486 1.05 0h.162c.323-.324.565-.324.888 0 .081.081.242 0 .323-.08v-.163c-.242-.891-.404-.972-1.211-.729-.727.243-1.454.324-2.504 0-.242-.081-.484.324-.726 0-.162-.162-.323.081-.404.162-.162.081-.323.081-.485-.081-.242-.243-.484-.243-.726 0-.243.243-.566.243-.808.162-.646-.162-1.211-.648-1.857 0-.081.081-.323-.081-.484-.162-.323-.243-.727-.243-.969-.081-.646.405-1.292.243-2.019.324-1.131 0-2.261.081-3.472 0-.323 0-.646.081-.969.243-.404-.405-.727-.243-1.05.081-.727-.243-1.292.486-2.019.405-.404 0-.807.081-1.211 0-.484-.08-.807.405-1.292.405-.242 0-.565 0-.807.162-.566.325-1.131.325-1.615.081-.404-.243-.727-.243-1.131-.08-.565.243-1.05.648-1.696.243-.08 0-.242.08-.323.08-.403.325-.726.325-1.13 0-.242-.243-.565-.324-.808-.161-.484.405-.969.324-1.453.324-.485 0-.888 0-1.292.243-.485.243-1.131.243-1.615-.081a1.236 1.236 0 00-1.292 0c-.242.162-.404.162-.646.162-.323.08-.404-.486-.727-.162-.323.243-.646.162-.969.162H95.525c-.323 0-.726-.081-.969.162-.323.243-.726-.324-1.05.162H89.55c-.323 0-.646-.081-.807.08-.404.325-.889.244-1.292.244-.323 0-.727-.081-1.05.08-.565.325-1.13.244-1.696.244H82.93a5.4 5.4 0 01-1.696-.81l.565.324c.08.162-.323.243-.646.324.08 0 .08.081.162.081H77.52c-.485 0-.97 0-1.535.243-.484.243-1.13.081-1.695.081-.97-.648-2.02-.243-3.069-.243-.646.486-1.292.324-2.019.324-.484 0-1.13-.08-1.534.162-.08.081-.161.081-.323.162-.646-.162-1.615-.405-3.23-.567-2.907.405-6.379.972-9.851.81-1.211-.08-2.342-.648-2.18-.972a54.963 54.963 0 01-5.168 0c-6.621 1.296.807 2.43 3.31 2.593zm3.634 9.075c0 .081-.161 0-.161 0s.161 0 0-.08c0 0 .161 0 .242-.082.161.081-.242.081-.08.162zm1.13.081h-.242c.081-.08.162-.08.243-.162.161.081 0 .162 0 .162zm.485 0c.08-.08-.161 0-.242 0-.08 0 .08-.08-.08-.08 0-.082.241 0 .241-.082.162 0 .081.081.162 0 .08 0-.08 0 0-.08h.161s-.08.08 0 .08c.162-.08.081-.08.323 0 0 .081-.161.081-.242.081h.162c-.162.162-.243.081-.485.081zm.727.081h-.162c0-.08.081-.08.162 0 0-.08-.08-.162.08-.08v.08c0-.08-.08-.08-.08 0zm-.808.892c-.161-.081-.323 0-.403-.081.242 0 .403-.081.484 0 0 0-.161 0-.08.08zm-4.683 5.833c.242.081-.162 0 0 0-.08.081-.242 0-.404 0h.162c.08 0 0-.08.08-.08.081 0 0 .08.162.08zm-.242-.243c.08 0 0 0 0 0 .161-.08 0 .081-.243 0 0 0 .243.081.243 0zm-.404-.08c.08 0 .08-.082 0 0 .161-.082.08 0 .161 0h-.322.161zm-.161.323c0 .081-.162 0-.404 0 0-.08.323 0 .404 0zm-.162.081c.242 0 .242 0 .404.081 0 .081-.162 0-.242 0-.243.162-.485 0-.808.081-.08-.08-.161 0-.323-.08.242-.082.808 0 .969-.082zm-1.05.081c0 .081-.08.081-.161.081s-.081-.08-.081-.08h.242zm-3.149.649c-.08-.081 0-.081 0-.162.242 0 .162.08.404 0 .08.08-.162 0-.162.08 0 .082.323 0 .243.082h-.485zm-3.714.486c0-.081.161-.081.242-.081.08.08-.08.08-.242.08zm1.776 0c.162-.081.242 0 .404 0v.08c-.162 0-.323 0-.404-.08zm2.503-.567h.243c.08.08-.243.162-.243 0zm.404.486c-.08-.081.323-.081.242-.081.081.08-.161 0-.242.08zm.808.162c.08-.081.323 0 .403 0 0 .08-.323 0-.403 0zm-.081-1.216c.08 0 .323 0 .404.081-.162-.08-.323 0-.404-.08zm.404-.972c.08-.08.08-.08 0-.162.242 0 .322.081.403 0 .162 0 .404.243.081.243.08-.162-.404 0-.484-.08zm.242.162c0-.08.242 0 .161-.08h.242c0 .161-.322.161-.403.08zm.161.81c0-.08.243 0 .323 0 0 .081-.242.081-.323 0zm1.373.567h-.646c0-.08-.161-.08-.323-.08-.08 0 .242 0 .08-.081.162 0 .243.08.404 0v.08c.162.081.243.081.485.081v-.08c.08 0-.08.08 0 .08zm.242 0c-.08.082-.08-.08-.161 0 0-.08.242-.08.323-.08.161.08-.323 0-.162.08zm1.13.082c-.08-.081 0-.081.081-.162.162 0 .243 0 .243.162-.162-.081-.242 0-.323 0zm.404-.081c.081-.081-.161-.081-.161-.162.323.08.646.162.969.162-.162.08-.565-.081-.808 0zm22.287 7.859h-.404v-.081c.081-.081.162-.081.323-.081.081 0 .081 0 .081.08.08 0 0 .082 0 .082zm3.634-.162c.242 0 .404-.081.484-.081.404 0 .566 0 .727.162v.08c-.08.082-.161.082-.161.082-.162 0-.243-.081-.404-.162-.242-.081-.566.08-.646-.081zm1.453.567s-.161 0-.242.081c0 .081-.08.081-.08.081-.081 0-.162 0-.081-.081.08 0 .161 0 .242-.081v-.081s0-.081.08-.081c0 .08.081.162.081.162zm79.86-26.495s.081.081.081.162v.162h-.161c-.081-.162-.081-.243.08-.324zm-99.562 10.21c-.081 0-.081-.082 0 0 0-.082 0-.082 0 0 1.292-.163 1.695-.568 1.776-.973.242 0 .565 0 .727.081.161 0 .404-.162.484 0 .162 0 .081-.081.242-.081.081 0 0 .162.081.162 0-.081.162 0 .242-.081.081.081.324.081.404.162-.161 0-.484.081-.323.162.162-.162.404-.162.727-.162.08 0 .242.081.323.081 0 0 .08 0 .08.081h.082c.08 0 .161.081.242.081v.081h-.162c0 .162.243.162.485.162-.081 0-.081.081-.162.081h-.727c-.08.081 0 .081.081.081-.08.081-.242.081-.404 0 0-.08 0-.08.081-.162h.162s0-.08-.081-.08h-.08c0 .08 0 .08-.081.08 0-.08 0-.08.08-.162h.081c.162 0 .242-.08.404-.08.08-.082-.081-.082.08-.082-.161 0-.322 0-.161.081h-.404s-.161-.08-.242-.162c0 .081 0 .081-.08.162-.162 0-.324 0-.404.081h.161s.08-.08.242-.08c0 .08 0 .08-.08.161h-.081.08-.161.162l.08.081c-.242 0-.404 0-.565.081.08 0 .242 0 .404.081h-2.019l.08-.08c-.16 0-.241.08-.484.08 0 0 0-.08-.08-.08h-.162c0 .08.162 0 .162.08-.243.081-.646 0-.97.081-.08-.08-.322-.08-.403-.08-.08.08.08.161-.08.161.08.081-.162 0 .16-.08zm-2.988 2.268c0-.081.161 0 .161 0s-.161.08-.161 0c0 0-.08 0 0 0 0 0 .08 0 0 0zm.08.08c.162.082.485 0 .647-.08.08.08.161.08.323.162 0 0-.081-.081 0-.081.161 0 .161.08.323.08 0-.08 0-.08.08-.08.162.243.323.324.485.486-.242.081-.485 0-.646 0-.162 0 .08.081 0 .081-.485-.081-.97-.243-1.292-.486l.08-.081zm6.38.325h-.081.08zm-.566-.81h-.242v-.081c.081 0 .242 0 .242.08zm-3.23-1.702c.081 0 .081.081.162.081 0 0-.242-.08-.161-.08zm-.645.162c0-.08.08-.08 0-.162.161 0 .403 0 .403.081-.323-.08-.242 0-.403.081zm-1.535 1.135c.081 0 .162-.081.243 0 0 .08-.162 0-.162.08.162 0 .162.082.323 0 .08-.161.727-.161.646 0 .162-.08.323-.08.08-.08.162 0 .485 0 .405-.081 0 .08.161 0 .161.08 0 .082-.242 0-.242.082 0 .08.323 0 .323 0-.162 0 0 .08-.162.08.081-.08-.08-.08-.161 0 .08-.08 0-.08-.162-.08.162.08.081.08-.08.162h.807c-.08 0 .162-.081.162-.081.323-.081.484.08.807 0-.08 0 0 .08 0 .08h-.404c.081 0 0 0 0 .082h.243s-.081.08-.081.162h-.08s0-.081-.082-.081c-.08 0-.323 0-.242.08.323-.08.162.082.323.163v.08h-.323c.08 0 .08 0 0 0-.161 0-.242 0-.323-.08 0 .08 0 .08-.161.08 0 .082.08.082.08.082h-.403a.174.174 0 01-.162-.162l-.08-.081c.322-.081.726 0 .888 0-.081-.081-.323 0-.404-.081.323 0 .484.08.646.08 0-.08-.242-.161-.404-.161-.08-.162.404-.081.485-.162-.243 0-.485.08-.646.162-.162-.081-.323-.081-.646-.081.161.08.08 0 .08.162.081 0 .162-.081.162 0 0 .08-.242.08-.242.08-.081 0-.162-.08-.243 0h-.08c-.081 0-.081-.08-.081-.08h.404c-.081-.081 0-.162-.162-.162 0 .08.08.08.08.08-.16 0-.403 0-.403-.08 0 .08-.565 0-.323.08h-.161v-.161c-.162-.081-.243-.162-.243-.243-.08 0 0 .08 0 0zm0 .08c-.08.082-.161 0-.161.082h-.404c.08-.081.323-.081.565-.081zm-.323 0c-.242 0 .081-.08.162-.08 0 .08-.08.08-.162.08h-.323c0-.08.162 0 .323 0zm.323.406c0-.081-.08-.081 0 0 .081 0 .243-.081.404-.081 0 .08 0 .08.162.08-.081-.08.242-.08.242 0v-.08c.08.08-.242.08-.08.08h.16l-.08.082c-.08 0 0-.081-.162-.081 0 .08-.242.162-.323.08 0-.08.162 0 0-.08-.08.08-.323 0-.323.162-.242-.081-.242 0-.484 0-.08.08 0 .08 0 .08h-.162l-.242-.242c.162-.081.646-.081.888 0zm-3.553 2.674c0 .162-.242.08-.484.08.08-.08.404-.08.484-.08zm-1.372.08h-.162v-.08h-.08c.08-.082.322 0 .242.08.323-.08.646 0 .969.082-.242 0-.566.08-.889.08 0 0 .162 0 .081-.08-.08 0-.161 0-.161-.081zm-.646 1.702h-.242.242c.08 0 .08 0 0 0zm.08-.08l.243-.082c.08 0 .08 0 .08.081-.08 0-.242.081-.323 0zm1.938.323c-.08-.08-.161-.08-.08 0-.162-.08-.566 0-.646-.08 0-.082.08-.082 0-.163.242-.08.646-.08.969-.08 0-.082-.081-.082-.081-.082 0 .081 0 .081-.161.081-.081-.081-.081-.081 0-.081h-.243.162c0-.081-.404-.162-.485-.081.081 0 .081 0 .162.081-.081 0-.081 0-.162.081-.161 0-.08-.081-.161-.081-.081.081-.081-.081-.081-.081s-.08.081-.162.081v-.081l.323-.081s0 .081.081 0c.485.081.808.162 1.05.243-.08 0-.161.081-.242.081.161 0 .403.081.565.162v.162h-.08s.08 0 0-.08c-.405 0-.162-.163-.566-.163-.08 0-.08.081-.242.162.242-.08.161 0 .08 0zm-.484.972s0 .081 0 0c-.08.081-.08.081-.162.081 0-.08.081-.08.162-.08zm-.162.325c.162 0 .081.08.243 0 .08.08-.323.08-.242 0zm2.746.81c-.08.08-.242 0-.242-.081.242 0 .161.08.242.08zm5.814-1.297c0-.08.08-.08.161-.162v.162h-.161zm32.46 5.429c0 .081 0 .081 0 0s.162-.162.243-.162c.323 0 .646 0 .969.08.08 0 .08.082.08.163.081 0 .162 0 .162.081.08.081 0 .081-.08.081v-.162c-.081 0-.162 0-.243.081-.323.162-.565.162-.807 0-.081-.081-.162-.081-.323-.162 0 .081 0 .081 0 0 0 .081 0 .081 0 0 0 .081 0 .081 0 0l-.162.162c-.08 0-.161 0-.08-.081.08 0 .16 0 .242-.081 0 .081 0 .081 0 0zm1.696 1.782h.081c.08 0 .162.081.242.081.081 0 .081.081.081.163h-.242c-.162 0-.323-.082-.242-.163 0 0 0-.08.08-.08zM75.742 29.33c.161 0 .242 0 .404.082v.08c-.081 0-.162 0-.243-.08-.08-.082-.161-.082-.161-.082zm4.199 4.943c-.404.08-.646-.162-1.05-.243-.08 0-.08-.081-.08-.081.08 0 .16 0 .322-.081.162 0 .243-.081.243-.162h-.404c-.08 0-.08 0-.08-.081 0 0 .08-.081.16-.081h.404c-.08-.081-.161-.162-.161-.243-.08-.081-.08-.163-.08-.163.241-.242.564-.405 1.049-.486.08 0 .161.081.242.081-.242.163-.404.244-.161.487.242.162.484.243.888.243.08 0 .08 0 .161.08h.081-1.938v.163c.404.08.565.243.808.405l.08.08c-.242 0-.403.082-.484.082zm2.342.08l-.081.082h-.08c-.162-.162-.243-.243-.405-.324-.242-.162-.323 0-.323.08l-.161.082c0-.081-.08-.081-.08-.162 0-.324.08-.324.807-.324.403 0 .484.08.484.243-.08.08-.161.243-.161.324zm2.584-.161h-.081c-.08-.081-.08-.081.08 0 0-.081.081-.081.081-.081l-.08.08zm.565-1.053c-.08.08-.162.162-.404.162h-.646c-.565-.163-1.13-.163-1.696-.244-.08 0-.161-.08-.161-.08 0-.081 0-.163.242-.244.242 0 .404-.08.404-.162-.323-.08-.646-.324-1.13-.08-.243.08-.647 0-.97 0-.08 0-.161-.082-.161-.163-.08-.08.08-.162.242-.162 1.211 0 2.423.081 3.634.081.242 0 .404.081.404.243 0 .081.161.162.242.243.08 0 .242.081.242.163 0 .08-.161.161-.242.242zm10.659.972c-.162 0-.404-.081-.566-.162-.242-.081-.484-.081-.807 0-.08 0-.242.08-.242.08-.727-.323-1.615-.08-2.423-.161-.484-.081-1.05 0-1.615-.162-.323-.081-.888-.081-1.292-.081-.888 0-1.776 0-2.503-.243-.242-.081-.646.08-.808-.162.324-.163.647 0 .97-.081h2.099c.323 0 .646 0 .969-.082.242-.08.565-.08.727 0 .242.163.484 0 .646 0l.726.244c.243.08.485.08.808.08.323.082.646-.161.888-.08.323.162.727.08 1.13.08h.97c.323 0 .565.082.726.163.081.08.162.162.162.243 0 .324-.323.324-.565.324zm5.652 1.54c-.162.08-.323.242-.565.08-.162-.08-.242.081-.404 0-.081 0-.242-.08-.161-.08 0-.082.08-.163.161-.244h.888c.162.162.162.162.081.243zm1.696-.487h-.081c-.081 0-.081-.08.081-.08v.08c0-.08.08-.08 0 0zm.888.567l-.081-.08.081-.082c.161.081.161.162 0 .162zm1.05-.486l-.081-.08.081-.082c.161.081.161.081 0 .162zm.242.324l-.081-.08s.081 0 .081-.082h.081c0 .081 0 .162-.081.162zm1.776-.486s-.08 0-.08-.08c0 0 .08 0 .08-.082h.081c-.081.081-.081.081-.081.162zm6.622.648c-.081.081-.243.081-.404.081-.161-.08-.242-.08-.404-.162.081 0 .162-.08.243-.08.08 0 .161 0 .322-.082h.162c.081 0 .161 0 .242.081 0 .081-.081.162-.161.162zm1.453-1.053s-.081 0 0 0h-.161v-.081c.08.081.161.081.161.081zm2.1 1.864s-.081 0-.081-.081c0 0 .081 0 .081-.081h.08c0 .161-.08.161-.08.161zm1.372-.649l-.08-.08.08-.082c.162.081.162.162 0 .162zm2.584-.324s0 .081 0 0c-.08.081-.08.081 0 0-.08.162-.242.162-.484.162-.081 0-.081 0-.081-.08-.081 0 0-.082.081-.082.161 0 .242.081.484 0-.08 0-.08.081 0 0 0 0-.08 0 0 0l.081-.08h.081c.081.08-.081.08-.162.08zm4.199.892c-.323 0-.726-.081-.888.08-.323.163-.565-.161-.807 0-.243.082-.646.082-.889.163-.323.08-.646.08-.969.08-.161 0-.323-.08-.323-.161-.08-.162 0-.243.162-.243h.807c.081 0 .081-.082.081-.082l-.081-.08h-.484c-.081 0-.081 0-.162-.082-.08 0 0-.08.162-.08.404 0 .888 0 1.292-.163.242-.08.727-.08.969 0 .404.162 1.05.162 1.13.568zm32.138-8.427s.081 0 .081.081c-.081 0-.081 0-.162.081l-.08-.08c.08-.082.161-.082.161-.082zm.404-3.322c0 .081-.081.081-.081.162h-.323l-.081-.08h-.08l.484-.244c0 .081.081.162.081.162zm.969-2.917c-.081.081-.162.243-.242.243-.081.081-.243.243-.404.243-.162.081-.242 0-.323-.08.081-.163.161-.244.242-.406 0-.08.081-.162.162-.243h.161c.162.162.323.162.404.243zm-3.553-5.428c.081 0 .081.08.081.08-.081 0-.081.082-.162.082s-.081-.081-.161-.081c.08 0 .161-.081.242-.081zm-1.938-5.348c.081.081.161.081.242.162-.081.081-.161.162-.323.162-.081 0-.161-.08-.242-.162.161-.08.242-.08.323-.162zm-.808.405l.081.081h-.161c-.081 0 0 0 .08-.08zm-9.043-5.347l.08.08s0 .082-.08.082h-.081c-.081 0 0-.081.081-.162zm-.727-1.378c.081-.08.161-.08.242.081l-.081.081s-.08 0-.08-.08c-.162 0-.162-.082-.081-.082zm-1.534 8.265c.08 0 .161 0 .242.08-.162 0-.242-.08-.404-.08h.162zm-.566-8.67c.081 0 .081.081.162.081l-.081.081-.081-.08v-.082zm-2.664 7.13l.081.081-.081.081c-.081 0-.081-.08-.081-.08l.081-.082zm-3.876.081c.081 0 .081-.08.161-.08.404-.082.808 0 .969.485v.162c0 .082-.08.082-.161.082-.242-.082-.485-.244-.646-.325 0-.08-.081-.162-.081-.243-.081 0-.161.081-.242.081h-.081c.081-.08.081-.08.081-.162zm-.969-.08l.081.08s0 .081-.081.081h-.081c-.081 0-.081-.08.081-.162zm-72.431 4.86l.08.082v.243h-.484v-.081c.08-.081.242-.162.404-.243z" fill="#155B11"/><path d="M35.69 12.559c-.645.891 2.665 1.54 4.765 1.944l1.615-.324c-1.13-.81-.162-2.025-3.31-2.511-1.374-.243-2.827.729-3.07.89zm-.564 2.754l-.243 1.135.889-1.053c-.323.08-.323-.082-.646-.082zm10.739-1.783l-1.453.082c.484 1.296.404.405 2.745.729l-1.695-.405c-.081-.081.807-.324.403-.405zm112.806.568c.403 0 .888-.162 1.13-.243.323-.243-.485-.486-.888-.73-.323 0-1.454.73-.242.973zM40.697 22.524l1.615-.162c-.969-.81-.323-1.701-2.019-2.511h.081c-.08-.081.08-.081 0-.081s-.161.08-.242 0c-.242-.081-.565-.244-.888-.325-1.292-.324-2.827.487-3.069.649-.727.81 2.423 1.863 4.522 2.43zm-5.167.892h.16-.16l.16-.162h.081l.243-.243c-.162 0-.243 0-.323-.081h.08-.08c-.081 0-.162-.081-.243-.081v.08c-.08 0-.161 0-.161.082h.161l-.08.162c-.323-.081-.727-.162-.889-.162.081 0 .243 0 .243.08-.162 0-.162 0-.081.082-.08 0-.08-.081-.242-.081.08.08 0 .162-.162.08.081.082.162.082 0 .163.081 0 .242 0 .242.08 0 0-.08 0 0 0 .081 0 .081-.08.162-.08.162 0 .404 0 .565.08l-.08.244h-.566c0 .08-.161.08 0 .162.081-.081.323-.081.565-.081l-.08.243.242-.243h.161c0-.081.162.08.162 0-.08 0-.162-.081-.242-.081l.161-.243zm28.504 5.59c-.566 0-1.05.244-2.18.163h.16c0-.082-.08-.082-.16-.082v.082h-.162c-.242.162-.323.324-.323.486-.323 0-.646-.081-.888 0 .323 0 .565 0 .888.08.08.325.646.649 1.292.73.484-.486 2.503-.81 1.373-1.459zm95.444-4.942c-.403 0-1.453.73-.242.972.404 0 .888-.162 1.13-.324.243-.243-.565-.486-.888-.648zm-4.684 9.804c-.08.08-.242.162 0 .162.243 0 .404.08.404.162.323-.081.565-.162.888-.162v-.162c-.484-.243-.807-.243-1.292 0zm-83.09.081c-.08.162-.403.162-.646.162 0 .162.243.324.566.324h.565c.242-.081.161-.162.161-.324-.242-.081-.403-.162-.646-.162zm87.047-5.672c.081.081.243.162.323.162.081 0 .243.081.323 0 .243-.08.081-.162 0-.162-.08-.081-.08-.243-.08-.324h-.323c-.323.081-.404.243-.243.324zm-75.176 6.644h-.323v.324h.323c.323 0 .323 0 .161-.243-.08 0-.08-.081-.161-.081zm74.611-2.916c-.081 0-.081.08-.081.161.081 0 .162.082.162.082.08 0 .161-.081.242-.081.081 0 .081-.081.161-.163-.08 0-.403-.08-.484 0zm1.131-4.862h-.081c-.081.08-.081.162-.162.243 0 .08.081.243.323.243v-.405l-.08-.081zm0-.973c.08-.08.161-.08.161-.162 0-.162-.161-.243-.404-.162-.08 0-.08 0-.161.081.081.081.161.162.323.243h.081zm-67.022 9.966c.081.081.242.081.404.081.08 0 .08 0 .08-.08-.16 0-.242-.082-.403-.082 0 0-.08 0-.08.081zm15.585.162c.081 0 .161-.08.161-.08.081-.082 0-.244-.242-.244v.243c0 .081.081.081.081.081zm-24.951-.81s.08.081.161.081c0 0 .08 0 .08-.08v-.244h-.322c.08.081.08.162.08.243zm-12.355-1.62c-.08 0-.08 0-.08.08 0 .082 0 .082.08.082h.404c0-.081-.161-.162-.404-.162zm.404.162c0 .081.08.081 0 0 .08 0 .08 0 0 0 .08 0 0 0 0 0zm-5.733-4.376c-.081.081-.162.163-.162.244l.162.08c.161-.08.161-.162.08-.243 0-.08-.08-.08-.08-.08zm94.152-2.025v.324c.162 0 .242 0 .323-.162 0 0-.081-.08-.323-.162zm-34.722 10.29l.081.081c.081 0 .081 0 .081-.081l-.081-.081c0 .081 0 .081-.081.081zm-1.292 0s.081 0 .081.081c0 0 .081 0 .081-.081h-.162zm2.584-.162l.081.08s.081 0 .081-.08c0 0-.081 0-.081-.081.081.08 0 .08-.081.08zm-3.552-.243l.08.08s.081 0 .081-.08h-.161zm-.97 0h.081s.081 0 .081-.081l-.081-.081c-.161.08-.161.162-.081.162zm1.696-.162h.081s.081 0 .081-.081c-.081.081-.162.081-.162.081zm-19.945-.811h.081l.081-.08c-.081 0-.162 0-.162.08zm-7.671-.161l.081.08.081-.08c0-.082-.08-.082-.162 0zm3.553-.163c.08 0 .08 0 0 0 .08-.08.08-.08 0 0 .08-.08.08-.08 0 0 0-.08 0-.08 0 0zm-.161.081h.08c.081 0 .081-.08.081-.08-.08 0-.242 0-.161.08zm-1.615-.162c-.081 0-.081 0-.081.081l.08.081s.081 0 .081-.08l-.08-.082zm-4.038-.081c-.08.081 0 .081 0 0 0 .081.081.081.081.081.08 0 .08 0 .08-.08h-.16zm-2.342-.324l.081.081s.081 0 .081-.08l-.08-.081s-.082 0-.082.08zm-.968-.081l.08.081s.081 0 .081-.08l-.08-.082c0 .081-.081.081-.081.081zm-3.554-.324s-.08 0-.08.081l.08.081c.162 0 .162-.08 0-.162zm3.958-.729s.08 0 .08.081c0 0 .081 0 .081-.08h-.161zm-24.952-.729l.081.08s.08 0 .08-.08l-.08-.081-.08.08zm-.888-.081c-.08 0-.08.08 0 0 0 .08 0 .08 0 0 .08.08.162.08.162 0h-.162zm-4.198-1.216s-.082 0-.162.081l.08.081c.243-.08.243-.08.081-.162zm94.636 1.783h.081l.081-.081c-.081 0-.162 0-.162.081zm-77.68-2.268s0 .08 0 0v.08s.08 0 .08-.08c0 .08 0 0-.08 0zm-7.913-1.216h.08l.081-.08c-.08 0-.161 0-.161.08zm88.339 1.863l.081.082s.08 0 .08-.082l-.08-.08c0 .08 0 .08-.081.08zm-87.936-2.106l-.08.081c.08 0 .242 0 .161-.081 0 .081-.08 0-.08 0zm-1.453 0s.08 0 .08.081l.082-.081h-.161zm-.243-.487h.082c.08 0 .08 0 .08-.08 0 .08-.08.08-.161.08zm89.874 1.46s-.081 0-.081.08l.081.081c.081-.08.081-.08 0-.162zM84.14 32.895h.08c.081 0 .081 0 .081-.08 0 0-.08 0-.161.08.08-.08 0-.08 0 0zm-.485-.242c-.08-.081-.08-.081-.161-.081 0 .08 0 .161.161.08zm-.404-.243c-.08 0-.08.08-.08.08h.323c-.081 0-.081-.08-.243-.08zm41.021 3.645s-.081 0-.081.081c0 0 .081 0 .081.081l.081-.08c0-.082-.081-.082-.081-.082zM.323 22.524c-.08 0-.323-.08-.404 0 .162 0 .404.082.404 0zm2.019.244c0-.081-.162 0-.242-.081v.08h.242zm.808 0c-.162 0-.404-.081-.485 0 .08 0 .323.08.484 0zm.322 0c-.161 0-.08-.081-.161 0-.243.08.161.08.161 0zm1.05.081c-.323 0-.888-.081-.969 0 .323 0 .727.08.969 0zm4.845-2.188c-.162 0-.404 0-.485.081.242-.08.404 0 .485-.08zm-.323.405h.484c-.242 0-.323-.081-.484 0zm.484-.405c.242 0 .565 0 .727-.08-.162.08-.646 0-.727.08zm2.1.486c-.242 0-.808-.08-1.05 0 .404 0 .888.162 1.05 0zm1.695 7.778c.081 0 .081.081.323.081 0-.08-.242-.162-.323-.08zm.404.162c0-.162.323 0 .404 0 0-.162-.404-.08-.485-.162.081.081-.08.162.081.162zm-.242-8.75c-.08-.081-.485 0-.404 0h.404zm1.776.405c.323 0 .323-.08.566 0 0-.08 0-.08-.081-.162-.162.081-.565.081-.808.162.162-.08.323-.08.323 0zm.889 2.836c0-.081-.08-.081-.242-.081 0 .08.161.08.242.08zm1.21-2.836c0-.08-.16-.08-.241-.08 0 0-.081.08 0 .08h.242zm.485-.162c-.161 0-.484 0-.484.08.161 0 .484.082.484-.08zm1.131 3.079c-.323 0-.485 0-.646.08.323-.08.727.082.646-.08zm.323.648c-.162 0-.323-.081-.404 0 .08.08.404.08.404 0zm.807-4.213c.08-.081-.242-.081-.242 0h.242zm.889.486h-.323c.08 0 .323.081.323 0zm4.521 8.264c-.888.081-1.615 0-2.503.081-.08 0-.565-.08-.484 0 .161 0 .242.081.404.081.645-.08 1.857 0 2.664-.08 0 0-.161 0-.08-.082zm-3.31-5.266a.353.353 0 00-.242.08s.08 0 .08.082h.162c-.323-.081.08-.081 0-.162zm-.404-3.484h.161c0-.081-.161-.081-.242-.081-.08 0-.161 0-.242.08.161 0 .161-.08.242-.08 0 0 0 .08.08.08zm1.858-.081c.241 0 .564-.081.645 0h-.161c.08.162.323 0 .404.08-.162 0-.081.082-.243 0 0 .082.081.082.162.082.08 0 .323-.081.404 0 .08-.081 0 0 0-.081-.162 0-.485 0-.323-.081.08.08.403 0 .484.08-.08 0-.08.082-.08.082.16 0 .16 0 .241-.081.162 0-.08.08.081.08.162 0-.08-.08.242-.08-.08.08.485.08.485-.081-.242 0-.242 0-.404.08-.646-.161-1.615-.161-2.422-.08-.081-.081-.242-.081-.323-.081-.242.08-.888-.081-.888.08.484 0 1.13.082 1.695 0zm1.453 3.565c-.081 0-.081.08-.162.08.08-.161-.404 0-.242-.161-.242 0-.404 0-.565.08.242 0 .08.082.08.082h.162c.08 0 0-.081.08-.081.162 0 .162.08.324.162.161-.081.242 0 .403 0 0-.162.323 0 .485-.081 0 0 .08 0 .08.08h.485l.08-.08c.566.08 1.05 0 1.454.08v-.08s0-.081-.08-.081c-.97.08-1.535 0-2.584 0zm.727 5.266c-.081 0-.162 0-.243.081.08 0 .242 0 .242-.08zm-.808-4.861c0-.081-.08-.081-.161-.081 0 .08 0 .08-.081 0v.08c.08-.08.08-.08.242 0zm.727-.162c0 .081.404.081.404 0-.243.081-.243 0-.404 0zm2.018-.081c.162 0 .243 0 .323.08.162-.08-.323-.161-.323-.08zm.323-.73c-.16 0-.322-.08-.484 0 .162 0 .404.082.485 0zm.808 5.51c0-.08.08 0 .161 0 0-.162-.323-.08-.161 0zm-1.696-10.614c-.08 0-.161-.08-.323 0v.081c.162-.08.323 0 .323-.08zm1.373 5.591c-.162 0-.242 0-.242.08.08-.08.323 0 .242-.08zm1.535.243c-.082-.162-.324 0-.485-.081 0 .162.323 0 .484.08zm.484.243h-.162c0 .081.08.081.162.081.08-.081.161-.081 0-.081zm.161-.243c.08-.081.404.08.727 0-.081-.081-.566 0-.404-.162-.242.08-.323.08-.646 0 0 .162.242.162.323.162zm.565-.486c-.16 0-.242 0-.242.081.081-.081.162 0 .243-.081z" fill="#155B11"/><path d="M31.169 23.659c.162 0 .323.08.404 0-.162 0-.404-.081-.404 0zm.807.729h-.242c.08.081.323.081.242 0zm.889 3.322c-.162 0-.404 0-.404.081.162-.081.404 0 .404-.081zm-.646-3.89c-.081 0-.242 0-.242.082 0 0 .242 0 .242-.081zm.726 3.971c.162 0 .081.081.242 0 .162-.08-.242-.162-.242 0zm1.858-.081c-.162 0-.566-.081-.889-.081-.161 0-.484 0-.484.081.08 0 .08 0 .08.081.162 0 .082-.081.243-.081 0 0-.08.081 0 .081.242-.081.727 0 1.05-.081zm-1.939-3.403c.081 0 .162.081.324 0h-.324zm.081-2.674c0-.08 0-.162-.161-.08.161 0-.242 0-.242.08.161-.08.242 0 .403 0zm.404 2.674c-.08 0-.162 0-.162.081h.243c0-.08 0-.08-.081-.08zm.888 4.618c.242 0 .808.081 1.13 0-.403 0-.968-.08-1.13 0zm-.484-5.59c.08-.081-.161-.081-.161-.162v.08c.08 0 .08.082.161.082zm.161.891c.162 0 .242 0 .162-.08-.162 0-.081.08-.162.08zm.081-.891c-.161 0 .081-.081 0 0l-.161-.163v.163c.08 0 .161.08.161 0zm.081-.405v-.081c-.081 0-.243 0-.243.08.162-.08.162-.08.243 0zm.726-.162c.162 0 0 .08.081.162 0-.081.323-.081.162-.081-.162.08-.081-.162-.243-.081zm.324.324c-.081 0-.081-.081-.243-.081 0 .08.081.08.242.08zm.564 3.403c0 .08.162.08.243.08 0-.08-.161-.08-.242-.08zm-.322-2.836c.161 0 .323.08.404 0-.162 0-.323-.162-.404 0zm1.212 5.104c-.404 0 .16.081.16 0h-.16zm.565-5.023c.161.081.242.081.242 0-.162.081-.081 0-.242 0zm.807-.243c0-.081-.081-.081-.081-.081-.162.08-.646 0-.646.08.484 0 .484 0 .969.082 0-.162-.08-.162-.242-.081zm.323 0c0 .08.323.08.484.08-.08-.08-.323-.08-.484-.08zm0-4.213c0-.081-.565 0-.485 0h.485zm1.373 4.78c-.081 0-.081-.081 0 0-.162 0-.404 0-.485.081.162-.081.404-.081.485-.081zm-.323-1.377c-.242 0-.162.162 0 .162 0-.081-.081-.081-.081-.081.08 0 .08 0 .08-.081zm.485 2.754h.403c-.162 0-.404-.08-.404 0zm-.001-1.701c0 .08-.242.08-.242.08.161 0 .322.082.403 0-.161.082 0-.08-.161-.08zm.646 1.458c.08-.08.242 0 .323-.08-.242 0-.404.08-.565.08.161 0 .161.081.242 0zm-.485-1.215h.485c-.08-.081-.323-.081-.484 0zm.081-.163c.161.082.242 0 .484 0 0 0 0 .082.081.082v-.081c-.161 0-.242.08-.323.08l.081-.08h-.161c0-.081-.162-.081-.162 0zm0-.242h.565c-.242 0-.404-.081-.565 0zm1.292 2.592c.162 0 0 .081.162.081 0-.08 0-.08-.08-.08 0-.082-.082-.082-.082 0zm-.403-3.321c.08-.081-.081-.081 0-.162-.243 0-.081.162 0 .162zm.645 1.053h-.161c.242.08-.161 0-.161.08.242 0 .403 0 .322-.08zm-.807-7.292h-.808c.162.081.646 0 .808 0zm1.857 12.802c-.08 0-.08 0-.162.08.162 0 .081.082.243.082.08-.081-.081-.081-.081-.162zm-.969-6.725c.08.08.323.08.404.08.161-.08-.162-.08-.162-.08h.081c.08 0 .162.08.323.08-.161-.08-.484-.08-.646-.08zm.646 2.754h.162c-.081-.08-.162-.08-.323-.162 0 .081.161 0 .161.162zm-.404-2.592h.162c-.08.08.08.08.08.08h-.08c.08 0 .08 0 .161-.08h-.323zm-.322-3.079c.161 0 .322.08.403 0-.161 0-.403-.081-.403 0zm1.291 2.998s0-.081 0 0c-.323-.081-.323 0-.403 0h.403zm1.05 5.185s-.08 0 0 0l.081.081c.08 0 0-.08-.08-.08zm-.807-7.535h-.323c.08.08.323.08.323 0zm.807 4.132c-.08 0-.323-.08-.323 0 0 0 .081 0 .081.081.161-.162.161-.08.242-.08zm.081-1.701c0-.081-.485-.162-.565-.081.08 0 .161 0 .161.08.162-.161.242.082.404 0zm.404 4.131c.08.082.323.082.403 0-.161-.08-.323-.08-.403 0zm.161-.728s0-.082 0 0c0-.082 0-.082 0 0-.08 0-.323-.163-.242 0 .161-.082.161 0 .242 0zm-.565-3.242c.08 0 .565 0 .404-.08 0 .08-.162 0-.162 0 .08 0 .162-.081.162-.081h-.404c.323 0-.08.08 0 .162zm.565.244c-.162 0-.404 0-.323.081.161 0 .323 0 .242.081.242 0-.08-.081.08-.162zm.242 2.836c.162 0 .162.162.323 0-.08 0-.161 0-.161-.081 0 0-.323 0-.162.08zm0-.406s-.08 0-.08.081c.08 0 .323.081.323 0-.162 0-.162-.08-.243-.08zm.405-2.187h-.485s0 .08.08.08c.081-.08.162.082.324 0-.162-.08.08 0 .08-.08zm0 1.863h.242c-.081-.08.08-.08.161-.08-.08 0-.08-.082-.242 0-.08 0-.08.08 0 .08h-.162zm.726-5.266c0-.081.08-.081 0-.081-.323 0-.646.08-.807 0-.081.08-.485 0-.566.08h.727c.08 0-.08.082.08.082 0-.081.243-.081.162 0 .162 0 0-.081.162-.081 0 .08.08-.081.242 0zm-.566 1.945h.324c-.162 0-.162-.081-.323 0 0 0 .08 0 0 0zm-.16-1.297c.08-.08.403 0 .484-.08-.243-.082-.485-.082-.485.08zm.564.81c-.08 0-.242-.081-.242 0 .08 0 .08.081.242 0-.08.081-.08.081 0 0zm.242 1.62c-.08 0-.08-.08-.161-.08-.08.08.08.162.161.08zm-.806-3.483c.08 0 .241.08.241 0 0 0-.08 0-.08-.081-.081 0-.162.08-.162.08zm.08.243c.161 0 .242 0 .242-.081-.08 0-.08-.081-.162-.081 0 .08-.08.08-.08.162zm1.13 6.32h.162c0-.082 0-.082-.162-.082 0 0 .081 0 0 .081 0-.08 0-.08 0 0zm-.484-4.537s-.162 0-.162.08c.162 0 .162.082.242 0-.08 0 0-.08-.08-.08zm.726-1.135c-.161-.08-.242.081-.484.081 0 0 0-.08-.08-.08 0 .08-.324 0-.405.08.323 0 .808 0 .97-.08zm0 2.755c-.08 0-.323 0-.242.081.162-.081.162 0 .242-.081zm-.645-2.025c.08 0 .161.08.323 0-.081 0-.323-.082-.323 0zm0-1.054c.161 0 .323 0 .323-.081-.162 0-.243 0-.323.08zm1.695 8.102c.162 0 .242 0 .242-.08-.161 0-.242 0-.242.08zm-.969-8.345c.081.08-.08.08 0 .08.162 0 .162-.08 0-.08zm-.242-3.16c.161 0 .161.08.323 0 0-.081-.323-.081-.323 0zm1.131 2.997c-.081 0-.162.082-.243.082.081 0 .243 0 .243-.081zm.565 4.133c.161 0 .242.081.323.081 0-.081-.242-.162-.323-.081zm0-3.808c0-.081.161-.081.161-.081-.242 0-.484 0-.565.162.242-.081.242-.243.404-.081zm-.485-3.241c.081-.08-.403-.08-.323 0 .162-.08.243 0 .323 0zm.888 2.755c-.242.08-.323 0-.484.08.161.082.323-.08.404 0 0 0 .08 0 .08-.08zm.888 4.861s-.161 0 0 0c-.08.081-.161.081-.161.081.161 0 .323-.08.161-.08zm.243-.243c0-.08-.323-.08-.404-.08.162 0 .243.08.404.08zm-.323-1.539c.08-.081-.404-.081-.323 0 .162 0 .242-.081.323 0zm.888 4.375c0-.081.162 0 .162-.081-.162 0-.243 0-.323.08 0 0 0 .082.161 0zm.081-2.35c-.08 0-.242.081-.323.081.08 0 .404 0 .323-.081zm.081 1.297c-.081 0-.081-.081-.081-.081-.242-.081.08.162.08.08zm.162-1.135c.16 0 .241 0 .322-.08a.833.833 0 00-.323.08zm.08-2.674c0-.08.08-.08.08-.162-.08.081-.161.162-.08.162zm1.453 7.293h.323c-.08 0-.242-.081-.323 0zm-1.615-11.101c-.161 0-.161-.08-.323-.08.081.08.243.161.323.08zm1.696 9.723c.081 0 .323 0 .323-.08 0 0-.323 0-.323.08zm-1.211-9.723c-.161 0-.161.081-.242 0h-.08v.081c.241-.08.322 0 .322-.08zm1.534 9.642c.323.081.808.162 1.292.081.162 0-.161.081 0 .081.242-.08.727 0 .727-.08-.565 0-1.453-.163-2.019-.082zm-1.292-9.642c-.242 0-.161.162 0 .162 0-.08.162-.08.323-.08 0-.082-.242 0-.242-.082-.08 0 0 .081-.162.081 0-.08.081-.08.081-.08zm.646 1.297c-.08 0-.242-.162-.323-.081.162 0 .162.162.323.08zm1.535 8.102h.242c0-.162-.242-.081-.242 0zm-.889-5.186c.162 0 .162-.08.243-.08-.081-.082-.162 0-.243.08zm-.323-3.241c.162 0 .243.081.323 0-.08 0-.08 0-.08-.08-.081.08-.243 0-.243.08zm-.08-.567c.161 0 .323 0 .403-.08-.161 0-.242 0-.403.08zm-.001-.162c.162 0 .324-.08.243-.162 0 .162-.162.162-.242.162zm1.777 8.589c.08.08.162.08.162.08.08-.08-.081-.08-.162-.08zm-.565-8.751c0 .081-.323.081-.404.162.161 0-.08.081-.162 0v.081h.323c0-.08.323-.08.404-.162-.08 0-.08-.08-.161-.08zm-.081-.243c-.162 0-.484 0-.565.081.161 0 .403.081.565-.08zm0 1.378c-.08-.081.162-.081.08-.163-.16.082-.403.082-.484.082.323.08.323.08.404.08zm.08-.324c-.161 0-.161.08-.242.162.162 0 .162-.081.242-.162zm.566 0c0-.081-.08-.081-.242-.081.08.08.161.08.242.08zm.404-1.135c-.162.081-.404 0-.485.081.162 0 .404.081.485-.08zm.565 1.702h-.404c.08.162.323.08.404 0zm.242-.81c-.161 0-.565 0-.565.08.242-.08.485 0 .565-.08zm1.858 10.452h.322c0-.081-.242-.081-.322 0zm-1.696-10.371c.08 0 .242 0 .323-.081-.081 0-.323.08-.323.08zm1.937 7.778h-.242c.162 0 .243 0 .162.081h.242c-.161 0-.161 0-.161-.081zm-.08-6.158c-.162 0-.323.081-.243.081 0-.08.323 0 .243-.08zm-.323-1.458c-.08 0-.242 0-.242.08h.323s0-.08-.081-.08zm-.243-1.135c.081 0 .243.081.243 0-.081-.08-.243-.08-.243 0zm-.08-1.134c.08 0 0 0 0 0 .08 0 .404.08.323 0h-.323zm.646 2.349c-.162 0-.162 0-.162.081.162.082.081 0 .162-.08zm.161.405s-.242 0 0 0c-.161.082-.242.082-.242.082.162.08.323-.081.242-.081zm2.019 9.643c-.242 0-.323 0-.404.08.162 0 .323 0 .404-.08zm-1.211-9.237h-.404c.08.08.242.08.323.08 0 0-.08 0 .08-.08 0 .08 0 .08 0 0zm2.745 9.236h-.404c0 .081.324.081.404 0zm-.646-11.262c0-.08-.242-.08-.242 0 .08 0 .08.081.242 0zm.969-.486c.162 0 .242 0 .323-.08-.08 0-.323 0-.323.08zm.646-.243h-.161l-.08-.08s0 .08.08.08c.08.081.242.081.161 0zm.647.162c.08 0 .16 0 .242-.08-.081 0-.323 0-.242.08zm2.583 13.693c0 .081 0 .081.081.081.162 0 .242 0 .242-.081-.242.081-.242 0-.323 0zm7.348-1.944c.162 0 .485 0 .565.08 0-.08.081-.08 0-.08-.161.08-.403-.081-.565 0zM6.379 20.094c.161 0 .161-.081 0-.081.161 0 .565-.162.646-.243-.565.08-.727.324-1.211.324.242 0 .403.08.565 0zm9.367 3.403c0-.081 0-.081 0 0 .08 0 .161 0 .161-.081h-.403c.161 0 .08.08.242.08zm1.05-2.917c-.08.081-.485.081-.323.081.08 0 .242 0 .323-.08zm2.422 2.998s.08.08.08 0c-.08 0-.241-.081-.241 0 .08 0 .08 0 .08.08 0-.08.081-.08.081-.08zm3.795.081c0-.081-.161 0-.242-.081.08.08-.08.08-.08.08h.322zm5.572 0h-.162c.081 0 0 .08.162 0 0 0 .242.08.323 0h-.323c.08-.081.161-.081.161-.081-.161 0-.242.08-.161.08zm1.211-3.809c.08-.08.08 0 .162 0 0-.08-.243 0-.243 0h.081zm2.907 3.16c-.242 0 .08-.161-.161-.161-.081.162.08.243.161.162zm.404-1.539c0 .081-.081 0-.081.081.161-.08.646.081.565-.08-.242.08-.323.08-.484 0zm1.776 2.674c-.08.162-.484.162-.565.243.08 0 .242.081.242 0-.242-.08.485-.162.323-.243zm1.05 2.35c.08 0 .161 0 .161.08h-.161c.161.082.242 0 .323-.08-.162.08-.242-.081-.323 0zm-.161-2.675c0-.161-.404 0-.243 0h.242zm1.13-.404c-.404.08-.565.08-.888-.082 0 .082-.08.082-.162.082 0 0 0-.082-.08-.082-.081 0-.162.082-.162.082.485.08.808 0 1.292.08-.08-.08.162-.08 0-.08zm2.342 2.754c0 .082.161 0 .161.082-.08.08-.242 0-.242.08.08 0 .08.082 0 .082.485-.081.808 0 1.13-.162h-.16.322c0 .08-.161.162-.08.243 0-.081.322-.243.484-.081.08-.081-.162 0-.08-.081h.16s-.08 0 0 .08h.162c0-.161-.323-.08-.242-.242-.485-.162-1.13 0-1.615 0h-.162c-.08-.081-.161 0-.323 0 0 .08-.08.08-.161.08 0-.08-.162 0-.08-.08 0 0 .241 0 .241-.081-.08 0-.242-.081-.242 0 .08.08.08.162 0 .162.242.08.485 0 .727-.081-.08 0 0 0 0 0zm-.162-2.592c0-.081-.323-.081-.323 0 .08 0 .161.08.323 0zm-.322-.81h.16c0-.081-.08-.081-.08-.081.08 0 .242 0 .161-.082-.08 0-.242.082-.242.082.162 0 0 .08 0 .08zm1.453 3.16c-.08-.081-.485-.081-.565-.081v.08c.242 0 .323-.08.565 0zm1.937 3.564c-.16 0-.08.081-.241.081-.081-.08-.243 0-.323-.08.08.08-.162 0-.243 0 .243.162.727.08 1.05.08 0-.162-.161 0-.242-.08z" fill="#155B11"/><path d="M41.343 26.17c-.08 0-.242-.161-.323-.08.162 0 .081.162.323.08zm-.323-2.511h.242c-.08 0-.404 0-.242-.081-.162 0-.08-.081-.323 0-.08.081.161 0 .161.162-.08.081-.242 0-.242 0 .162 0 .162.162.242.081 0-.081.081-.081.162-.162zm-.565-3.889c.08 0 .08.08.08.08.082 0 .324-.08.243-.08-.08.08-.404-.081-.323 0zm2.584 3.89c.08 0 .242-.082.08-.082-.08.081-.484 0-.484 0-.161 0 .081.081 0 .081-.161 0-.161.081-.242.081-.08 0-.162 0-.162-.08.081-.082.162-.082.243-.082-.162.081-.242 0-.404 0-.08.081.161.081 0 .081-.242 0-.242-.08-.404 0v.081h.485s0 .081.08.081c.081-.08.485-.08.485.081h-.646c0 .081-.162.081.08.081 0 0 .081-.08.243-.08.161.08.565.08.807 0h-.161s0-.082-.08-.082c.16-.08.403-.08.645-.162.242 0 .162.081.404.081 0-.162.242-.08.565-.08v.08c.162-.08.323 0 .485-.08 0 0 0 .08.08.08-.08.081-.807.081-.726 0-.323.081-.566.162-.889.081.081 0-.161.081 0 .081a.687.687 0 01.566 0c.08-.162.484-.08.565 0-.08 0-.242 0-.242.081.242.081.323.081.565 0-.162 0-.323.081-.404 0 0 0 .08-.08.162-.08.08.08.161 0 .323 0 0 .08.161.08.242.08.08-.08-.08-.08.08-.08.243 0 .324-.082.485 0-.08 0-.161.08-.242.08.161 0 .08-.08.242-.08 0 .08.08.08.162.08.242-.08.646 0 .807-.162.08.081.242 0 .323.081-.08 0-.161 0-.161.081.242-.08.646 0 .646-.162.161 0 .323.162.484.081h-.08.16c.082.081.485-.08.647.081-.08-.08.161-.08.242-.08-.323-.082-.646-.082-.969-.082.323-.08.485-.08.808-.08 0 0-.243.08 0 .08.161-.162.484 0 .646-.08-.243 0-.485 0-.566-.082 0 .081-.161 0-.242 0 0 .162-.404 0-.646.081 0-.08-.161-.08-.323 0 0-.08-.161-.08-.242-.162-.242.243-.888 0-1.05 0 .08 0-.08.081-.08.081-.081 0-.162-.162-.324-.08.081 0 .162 0 .162.08h-.404s-.08.081-.161.081c-.162 0-.243-.08-.243-.08H45.3c.565.161-.97.161-.888 0-.162 0-.081.08-.243.08-.08-.08-.323-.08-.323-.08-.242 0-.403.08-.565 0-.08.08 0 .08.081.08-.162-.08-.242 0-.323-.08zm5.006.08c.081.162-.242.081-.323.081.081-.08.162 0 .323-.08zm-.403 0c-.081.081-.243 0-.323 0 0-.08.323-.08.323 0zm-.646.081c-.081.081-.404 0-.566 0 .081-.08.404-.08.566 0zm-1.535-.162c.162 0 .081.081.243 0 0 .081-.323.081-.404.162-.08-.08.242 0 .161-.162zm-1.695 0c0 .081-.323.162-.323.081-.081-.162.161-.162.323-.08zm-1.211 2.026c0-.081.242 0 .242-.081-.08 0-.162 0-.242.08-.081 0 0 0 0 0zm-.324-4.538c0 .081-.242.081-.242.162.242-.08.565 0 .727-.162.161 0 .242.081.404 0-.081 0-.081 0-.081-.081h-.162s0 .081-.08.081c0-.081-.243-.081-.323 0 .08 0 .161 0 .161.081-.242-.162-.242-.081-.404-.081zm1.939 5.267c0-.081-.081-.081 0-.081-.162 0-.162-.081-.243-.081h.162v-.081c-.243 0-.404-.081-.485 0 .08.08.323 0 .404.08-.162.163-.565.163-.727 0h.242c-.08-.08-.565-.08-.565 0 .323 0 .404.082.646.163v-.081c0 .08.162 0 .242.08-.08 0-.161.082 0 .082 0-.081.162-.081.162-.081-.162 0-.08-.081-.162-.081.081 0 .081 0 .162-.081 0 .162 0 .162.161.162zm-1.212-.081c.081.08.162.08.323.08 0-.08-.242-.08-.323-.08zm1.131 3.241c.404 0 .161 0-.081-.081 0 0 .08 0 .08.08z" fill="#155B11"/><path d="M43.362 23.983h-.242c.161.162.565 0 .807 0-.161-.08-.404.081-.646 0 0 0 .162.081.081 0zm-.404-.891c.484 0 .08 0 0-.081v.08zm.323 1.215c.08-.08.323 0 .485 0 0 0-.566-.08-.485 0zm.323.567c.323 0 .404.081.727 0-.161 0-.969-.162-.727 0zm.727-.081c.161 0 .161-.081.242-.162.162-.081-.323.08-.242.162zm-.242-2.106s-.162.08 0 .08c.161-.08.404 0 .646.082 0-.081-.081-.081-.081-.081.08.08.242 0 .323 0 .08.162.242.243.484.243 0 0-.08 0-.08.08.08 0 .08 0 .161-.08h.162c.08 0 .08.08.161 0h.727c-.08.08-.162 0-.162 0h.485c.08 0 .161 0 .242.08.08 0 .162 0 .242.082l-.242-.081h.08c-.08-.162-.16-.081-.16-.243-.243 0-.243.08-.404 0 0 0 0 .08-.081.08l-.08-.08h.08c0-.081-.162-.081-.242-.081l-.162-.081h.08-.16l-.404-.162c0-.162.807-.243.484-.405h-1.534c.08.243.161.405.161.567-.242 0-.403.08-.726 0zm2.907.324c-.081 0 0-.081 0 0zm-.162-.162c.08.08.08.08 0 0h-.161c.08.08.161.08.161 0zm-1.615 3.159c0 .162.484 0 .565-.08-.08 0-.404-.082-.323-.082.08 0 .162 0 .162.081-.162.081-.162.162-.404.081zM45.3 20.5h-.162c-.08.161-.484 0-.565.08.242 0 .404 0 .485.081.08-.162.242 0 .242-.162z" fill="#155B11"/><path d="M44.977 20.58h-.242v.08c.08 0 .323.082.242-.08.161 0-.08.08 0 0zm1.211 4.943h.162c-.081-.082-.162-.082-.243-.082-.08.082.081 0 .081.082zm2.422 2.43s0-.08 0 0l-.242-.08c-.242.08-.565 0-.888 0 .08.08-.08.08 0 .08 0 0 .08 0 .161-.08 0 .161.162.08.162.161 0-.08.484 0 .484-.08.081 0 .081.08.081.08.404 0 .807-.08 1.13 0-.08-.08-.08 0 0-.08-.242.08-.645-.163-.888 0zm-1.453-7.292c-.08-.08.242 0 .323-.08-.161-.082-.484 0-.727.08h.404zm.081 2.107c.08.08.323 0 .323.08h-.162c0 .082.081.082-.08.163.242 0 .161-.081.322-.081 0 .08-.161.08.081.162 0-.081.081-.162.242-.162-.08.08.324 0 .404.08 0 .082-.08.082.081.082 0-.081.242 0 .162-.081-.081 0-.162.08-.162 0 .162-.081.565-.081.727-.081.08-.162-.485-.081-.727-.081v-.081c.162 0 .162-.081.242-.081.081 0 .162.08.242 0 0-.081-.242 0-.322-.081-.081 0-.162.08-.243.08-.08-.08-.323 0-.484-.08 0 .08 0 .08-.162.08 0 0-.08 0-.08-.08.08 0 .08 0 .161-.081-.161 0-.323 0-.404-.081 0 .324-.242.243-.161.324zm.565-2.998c.081.08-.08.08-.08.08.08.082.322 0 .08-.08.162.08.404.162.404.08-.242 0-.404 0-.162-.08-.08-.081-.403.08-.403-.081-.081.08-.242.08-.323.08.08.082.323-.08.484 0zm.969 2.43c-.08 0-.08-.162-.08-.08 0 .08-.404.08-.324.161.081-.08.242-.08.404-.08zm-.888-5.833c.403-.081.645.08.968 0-.242 0-.726-.081-.968 0zm.726 3.322c.243-.081.323 0 .404.08-.08-.08 0-.242-.08-.324 0 .081-.324.081-.324.244zm1.535 3.078c-.242 0-.485.082-.646 0 0 .163-.162.082-.323.163 0 .08.08.08.08.08h.243c0-.08.323-.08.404 0 0 0-.081.082 0 .082.08 0 .08-.081.242 0 .08-.081-.162 0-.08-.081h.242c.161.162.565.08.726.08-.242-.324-1.211-.242-.888-.324z" fill="#155B11"/><path d="M50.387 22.93c.08.08.484.08.565.08-.161 0 .081-.08 0-.08 0 0-.08 0-.08-.081-.162 0-.081.08-.162.08.08.082-.162.082-.323 0zm-1.777-3.484c.162-.081.243 0 .324-.081-.162-.081-.404.08-.323.08zm.727 2.268c-.161 0-.323.081-.161.081-.08-.08.242.081.161-.08zm-.242-.081c0 .081.162 0 .08.081h.243c-.242 0-.242-.08-.323-.08zm-.161-1.863c.161 0-.081.08.08.08l-.08-.08c.161 0 .242.08.242 0h-.242zm-.484-2.836h.484s-.646-.08-.485 0zm2.906 8.832c.242.08.484-.081 0 0zm-.323-6.24c-.161.082-.484.082-.565.163.161-.081.484-.081.565-.163zm.646 5.915c.161-.08.484 0 .565-.08-.242-.082-.565 0-.565.08zm-.485-5.914c.162.08.242.08.242 0-.08 0-.08.08-.242 0zm.001-.162h.242c0-.081.08-.081.08-.081h-.242c-.08 0-.161-.162-.161-.081l.08.162zm1.372 5.347c-.08.081-.323 0-.403 0 .161.162.403.081.403 0 0 .081 0 .081 0 0zm-.888-5.104s.08-.081.161-.081v.08c.162 0 .081-.08 0-.08-.08 0-.323.08-.161.08zm1.696 7.94c.161 0 .161-.081.323-.081-.162 0 .242-.081 0-.081 0 .08-.242.162-.162.08-.161 0-.08.082-.161.082zm-1.535-8.994c.162 0 .566 0 .646-.08h-.565c.162.08-.08 0-.08.08zm1.211.891c-.403.081-.726 0-.888.081.081 0 0 .082 0 .082.243 0 .323.08.485 0 .08.08.161.162 0 .243 0 0 0-.081-.081-.081 0 0 0 .08.08.08 0 0 .081-.08.162-.08 0-.162.081-.162.162-.244h-.162s.323 0 .242-.08zm-.08-.81c-.242 0-.404-.08-.484.081.242-.08.323 0 .484-.08z" fill="#155B11"/><path d="M52.971 18.635h-.161s.08-.08 0-.08c0 .08-.162.08-.162.08.162-.08.242.081.323 0zm.565 1.054c-.161 0-.323.162-.323.162h.162c-.081-.081.161-.081.161-.162zm-.08-.729c-.162 0-.162.08-.323.162.242 0 .242-.081.323-.163zm-.001-.244c-.08 0-.323 0-.323.081.566 0 .727.081 1.212 0 0 0 0-.08.08-.08h-.646c.081 0 .081 0 .081.08-.161 0-.242-.08-.404-.08zm-.081-.972c-.484-.08-.403.081 0 0zm.324 1.539h-.404c.162 0 .323.162.404 0zm.565.406c-.081 0-.323 0-.323-.081h.242c-.08-.082-.242-.163-.404-.082 0-.08.081-.08 0-.08h-.161c-.081.08.161 0 .08.08-.08 0-.242 0-.323.082h.162c0-.082.161 0 .242 0v.162c.242-.081.485-.081.485-.081z" fill="#155B11"/><path d="M53.778 19.77c.081 0 .243-.081.404-.081-.08 0-.242.08-.404.08zm.404-.243c0 .08.162.08.242 0-.08-.081.081-.081 0-.081 0 .08-.08.08-.242.08zm3.149 7.697c-.08 0-.322.08-.322.162.161-.081.322-.081.322-.162zm-1.534-8.102h.243c0-.081-.162-.163-.243-.163.323.082-.08.163 0 .163zm1.615 8.102c.08 0-.08.162 0 0h.08c.081 0 .081 0 .081.08.162-.08-.161-.161-.161-.08zm-1.05-6.401h.162c-.081 0-.242.081-.081.081.162-.08.08-.08.162-.162-.081 0-.323.081-.243.081zm-.322-1.539c0 .162.322.08.403.08 0-.08.162-.08.08-.162-.08.081-.403 0-.16.081-.081.081-.162.081-.324 0zm.403-.973c.081-.08.242 0 .242 0-.161 0-.323-.162-.484-.08.161 0 .323 0 .242.08zm0-.81c-.242 0-.161.324-.161.243.08-.08 0-.243.161-.243zm.727.162c0 .081-.242.081-.323.162.161-.08.484-.162.323-.162zm4.44 9.48c-.403 0-.403-.08-.645 0 .161.081.242 0 .404.081-.162-.08.242.081.242-.08zm.243.081s0 .08.081.08c.08-.08.323.082.404 0 0 0 .08.082.08 0-.08 0-.08 0-.08-.08-.081 0-.162.08-.242 0-.081-.081-.162 0-.243 0 0 0-.161-.081-.161 0 .08-.081.08 0 .161 0zm.162-9.804c.08 0 .161.081.242.081 0-.081.162 0 .162-.081-.243 0-.323-.081-.485-.081-.08.081 0 .081.08.081-.08 0 0 0 0 0zM29.23 23.821c0-.081-.16 0-.08-.081h.323c.08 0 .162-.081 0-.081-.08.081-.323 0-.404 0 0 .081-.08.081-.08.081.161 0-.081.162.242.081zm16.232 5.347c0-.08-.243-.162-.324-.08-.242-.163-.726-.244-1.291-.163-.243-.08-.646-.162-.97-.08-.08-.082-.322 0-.484-.082 0 0 0 .081-.08.081-.647-.08-1.293 0-1.939-.08 0 .08-.323 0-.403.08.161 0 .242.081.403.081v-.08c.081 0 .162 0 .162.08 0 .081-.242 0-.162.081.808-.243 1.373.243 2.1.081l.08.081c.162-.162.485.081.566-.08 0 .08.323.08.484 0 .323.161.808 0 1.212.08 0 0 .161 0 .161-.08 0 .08.162.08.08 0h.162c0 .08-.08.08 0 .08.162.162.162 0 .242 0 .081.081.243 0 .162-.08l-.161.08zm.484-9.155c.08.08.08.08 0 .162h.242c.08-.081-.08-.081 0-.081s.08 0 .08.08c.162 0 .324 0 .324-.08-.162-.081-.323-.162-.646-.081zM47.4 21.39c.322 0 .242.081.403.081 0-.08-.08-.162-.161-.162H47.4s.08 0 0 0c.08 0 0 0 0 .081z" fill="#155B11"/></svg>