<svg width="150" height="34" fill="none" xmlns="http://www.w3.org/2000/svg"><rect x=".797" y=".442" width="148.406" height="33.173" rx="15" fill="#fff"/><g clip-path="url(#clip0)"><path d="M17.194 13.289l-1.95 2.052-1.95-2.052c-1.076-1.133-1.076-2.973 0-4.141a2.663 2.663 0 013.9 0c1.076 1.133 1.076 3.008 0 4.14z" fill="#59B224"/><path d="M13.294 19.093l1.95-2.053 1.95 2.053c1.076 1.132 1.076 2.973 0 4.14a2.663 2.663 0 01-3.9 0c-1.076-1.168-1.076-3.008 0-4.14z" fill="#113A13"/><path d="M17.967 18.243l-1.95-2.052 1.95-2.053a2.663 2.663 0 013.9 0c1.075 1.133 1.075 2.973 0 4.14a2.692 2.692 0 01-3.9-.035z" fill="#257524"/><path d="M12.487 14.103l1.95 2.053-1.95 2.088a2.663 2.663 0 01-3.9 0c-1.075-1.133-1.075-2.973 0-4.141a2.663 2.663 0 013.9 0z" fill="#99D255"/><path d="M121.746 13.147h-8.069v2.407h2.858v7.22h2.353v-7.22h2.858v-2.407zM44.02 20.792c.908 0 1.648-.39 2.052-.956l1.882 1.168c-.84 1.31-2.219 2.053-3.967 2.053-3.059 0-4.975-2.23-4.975-5.097 0-2.866 1.95-5.096 4.807-5.096 2.69 0 4.606 2.265 4.606 5.096 0 .354-.034.708-.101 1.027h-6.858c.336 1.274 1.311 1.805 2.555 1.805zm2.052-3.716c-.303-1.38-1.278-1.947-2.253-1.947-1.244 0-2.118.708-2.387 1.947h4.64zm13.716.884c0 2.867-2.017 5.097-4.438 5.097-1.345 0-2.286-.531-2.958-1.416v4.99h-2.354V13.147h2.354v1.133c.639-.885 1.613-1.416 2.958-1.416 2.454.035 4.438 2.23 4.438 5.096zm-2.354 0c0-1.628-1.075-2.725-2.52-2.725-1.447 0-2.522 1.097-2.522 2.725 0 1.628 1.075 2.725 2.521 2.725s2.521-1.097 2.521-2.725zm8.573 2.832c.908 0 1.647-.39 2.05-.956l1.883 1.168c-.84 1.31-2.218 2.053-3.967 2.053-3.059 0-4.975-2.23-4.975-5.097 0-2.866 1.95-5.096 4.807-5.096 2.69 0 4.606 2.265 4.606 5.096 0 .354-.034.708-.1 1.027h-6.859c.303 1.274 1.311 1.805 2.555 1.805zm2.05-3.716c-.302-1.38-1.277-1.947-2.252-1.947-1.244 0-2.118.708-2.387 1.947h4.64zm23.97.884c0 2.867-2.017 5.097-4.437 5.097-1.345 0-2.286-.531-2.959-1.416v4.99h-2.353V13.147h2.353v1.133c.64-.885 1.614-1.416 2.959-1.416 2.42.035 4.437 2.23 4.437 5.096zm-2.353 0c0-1.628-1.076-2.725-2.521-2.725-1.446 0-2.522 1.097-2.522 2.725 0 1.628 1.076 2.725 2.522 2.725 1.445 0 2.521-1.097 2.521-2.725zm8.539 2.832c.908 0 1.647-.39 2.051-.956l1.882 1.168c-.84 1.31-2.219 2.053-3.967 2.053-3.059 0-4.975-2.23-4.975-5.097 0-2.866 1.95-5.096 4.807-5.096 2.69 0 4.606 2.265 4.606 5.096 0 .354-.034.708-.101 1.027h-6.858c.336 1.274 1.345 1.805 2.555 1.805zm-3.295-9.945c0-.708.572-1.31 1.244-1.31.673 0 1.21.602 1.21 1.31 0 .708-.537 1.274-1.21 1.274-.672 0-1.244-.566-1.244-1.274zm5.346 6.229c-.303-1.38-1.278-1.947-2.253-1.947-1.244 0-2.118.708-2.387 1.947h4.64zm-1.883-6.23c0-.707.572-1.309 1.244-1.309s1.21.602 1.21 1.31c0 .708-.538 1.274-1.21 1.274-.672 0-1.244-.566-1.244-1.274zm5.345 7.114c0-2.866 2.051-5.096 4.808-5.096 1.781 0 3.328.991 4.067 2.477l-2.017 1.24c-.369-.78-1.143-1.275-2.084-1.275-1.412 0-2.454 1.097-2.454 2.654 0 1.522 1.042 2.62 2.454 2.62.941 0 1.715-.496 2.084-1.275l2.051 1.239c-.773 1.486-2.32 2.513-4.101 2.513-2.791 0-4.808-2.23-4.808-5.097zm18.793 0c0-2.866 2.118-5.096 4.807-5.096 2.69 0 4.841 2.23 4.841 5.096 0 2.867-2.151 5.097-4.841 5.097-2.689 0-4.807-2.23-4.807-5.097zm7.261 0c0-1.557-1.076-2.654-2.488-2.654-1.378 0-2.454 1.097-2.454 2.654s1.076 2.655 2.454 2.655c1.412 0 2.488-1.098 2.488-2.655zm-51.771 4.813h2.723l-3.497-4.848 3.396-4.778h-2.824l-2.622 3.929h-.807v-3.929h-2.353v9.626h2.353v-3.786h1.008l2.623 3.787zm61.487 0h2.723l-3.463-4.848 3.362-4.778h-2.79l-2.656 3.929h-.773v-3.929h-2.354v9.626h2.354v-3.786h.975l2.622 3.787zm-102.031 0h-2.521V12.015h-4.505v10.758h-2.488V9.537h9.514v13.236z" fill="#113A13"/></g><defs><clipPath id="clip0"><path fill="#fff" transform="translate(7.78 8.299)" d="M0 0h134.438v18.332H0z"/></clipPath></defs></svg>