<svg width="200" height="26" fill="none" xmlns="http://www.w3.org/2000/svg"><path d="M14.007 7.038l-2.9 2.915-2.9-2.915A4.135 4.135 0 019.535.308a4.085 4.085 0 014.471.894 4.136 4.136 0 010 5.836z" fill="#62BB46"/><path d="M8.181 15.234l2.9-2.916 2.901 2.916a4.13 4.13 0 01.025 5.84 4.087 4.087 0 01-5.8 0 4.13 4.13 0 010-5.83" fill="#0C592E"/><path d="M15.16 14.073l-2.904-2.915 2.905-2.915a4.086 4.086 0 015.8 0 4.13 4.13 0 010 5.83 4.076 4.076 0 01-5.8 0z" fill="#1B8F45"/><path d="M7.005 8.218l2.905 2.915-2.905 2.94a4.076 4.076 0 01-5.8 0A4.13 4.13 0 012.533 7.35a4.085 4.085 0 014.471.894" fill="#A1D078"/><path d="M157.52 10.233h4.251v10.23h3.5v-10.23h4.251v-3.37H157.52v3.37zM53.594 6.477c-4.25 0-7.146 3.13-7.146 7.186 0 4.055 2.87 7.186 7.421 7.186 2.6 0 4.63-1.065 5.9-2.916l-2.815-1.63a3.755 3.755 0 01-3.03 1.36c-1.845 0-3.335-.765-3.82-2.56h10.21c.088-.475.133-.957.136-1.44-.015-4-2.86-7.186-6.871-7.186h.015zm-3.545 5.906a3.375 3.375 0 013.545-2.745 3.286 3.286 0 013.36 2.745H50.05zM70.77 6.477a5.245 5.245 0 00-4.386 2V6.872h-3.5V25.92h3.5v-7.05a5.246 5.246 0 004.386 2c3.63 0 6.61-3.13 6.61-7.186 0-4.055-2.995-7.206-6.625-7.206h.015zm-.65 11.002a3.836 3.836 0 113.765-3.836 3.64 3.64 0 01-3.78 3.855l.015-.02zM86.298 6.476c-4.256 0-7.151 3.13-7.151 7.186 0 4.055 2.87 7.186 7.42 7.186 2.6 0 4.631-1.065 5.906-2.916l-2.82-1.63a3.75 3.75 0 01-3.03 1.36c-1.84 0-3.33-.765-3.82-2.56h10.21c.087-.475.133-.957.135-1.44-.015-4-2.86-7.186-6.865-7.186h.015zm-3.55 5.906a3.385 3.385 0 013.55-2.745 3.28 3.28 0 013.355 2.745h-6.906zm35.948-5.906a5.247 5.247 0 00-4.39 2V6.872h-3.501V25.92h3.501v-7.05a5.24 5.24 0 004.39 2c3.625 0 6.606-3.13 6.606-7.186 0-4.055-2.996-7.206-6.621-7.206h.015zm-.65 11.002a3.838 3.838 0 01-3.593-2.32 3.836 3.836 0 117.358-1.516 3.649 3.649 0 01-1.041 2.77 3.652 3.652 0 01-2.754 1.085l.03-.02zm13.436-12.082a1.81 1.81 0 001.288-.535 1.814 1.814 0 00.528-1.29 1.843 1.843 0 00-1.816-1.85 1.865 1.865 0 00-1.84 1.85 1.842 1.842 0 001.825 1.845l.015-.02zm5.146 0a1.817 1.817 0 001.815-1.825 1.838 1.838 0 00-1.815-1.85 1.866 1.866 0 00-1.84 1.85 1.838 1.838 0 001.825 1.845l.015-.02zm-2.41 1.06c-4.251 0-7.146 3.13-7.146 7.186 0 4.055 2.87 7.186 7.421 7.186 2.595 0 4.63-1.065 5.9-2.916l-2.815-1.63a3.764 3.764 0 01-3.035 1.36c-1.84 0-3.331-.765-3.816-2.56h10.211c.086-.475.129-.957.13-1.44-.015-3.98-2.855-7.166-6.865-7.166l.015-.02zm-3.546 5.906a3.386 3.386 0 013.546-2.75 3.29 3.29 0 013.36 2.75h-6.906zm19.152 5a3.716 3.716 0 010-7.43 3.354 3.354 0 013.091 1.825l3-1.77a6.82 6.82 0 00-6.066-3.5 7.188 7.188 0 00-7.185 7.185 7.188 7.188 0 007.185 7.186 6.919 6.919 0 006.116-3.54l-3.04-1.746a3.333 3.333 0 01-3.116 1.79h.015zm28.003-10.886a7.184 7.184 0 00-5.094 12.264 7.184 7.184 0 0012.27-5.078 7.085 7.085 0 00-2.083-5.117 7.088 7.088 0 00-5.123-2.069h.03zm0 10.941a3.755 3.755 0 113.681-3.755 3.611 3.611 0 01-1.038 2.686 3.603 3.603 0 01-2.673 1.07h.03zM108.345 6.862h-4.171l-3.91 5.5h-1.195v-5.5h-3.5v13.602h3.5v-5.36h1.445l3.911 5.36h4.09l-5.191-6.891 5.021-6.71zm86.449 6.711l5.001-6.72h-4.171l-3.905 5.5h-1.195v-5.5h-3.501v13.6h3.501v-5.35h1.5l3.91 5.36H200l-5.206-6.89zm-164.823 6.89h3.74V5.254h6.687v15.21h3.74V1.743H29.971v18.722z" fill="#0C592E"/></svg>