<svg width="15" height="15" fill="none" xmlns="http://www.w3.org/2000/svg"><path d="M15 11.23v2.258a1.501 1.501 0 01-1.026 1.433c-.199.067-.41.092-.619.073a14.944 14.944 0 01-6.508-2.31A14.693 14.693 0 012.32 8.166 14.877 14.877 0 01.006 1.64 1.503 1.503 0 01.9.128 1.51 1.51 0 011.507 0H3.77a1.51 1.51 0 011.508 1.295 9.65 9.65 0 00.528 2.115 1.503 1.503 0 01-.34 1.588l-.957.956a12.056 12.056 0 004.525 4.516l.958-.956a1.51 1.51 0 011.591-.338 9.7 9.7 0 002.12.526 1.509 1.509 0 011.296 1.528z" fill="#fff"/></svg>