<svg width="128" height="110" fill="none" xmlns="http://www.w3.org/2000/svg"><path d="M85.427 37.513l-.95.31.95-.31zm-21.429 24.25l-.905.425.905-.425zm32.492-7.169l-.772.636.772-.636zm-5.268 50.779c.096.544.615.907 1.159.812l8.863-1.564a1 1 0 10-.347-1.969l-7.879 1.389-1.39-7.878a1 1 0 10-1.969.347l1.563 8.863zm-67.8-90.185c.471-.115.957-.228 1.457-.338l-.428-1.953c-.516.113-1.017.23-1.503.348l.475 1.943zm4.4-.918a79.218 79.218 0 012.977-.465l-.272-1.982c-1.051.144-2.07.304-3.052.477l.346 1.97zm5.964-.819a84.129 84.129 0 013.005-.247l-.128-1.996a86.308 86.308 0 00-3.076.253l.2 1.99zm6.01-.385a80.212 80.212 0 013.01-.028l.02-2c-1.04-.01-2.07 0-3.086.028l.055 2zm6.018.059c.995.049 1.995.118 2.997.209l.18-1.992a74.248 74.248 0 00-3.08-.215l-.097 1.998zm5.98.546c.99.135 1.978.293 2.961.475l.365-1.966a63.843 63.843 0 00-3.056-.49l-.27 1.981zm5.89 1.098c.97.234 1.933.494 2.885.782l.579-1.915c-.99-.3-1.99-.569-2.996-.811l-.468 1.944zm5.712 1.733c.933.348 1.851.725 2.754 1.134l.825-1.822a45.263 45.263 0 00-2.88-1.186l-.699 1.874zm5.412 2.459a36.5 36.5 0 012.542 1.526l1.1-1.672a38.554 38.554 0 00-2.682-1.609l-.96 1.755zm4.943 3.256c.77.607 1.514 1.251 2.232 1.933l1.377-1.45a34.383 34.383 0 00-2.37-2.053l-1.24 1.57zm4.274 4.063c.64.734 1.252 1.505 1.833 2.316l1.625-1.166a33.166 33.166 0 00-1.95-2.465l-1.508 1.315zm3.44 4.79c.487.834.946 1.705 1.373 2.612l1.81-.851a35.038 35.038 0 00-1.457-2.77l-1.727 1.01zm2.519 5.34c.171.463.336.934.492 1.414l1.902-.621a39.427 39.427 0 00-.52-1.49l-1.874.698zm.492 1.414c.162.496.317.986.464 1.469l1.913-.584a80.41 80.41 0 00-.475-1.506l-1.902.62zm1.283 4.37a61.27 61.27 0 01.682 2.931l1.959-.403a62.24 62.24 0 00-.705-3.028l-1.936.5zm1.203 5.888c.15 1.031.259 2.02.33 2.97l1.994-.149a44.593 44.593 0 00-.344-3.109l-1.98.288zm.427 5.93a27.873 27.873 0 01-.184 2.954l1.986.234c.118-1 .185-2.055.198-3.166l-2-.022zm-.71 5.824c-.257 1-.576 1.91-.946 2.733l1.825.82c.42-.935.775-1.953 1.057-3.056l-1.937-.497zm-2.37 5.188a10.776 10.776 0 01-1.93 2.016l1.25 1.562a12.772 12.772 0 002.287-2.388l-1.607-1.19zm-4.312 3.42a9.729 9.729 0 01-2.684.67l.206 1.989a11.727 11.727 0 003.235-.809l-.757-1.85zm-5.471.582a11.614 11.614 0 01-2.697-.791l-.788 1.838c1.026.44 2.088.751 3.162.927l.323-1.974zm-5.157-2.194a13.523 13.523 0 01-2.11-1.912l-1.49 1.335a15.527 15.527 0 002.423 2.194l1.177-1.617zm-3.795-4.222c-.24-.406-.464-.83-.67-1.271l-1.811.85c.233.497.486.976.757 1.436l1.724-1.015zm-.67-1.271a14.27 14.27 0 01-.552-1.347l-1.888.662c.179.51.388 1.021.629 1.534l1.81-.85zm-1.185-4.149c-.099-.98-.062-1.927.095-2.83l-1.97-.341a12.441 12.441 0 00-.115 3.37l1.99-.199zm.963-5.512c.412-.846.942-1.636 1.576-2.358L64.755 48a12.632 12.632 0 00-1.871 2.801l1.798.877zm3.717-4.261c.77-.537 1.62-1.001 2.537-1.38l-.764-1.848a15.382 15.382 0 00-2.916 1.586l1.143 1.642zm5.326-2.219a16.4 16.4 0 012.914-.308l-.034-2c-1.127.02-2.22.138-3.27.346l.39 1.962zm5.852-.113c.944.139 1.908.355 2.885.653l.584-1.913a21.8 21.8 0 00-3.177-.719l-.292 1.979zm5.662 1.714c.875.403 1.756.874 2.638 1.419l1.05-1.702a26.584 26.584 0 00-2.852-1.534l-.836 1.817zm5.094 3.13a31.345 31.345 0 012.293 1.973L94 50.45a33.35 33.35 0 00-2.44-2.1l-1.228 1.579zm4.39 4.138c.333.374.665.762.995 1.163l1.544-1.271a40.438 40.438 0 00-1.046-1.223l-1.493 1.33zm.995 1.163c.313.38.612.763.897 1.151l1.61-1.186a29.121 29.121 0 00-.963-1.236l-1.544 1.27zm2.49 3.582c.491.849.928 1.712 1.313 2.59l1.831-.806a28.025 28.025 0 00-1.413-2.786l-1.73 1.002zm2.338 5.313c.294.93.538 1.87.734 2.82l1.959-.405a30.628 30.628 0 00-.786-3.018l-1.907.603zm1.189 5.707c.107.97.17 1.946.193 2.925l1.999-.048a36.071 36.071 0 00-.204-3.096l-1.988.219zm.146 5.864a41.93 41.93 0 01-.264 2.936l1.984.247a43.83 43.83 0 00.277-3.075l-1.997-.108zm-.724 5.855a50.847 50.847 0 01-.636 2.892l1.941.484c.247-.99.468-1.992.66-3.004l-1.965-.372zm-1.43 5.748a60.965 60.965 0 01-.939 2.817l1.882.678c.342-.95.667-1.922.97-2.91l-1.913-.585zm-2.011 5.591a66.89 66.89 0 01-1.198 2.723l1.813.846c.422-.907.835-1.843 1.233-2.805l-1.848-.764zm-2.514 5.39a64.787 64.787 0 01-1.434 2.605l1.728 1.006c.494-.848.99-1.745 1.48-2.686l-1.774-.924zm-2.99 5.128c-.28.427-.555.834-.824 1.218l1.638 1.147c.282-.402.569-.826.86-1.27l-1.674-1.095z" fill="#fff"/></svg>