<svg width="348" height="304" fill="none" xmlns="http://www.w3.org/2000/svg"><path d="M241.824 105.895l-.95.311.95-.311zm-61.274 69.341l-.905.425.905-.425zm92.909-20.5l-.772.636.772-.636zm-13.232 144.876a1 1 0 001.158.811l8.863-1.563a1.001 1.001 0 00-.347-1.97l-7.878 1.39-1.39-7.879a1 1 0 10-1.969.348l1.563 8.863zM64.087 40.252c.467-.115.938-.228 1.414-.34l-.459-1.947c-.482.114-.958.228-1.43.344l.476 1.942zm4.333-1.004c.944-.206 1.906-.41 2.884-.608l-.399-1.96c-.988.2-1.959.406-2.913.614l.428 1.954zm5.822-1.183c.956-.18 1.926-.356 2.91-.528l-.343-1.97c-.993.173-1.972.35-2.938.532l.37 1.966zm5.85-1.02c.968-.155 1.948-.306 2.939-.452l-.292-1.979c-.999.148-1.987.3-2.963.457l.317 1.974zm5.884-.866c.975-.131 1.96-.257 2.954-.378l-.241-1.986c-1.003.122-1.996.25-2.98.382l.267 1.982zm5.906-.718c.98-.107 1.968-.209 2.964-.305l-.192-1.991c-1.004.097-2 .2-2.989.307l.217 1.989zm5.923-.573c.984-.083 1.974-.16 2.97-.232l-.144-1.995c-1.004.073-2.002.15-2.993.234l.167 1.993zm5.937-.427c.985-.058 1.975-.111 2.971-.158l-.094-1.998c-1.004.047-2.003.1-2.996.16l.119 1.996zm5.945-.28c.986-.034 1.977-.063 2.971-.085l-.044-2c-1.003.023-2.002.052-2.996.086l.069 1.999zm5.951-.131a231 231 0 012.969-.009l.007-2c-1.002-.003-2 0-2.995.009l.019 2zm5.95.021c.986.017 1.975.04 2.966.07l.06-2c-1-.03-1.997-.053-2.992-.07l-.034 2zm5.946.18c.986.043 1.974.093 2.963.15l.115-1.997a216.98 216.98 0 00-2.991-.152l-.087 1.999zm5.933.342c.986.07 1.973.149 2.961.234l.173-1.992c-.998-.087-1.995-.165-2.99-.237l-.144 1.995zm5.922.512c.984.1 1.969.208 2.955.323l.232-1.986a196.57 196.57 0 00-2.986-.326l-.201 1.99zm5.902.69c.982.131 1.963.27 2.944.416l.295-1.978a185.95 185.95 0 00-2.975-.42l-.264 1.983zm5.877.878c.977.162 1.953.332 2.928.511l.361-1.967c-.986-.18-1.973-.353-2.961-.517l-.328 1.973zm5.843 1.072c.97.196 1.939.4 2.905.613l.431-1.953c-.979-.215-1.959-.422-2.941-.62l-.395 1.96zm5.799 1.279c.962.23 1.922.47 2.879.72l.503-1.936c-.969-.252-1.941-.495-2.916-.729l-.466 1.945zm5.743 1.495c.953.268 1.902.545 2.848.832l.581-1.913c-.959-.291-1.922-.573-2.887-.844l-.542 1.925zm5.677 1.723c.94.307 1.877.624 2.81.95l.661-1.887a138.56 138.56 0 00-2.851-.965l-.62 1.902zm5.595 1.962c.926.347 1.847.706 2.764 1.074l.746-1.855a127.24 127.24 0 00-2.807-1.092l-.703 1.872zm5.499 2.212c.908.39 1.81.792 2.707 1.204l.835-1.818c-.912-.419-1.83-.827-2.752-1.223l-.79 1.837zm5.383 2.473c.886.435 1.767.88 2.641 1.337l.927-1.772a116.24 116.24 0 00-2.688-1.36l-.88 1.795zm5.246 2.743c.862.48 1.717.972 2.565 1.476l1.021-1.72a111.28 111.28 0 00-2.612-1.503l-.974 1.747zm5.088 3.02c.834.528 1.66 1.067 2.478 1.618l1.117-1.66a104.696 104.696 0 00-2.526-1.648l-1.069 1.69zm4.905 3.303c.801.575 1.594 1.161 2.379 1.76l1.213-1.59a99.863 99.863 0 00-2.427-1.795l-1.165 1.626zm4.699 3.587c.764.62 1.519 1.254 2.265 1.9l1.309-1.512a96.487 96.487 0 00-2.313-1.94l-1.261 1.552zm4.468 3.869a91.425 91.425 0 012.138 2.036l1.402-1.426a94.123 94.123 0 00-2.184-2.08l-1.356 1.47zm4.215 4.144a93.58 93.58 0 011.998 2.165l1.491-1.333a92.668 92.668 0 00-2.042-2.212l-1.447 1.38zm3.938 4.408a92.623 92.623 0 011.85 2.286l1.575-1.233a93.658 93.658 0 00-1.891-2.337l-1.534 1.284zm3.637 4.646c.578.79 1.146 1.593 1.704 2.409l1.651-1.13a93.727 93.727 0 00-1.741-2.46l-1.614 1.18zm3.33 4.87c.529.83 1.048 1.674 1.556 2.53l1.72-1.022a94.477 94.477 0 00-1.59-2.583l-1.686 1.075zm3.015 5.076c.476.862.942 1.736 1.396 2.623l1.78-.913a97.491 97.491 0 00-1.425-2.677l-1.751.967zm2.7 5.263c.42.883.829 1.778 1.228 2.686l1.831-.805a103.17 103.17 0 00-1.253-2.74l-1.806.859zm2.387 5.431c.364.899.718 1.808 1.062 2.73l1.874-.699c-.35-.939-.711-1.866-1.082-2.782l-1.854.751zm2.062 5.53c.162.473.321.948.477 1.427l1.901-.621a117.75 117.75 0 00-.485-1.453l-1.893.647zm.477 1.427c.162.495.321.987.477 1.478l1.906-.608c-.158-.495-.319-.992-.482-1.491l-1.901.621zm1.387 4.396c.293.964.576 1.919.849 2.865l1.921-.554c-.275-.956-.561-1.92-.857-2.893l-1.913.582zm1.656 5.74c.272.997.533 1.985.783 2.963l1.937-.495c-.252-.989-.516-1.987-.791-2.994l-1.929.526zm1.5 5.867c.233.98.456 1.95.667 2.91l1.953-.43c-.214-.971-.438-1.952-.675-2.944l-1.945.464zm1.296 5.902c.197.986.383 1.96.557 2.924l1.968-.355c-.176-.977-.364-1.964-.564-2.962l-1.961.393zm1.061 5.895c.161 1.012.309 2.011.443 2.997l1.982-.27a137.535 137.535 0 00-.45-3.041l-1.975.314zm.808 5.917c.117 1.031.219 2.048.306 3.049l1.993-.174a120.086 120.086 0 00-.312-3.1l-1.987.225zm.527 6.02c.062 1.018.108 2.02.14 3.006l1.999-.064c-.033-1.006-.08-2.027-.143-3.064l-1.996.122zm.19 6.008a90.866 90.866 0 01-.045 2.978l1.999.063a92.09 92.09 0 00.046-3.043l-2 .002zm-.194 5.988a76.405 76.405 0 01-.256 2.956l1.989.211c.105-.991.193-2.001.263-3.032l-1.996-.135zm-.636 5.939a66.182 66.182 0 01-.503 2.927l1.962.385c.193-.983.366-1.989.519-3.017l-1.978-.295zm-1.147 5.839a55.75 55.75 0 01-.793 2.875l1.912.585c.296-.966.57-1.959.822-2.979l-1.941-.481zm-1.732 5.66c-.354.958-.73 1.883-1.127 2.776l1.827.813c.415-.934.808-1.898 1.176-2.895l-1.876-.694zm-2.417 5.43a39.535 39.535 0 01-1.47 2.543l1.693 1.065a41.635 41.635 0 001.544-2.671l-1.767-.937zm-3.148 4.99c-.598.8-1.219 1.56-1.86 2.28l1.493 1.33a36.308 36.308 0 001.969-2.412l-1.602-1.198zm-3.904 4.377a30.752 30.752 0 01-2.229 1.9l1.224 1.582a32.874 32.874 0 002.372-2.022l-1.367-1.46zm-4.638 3.582a29.435 29.435 0 01-2.556 1.432l.889 1.792c.928-.461 1.839-.97 2.73-1.53l-1.063-1.694zm-5.24 2.6c-.916.345-1.846.643-2.787.894l.515 1.933a31.146 31.146 0 002.978-.956l-.706-1.871zm-5.652 1.509c-.965.158-1.937.269-2.915.334l.133 1.996c1.04-.07 2.077-.188 3.105-.356l-.323-1.974zm-5.849.391a32.82 32.82 0 01-2.93-.213l-.235 1.986c1.036.122 2.074.198 3.11.226l.055-1.999zm-5.832-.687a34.591 34.591 0 01-2.855-.724l-.573 1.917c1 .299 2.008.554 3.02.765l.408-1.958zm-5.643-1.685a36.553 36.553 0 01-2.702-1.187l-.877 1.798c.939.458 1.889.875 2.85 1.251l.729-1.862zm-5.298-2.581a38.793 38.793 0 01-2.484-1.594l-1.143 1.642a40.905 40.905 0 002.612 1.675l1.015-1.723zm-4.844-3.373a39.9 39.9 0 01-2.227-1.954l-1.373 1.454a41.552 41.552 0 002.337 2.051l1.263-1.551zm-4.3-4.058c-.66-.719-1.3-1.467-1.92-2.245l-1.564 1.245a43.74 43.74 0 002.01 2.352l1.474-1.352zm-3.684-4.626a44.878 44.878 0 01-1.603-2.503l-1.719 1.021c.534.9 1.094 1.772 1.676 2.617l1.646-1.135zm-3.027-5.088a46.679 46.679 0 01-.658-1.347l-1.811.85c.223.475.452.943.687 1.405l1.782-.908zm-.658-1.347c-.212-.45-.413-.899-.606-1.347l-1.837.789c.201.469.411.938.632 1.408l1.811-.85zm-1.649-4.024a38.875 38.875 0 01-.86-2.779l-1.931.519c.26.968.561 1.942.903 2.921l1.888-.661zm-1.499-5.596a34.253 34.253 0 01-.407-2.846l-1.99.199c.1.996.243 2 .43 3.011l1.967-.364zm-.568-5.709c-.013-.973.019-1.933.094-2.881l-1.994-.157a33.776 33.776 0 00-.1 3.063l2-.025zm.452-5.732c.165-.949.373-1.884.623-2.802l-1.93-.525a32.486 32.486 0 00-.663 2.985l1.97.342zm1.506-5.531c.338-.898.717-1.777 1.136-2.637l-1.797-.876a32.446 32.446 0 00-1.211 2.808l1.872.705zm2.513-5.16a32.299 32.299 0 011.6-2.39l-1.611-1.185a33.992 33.992 0 00-1.699 2.538l1.71 1.037zm3.404-4.631a34.544 34.544 0 011.991-2.083l-1.387-1.441a36.407 36.407 0 00-2.106 2.204l1.502 1.32zm4.149-3.999a37.453 37.453 0 012.308-1.742l-1.143-1.642a39.589 39.589 0 00-2.432 1.837l1.267 1.547zm4.741-3.304a39.55 39.55 0 012.539-1.378l-.891-1.791c-.912.454-1.801.937-2.665 1.447l1.017 1.722zm5.175-2.575a42.247 42.247 0 012.718-1.017l-.638-1.896a45.85 45.85 0 00-2.844 1.064l.764 1.849zm5.501-1.852a46.117 46.117 0 012.82-.653l-.39-1.962c-.996.198-1.977.425-2.943.681l.513 1.934zm5.684-1.13c.953-.13 1.92-.231 2.898-.305l-.15-1.994a50.061 50.061 0 00-3.017.317l.269 1.982zm5.799-.438a51.334 51.334 0 012.904.032l.077-1.999a54.355 54.355 0 00-3.016-.033l.035 2zm5.817.226c.955.09 1.918.206 2.888.349l.292-1.978a56.08 56.08 0 00-2.993-.362l-.187 1.991zm5.753.848c.948.19 1.901.406 2.859.649l.491-1.939a60.492 60.492 0 00-2.957-.671l-.393 1.961zm5.655 1.429c.921.281 1.846.587 2.773.918l.672-1.884a64.67 64.67 0 00-2.862-.947l-.583 1.913zm5.506 1.964a66.58 66.58 0 012.67 1.16l.836-1.817a69.913 69.913 0 00-2.749-1.194l-.757 1.851zm5.32 2.449c.85.436 1.701.894 2.553 1.375l.983-1.742a76.428 76.428 0 00-2.624-1.413l-.912 1.78zm5.091 2.875a78.494 78.494 0 012.443 1.573l1.114-1.661a80.677 80.677 0 00-2.506-1.613l-1.051 1.701zm4.863 3.26a85.056 85.056 0 012.326 1.748l1.228-1.578a87.575 87.575 0 00-2.381-1.79l-1.173 1.62zm4.627 3.602a94.02 94.02 0 012.204 1.898l1.329-1.494a95.781 95.781 0 00-2.252-1.94l-1.281 1.536zm4.391 3.905a106.09 106.09 0 012.077 2.025l1.416-1.412c-.703-.706-1.41-1.394-2.118-2.065l-1.375 1.452zm4.14 4.157a105.66 105.66 0 011.965 2.146l1.494-1.33a109.976 109.976 0 00-2.002-2.187l-1.457 1.371zm3.899 4.375c.321.38.641.764.961 1.152l1.544-1.271c-.325-.395-.651-.786-.977-1.172l-1.528 1.291zm.961 1.152c.316.384.628.771.935 1.158l1.568-1.242a87.354 87.354 0 00-.959-1.187l-1.544 1.271zm2.723 3.502a79.393 79.393 0 011.7 2.413l1.656-1.121a78.778 78.778 0 00-1.744-2.475l-1.612 1.183zm3.302 4.88a77.11 77.11 0 011.514 2.538l1.737-.991a81.159 81.159 0 00-1.553-2.604l-1.698 1.057zm2.92 5.118a77.6 77.6 0 011.316 2.649l1.808-.855a79.786 79.786 0 00-1.35-2.718l-1.774.924zm2.523 5.333c.388.908.757 1.82 1.108 2.737l1.868-.716a81.115 81.115 0 00-1.137-2.806l-1.839.785zm2.111 5.509c.318.933.619 1.869.901 2.809l1.916-.576a82.942 82.942 0 00-.924-2.878l-1.893.645zm1.701 5.651c.249.952.482 1.907.697 2.866l1.951-.439a83.511 83.511 0 00-.714-2.934l-1.934.507zm1.296 5.759c.184.968.351 1.938.502 2.91l1.976-.307a91.034 91.034 0 00-.512-2.975l-1.966.372zm.908 5.838c.12.978.224 1.957.314 2.939l1.991-.182a94.791 94.791 0 00-.32-3.001l-1.985.244zm.537 5.887c.06.984.105 1.969.136 2.955l1.999-.063a104.52 104.52 0 00-.139-3.013l-1.996.121zm.187 5.914c.004.987-.007 1.973-.03 2.96l1.999.048c.024-1.005.035-2.01.031-3.015l-2 .007zm-.139 5.919c-.05.986-.111 1.972-.185 2.957l1.994.15c.075-1.001.138-2.004.188-3.007l-1.997-.1zm-.444 5.909c-.098.983-.208 1.965-.329 2.945l1.985.245c.123-.995.235-1.993.334-2.992l-1.99-.198zm-.726 5.884a131.11 131.11 0 01-.462 2.929l1.972.333c.167-.988.324-1.979.469-2.972l-1.979-.29zm-.987 5.849c-.185.972-.381 1.942-.585 2.909l1.956.415c.208-.98.406-1.963.594-2.949l-1.965-.375zm-1.229 5.805c-.225.966-.459 1.928-.701 2.887l1.939.49c.245-.971.482-1.945.71-2.924l-1.948-.453zm-1.455 5.755c-.262.958-.531 1.912-.808 2.861l1.919.561c.281-.96.554-1.925.818-2.895l-1.929-.527zm-1.667 5.704c-.295.948-.597 1.89-.907 2.826l1.899.628c.313-.948.619-1.901.918-2.859l-1.91-.595zm-1.864 5.643c-.327.938-.66 1.868-1 2.792l1.878.69c.343-.934.68-1.875 1.011-2.822l-1.889-.66zm-2.049 5.578a187.15 187.15 0 01-1.092 2.765l1.855.749c.373-.923.741-1.855 1.103-2.794l-1.866-.72zm-2.224 5.505c-.389.922-.783 1.834-1.181 2.738l1.83.806c.402-.913.8-1.835 1.193-2.766l-1.842-.778zm-2.399 5.445c-.416.907-.836 1.804-1.259 2.689l1.805.862c.427-.894.851-1.8 1.272-2.716l-1.818-.835zm-2.565 5.369c-.444.896-.891 1.778-1.34 2.648l1.778.917c.453-.879.905-1.771 1.354-2.675l-1.792-.89zm-2.72 5.273c-.476.889-.953 1.762-1.43 2.619l1.748.973a192.7 192.7 0 001.445-2.647l-1.763-.945zm-2.896 5.204c-.502.868-1.003 1.718-1.503 2.549l1.714 1.03c.506-.84 1.013-1.7 1.52-2.578l-1.731-1.001zm-3.056 5.081c-.539.861-1.074 1.699-1.604 2.511l1.674 1.093c.538-.823 1.08-1.671 1.626-2.543l-1.696-1.061zm-3.255 4.982c-.278.406-.554.805-.828 1.197l1.639 1.147c.278-.398.558-.803.84-1.215l-1.651-1.129z" fill="#fff"/></svg>