<svg width="20" height="20" fill="none" xmlns="http://www.w3.org/2000/svg"><path fill-rule="evenodd" clip-rule="evenodd" d="M6.667 0H5.334v4h1.333V0zM20 5.333a4 4 0 00-4-4v1.334a2.667 2.667 0 012.667 2.666H1.333A2.667 2.667 0 014 2.667V1.333a4 4 0 00-4 4V16a4 4 0 004 4h12a4 4 0 004-4V5.333zM8 2.667h4V1.333H8v1.334zm-6.667 4V16A2.667 2.667 0 004 18.667h12A2.667 2.667 0 0018.666 16V6.667H1.333zm12-6.667h1.334v4h-1.334V0zM6.667 8h-4v4h4V8zM8 8h4v4H8V8zm-1.333 5.333h-4v4h4v-4zm1.333 0h4v4H8v-4zM17.333 8h-4v4h4V8z" fill="#155B11"/></svg>